<svg width="1728" height="1117" viewBox="0 0 1728 1117" fill="none" xmlns="http://www.w3.org/2000/svg">
<rect width="1728" height="1117" fill="#F5F8F9"/>
<rect x="0.5" y="0.5" width="1727" height="1116" stroke="black" stroke-opacity="0.25"/>
<mask id="path-3-outside-1_66_4128" maskUnits="userSpaceOnUse" x="617" y="298" width="494" height="522" fill="black">
<rect fill="white" x="617" y="298" width="494" height="522"/>
<path fill-rule="evenodd" clip-rule="evenodd" d="M710.919 698.532L680.644 737.672C679.526 739.121 677.879 740.066 676.064 740.3C674.249 740.534 672.416 740.038 670.967 738.92C670.601 738.598 670.173 738.353 669.71 738.2C669.247 738.047 668.757 737.99 668.271 738.032C667.785 738.074 667.313 738.214 666.882 738.443C666.452 738.673 666.072 738.987 665.767 739.368L634.093 780.287C632.295 782.622 631.495 785.574 631.867 788.497C632.239 791.42 633.754 794.077 636.08 795.887L645.159 802.886C647.493 804.685 650.445 805.486 653.368 805.115C656.291 804.743 658.948 803.23 660.759 800.905L692.407 759.986C692.975 759.247 693.23 758.314 693.118 757.389C693.007 756.463 692.536 755.618 691.809 755.035C690.995 754.479 690.31 753.754 689.801 752.909C689.292 752.065 688.971 751.121 688.859 750.141C688.747 749.162 688.847 748.17 689.152 747.232C689.458 746.295 689.961 745.434 690.628 744.708L720.331 706.306C720.829 705.536 721.475 704.874 722.232 704.358C722.989 703.842 723.842 703.482 724.739 703.299C725.637 703.116 726.563 703.115 727.461 703.295C728.36 703.474 729.213 703.831 729.972 704.345C747.234 714.417 767.191 718.899 787.102 717.173C807.014 715.447 825.902 707.599 841.174 694.707C856.446 681.815 867.351 664.511 872.394 645.172C877.436 625.832 876.367 605.406 869.334 586.699L851.217 595.019C854.836 605.189 856.273 616.008 855.435 626.77C854.597 637.533 851.502 647.998 846.352 657.486C841.201 666.973 834.111 675.269 825.542 681.835C816.973 688.401 807.118 693.089 796.617 695.594C786.117 698.099 775.207 698.365 764.597 696.375C753.987 694.384 743.914 690.182 735.036 684.042C726.157 677.901 718.671 669.96 713.064 660.735C707.458 651.51 703.856 641.208 702.495 630.499C694.055 564.521 770.668 517.325 825.794 559.965C833.762 566.11 840.442 573.764 845.45 582.492L863.572 574.172C856.893 562.019 847.68 551.444 836.558 543.163C825.435 534.881 812.663 529.086 799.106 526.171C785.549 523.256 771.524 523.288 757.98 526.265C744.436 529.243 731.691 535.096 720.606 543.428C709.522 551.761 700.358 562.378 693.734 574.561C687.111 586.744 683.183 600.208 682.216 614.041C681.25 627.875 683.268 641.754 688.133 654.74C692.998 667.725 700.597 679.514 710.414 689.307C711.627 690.507 712.352 692.115 712.448 693.819C712.544 695.523 712.005 697.202 710.935 698.532H710.919ZM863.868 732.79C862.944 732.815 862.024 732.655 861.162 732.318C860.301 731.982 859.515 731.477 858.852 730.832C858.189 730.187 857.662 729.415 857.303 728.563C856.943 727.711 856.757 726.796 856.757 725.871C856.757 724.946 856.943 724.03 857.303 723.178C857.662 722.326 858.189 721.555 858.852 720.91C859.515 720.265 860.301 719.76 861.162 719.423C862.024 719.087 862.944 718.927 863.868 718.952H1018.27C1020.07 719.002 1021.78 719.752 1023.04 721.044C1024.3 722.336 1025 724.068 1025 725.871C1025 727.674 1024.3 729.405 1023.04 730.697C1021.78 731.99 1020.07 732.74 1018.27 732.79H863.868ZM894.549 683.883C892.713 683.883 890.953 683.154 889.655 681.856C888.357 680.558 887.628 678.797 887.628 676.962C887.628 675.126 888.357 673.366 889.655 672.068C890.953 670.77 892.713 670.04 894.549 670.04H1018.27C1020.1 670.04 1021.86 670.77 1023.16 672.068C1024.46 673.366 1025.19 675.126 1025.19 676.962C1025.19 678.797 1024.46 680.558 1023.16 681.856C1021.86 683.154 1020.1 683.883 1018.27 683.883H894.549ZM911.813 634.971C910.889 634.996 909.968 634.836 909.107 634.5C908.245 634.164 907.46 633.658 906.797 633.013C906.134 632.368 905.607 631.597 905.247 630.745C904.887 629.893 904.702 628.977 904.702 628.052C904.702 627.128 904.887 626.212 905.247 625.36C905.607 624.508 906.134 623.737 906.797 623.092C907.46 622.447 908.245 621.941 909.107 621.605C909.968 621.269 910.889 621.108 911.813 621.134H1018.27C1020.07 621.183 1021.78 621.934 1023.04 623.226C1024.3 624.518 1025 626.25 1025 628.052C1025 629.855 1024.3 631.587 1023.04 632.879C1021.78 634.171 1020.07 634.922 1018.27 634.971H911.813ZM815.846 397.479H970.574C972.409 397.479 974.17 398.208 975.468 399.506C976.766 400.804 977.495 402.565 977.495 404.4V450.057C977.495 451.892 976.766 453.653 975.468 454.951C974.17 456.249 972.409 456.978 970.574 456.978H815.846C814.011 456.977 812.252 456.247 810.955 454.949C809.658 453.651 808.93 451.891 808.93 450.057V404.4C808.93 402.565 809.659 400.804 810.957 399.506C812.255 398.208 814.01 397.479 815.846 397.479ZM963.653 411.321H822.762V443.141H963.653V411.321ZM1022.89 529.691L1004.94 521.74C1003.38 521.054 1002.13 519.818 1001.43 518.268C1000.73 516.719 1000.62 514.964 1001.13 513.342L1006.74 494.621L956.352 517.808L948.962 542.472L972.503 552.898L1022.89 529.706V529.691ZM1016.09 511.563L1024.37 483.909C1024.76 482.616 1024.75 481.24 1024.37 479.949C1023.98 478.657 1023.22 477.508 1022.19 476.641C1021.15 475.775 1019.89 475.229 1018.55 475.072C1017.21 474.915 1015.86 475.152 1014.65 475.755L947.735 506.555C946.843 506.965 946.048 507.56 945.405 508.302C944.762 509.044 944.285 509.915 944.007 510.856L934.87 541.323L876.109 568.363C862.8 543.695 840.627 524.996 814.067 516.04C787.507 507.084 758.538 508.54 733.009 520.112V412.627H784.032C785.867 412.627 787.628 411.897 788.926 410.599C790.224 409.301 790.953 407.541 790.953 405.705V354.682H1053.39V799.345H733.009V721.485C753.006 730.56 775.253 733.477 796.913 729.862C818.574 726.248 838.669 716.266 854.636 701.19C870.603 686.113 881.72 666.625 886.571 645.207C891.421 623.789 889.785 601.412 881.871 580.927L940.632 553.886L969.752 566.788C970.687 567.201 971.702 567.402 972.723 567.375C973.745 567.348 974.748 567.094 975.66 566.632L1042.57 535.842C1043.77 535.283 1044.79 534.388 1045.5 533.266C1046.21 532.143 1046.58 530.839 1046.57 529.511C1046.56 528.182 1046.16 526.886 1045.43 525.776C1044.7 524.666 1043.67 523.79 1042.45 523.253L1016.08 511.568L1016.09 511.563ZM781.65 627.062L798.582 619.262C798.939 623.914 797.65 628.543 794.939 632.34C792.228 636.138 788.268 638.861 783.752 640.033C779.236 641.206 774.452 640.753 770.236 638.754C766.02 636.755 762.642 633.338 760.691 629.099C758.741 624.861 758.343 620.072 759.567 615.57C760.791 611.067 763.559 607.139 767.387 604.471C771.215 601.804 775.859 600.568 780.506 600.979C785.154 601.39 789.509 603.422 792.81 606.719L775.868 614.519C775.044 614.899 774.304 615.438 773.688 616.104C773.073 616.77 772.594 617.551 772.281 618.402C771.967 619.253 771.824 620.158 771.86 621.064C771.896 621.97 772.11 622.861 772.49 623.684C772.87 624.508 773.409 625.249 774.075 625.864C774.741 626.479 775.522 626.958 776.373 627.271C777.224 627.585 778.129 627.728 779.035 627.692C779.942 627.656 780.827 627.442 781.65 627.062ZM805.857 600.718C800.889 594.017 793.614 589.395 785.438 587.745C777.261 586.096 768.763 587.536 761.586 591.787C754.409 596.038 749.063 602.799 746.58 610.762C744.098 618.725 744.655 627.326 748.145 634.903C751.635 642.479 757.809 648.493 765.475 651.782C773.14 655.071 781.753 655.402 789.648 652.711C797.544 650.019 804.161 644.497 808.222 637.211C812.283 629.924 813.498 621.391 811.634 613.261L838.627 600.838C843.701 616.08 842.743 632.686 835.951 647.244C829.16 661.801 817.05 673.204 802.11 679.109C787.171 685.014 770.537 684.972 755.627 678.992C740.718 673.012 728.665 661.548 721.947 646.956C715.229 632.365 714.355 615.754 719.505 600.538C724.655 585.322 735.439 572.656 749.638 565.145C763.838 557.633 780.376 555.846 795.852 560.151C811.329 564.456 824.568 574.525 832.85 588.29L805.846 600.718H805.857ZM761.016 360.995V305.932C761.015 305.022 761.193 304.121 761.54 303.28C761.887 302.439 762.397 301.675 763.04 301.031C763.683 300.387 764.446 299.876 765.287 299.528C766.127 299.179 767.028 299 767.938 299H1102.14C1103.97 299 1105.73 299.729 1107.03 301.027C1108.33 302.325 1109.06 304.086 1109.06 305.921V764.437C1109.06 766.273 1108.33 768.033 1107.03 769.331C1105.73 770.629 1103.97 771.358 1102.14 771.358H1067.23V806.267C1067.23 808.102 1066.5 809.863 1065.2 811.161C1063.9 812.459 1062.14 813.188 1060.31 813.188H726.108C724.273 813.188 722.512 812.459 721.214 811.161C719.916 809.863 719.187 808.102 719.187 806.267V730.346L704.627 749.201C706.36 752.169 707.164 755.589 706.934 759.019C706.704 762.449 705.451 765.731 703.337 768.441L671.648 809.345C667.599 814.561 661.649 817.96 655.099 818.798C648.55 819.636 641.935 817.845 636.704 813.817L627.161 806.407C622.061 802.237 618.816 796.219 618.134 789.666C617.452 783.114 619.389 776.557 623.521 771.426L654.841 730.933C656.93 728.195 659.794 726.148 663.061 725.059C666.328 723.971 669.848 723.89 673.161 724.828L696.494 694.668C685.783 682.733 677.795 668.612 673.085 653.283C668.374 637.954 667.053 621.784 669.214 605.893C671.375 590.003 676.965 574.773 685.598 561.258C694.23 547.743 705.699 536.268 719.208 527.626V405.601C719.208 402.357 721.199 400.833 723.217 398.841L761.032 361.021L761.016 360.995ZM1067.23 757.5V347.761C1067.23 345.925 1066.5 344.165 1065.2 342.867C1063.9 341.569 1062.14 340.84 1060.31 340.84H784.058C783.148 340.837 782.247 341.015 781.407 341.362C780.566 341.709 779.802 342.219 779.159 342.863L774.859 347.163V312.843H1095.22V757.516L1067.23 757.5ZM742.816 398.784H777.137V364.464L742.816 398.784Z"/>
</mask>
<path fill-rule="evenodd" clip-rule="evenodd" d="M710.919 698.532L680.644 737.672C679.526 739.121 677.879 740.066 676.064 740.3C674.249 740.534 672.416 740.038 670.967 738.92C670.601 738.598 670.173 738.353 669.71 738.2C669.247 738.047 668.757 737.99 668.271 738.032C667.785 738.074 667.313 738.214 666.882 738.443C666.452 738.673 666.072 738.987 665.767 739.368L634.093 780.287C632.295 782.622 631.495 785.574 631.867 788.497C632.239 791.42 633.754 794.077 636.08 795.887L645.159 802.886C647.493 804.685 650.445 805.486 653.368 805.115C656.291 804.743 658.948 803.23 660.759 800.905L692.407 759.986C692.975 759.247 693.23 758.314 693.118 757.389C693.007 756.463 692.536 755.618 691.809 755.035C690.995 754.479 690.31 753.754 689.801 752.909C689.292 752.065 688.971 751.121 688.859 750.141C688.747 749.162 688.847 748.17 689.152 747.232C689.458 746.295 689.961 745.434 690.628 744.708L720.331 706.306C720.829 705.536 721.475 704.874 722.232 704.358C722.989 703.842 723.842 703.482 724.739 703.299C725.637 703.116 726.563 703.115 727.461 703.295C728.36 703.474 729.213 703.831 729.972 704.345C747.234 714.417 767.191 718.899 787.102 717.173C807.014 715.447 825.902 707.599 841.174 694.707C856.446 681.815 867.351 664.511 872.394 645.172C877.436 625.832 876.367 605.406 869.334 586.699L851.217 595.019C854.836 605.189 856.273 616.008 855.435 626.77C854.597 637.533 851.502 647.998 846.352 657.486C841.201 666.973 834.111 675.269 825.542 681.835C816.973 688.401 807.118 693.089 796.617 695.594C786.117 698.099 775.207 698.365 764.597 696.375C753.987 694.384 743.914 690.182 735.036 684.042C726.157 677.901 718.671 669.96 713.064 660.735C707.458 651.51 703.856 641.208 702.495 630.499C694.055 564.521 770.668 517.325 825.794 559.965C833.762 566.11 840.442 573.764 845.45 582.492L863.572 574.172C856.893 562.019 847.68 551.444 836.558 543.163C825.435 534.881 812.663 529.086 799.106 526.171C785.549 523.256 771.524 523.288 757.98 526.265C744.436 529.243 731.691 535.096 720.606 543.428C709.522 551.761 700.358 562.378 693.734 574.561C687.111 586.744 683.183 600.208 682.216 614.041C681.25 627.875 683.268 641.754 688.133 654.74C692.998 667.725 700.597 679.514 710.414 689.307C711.627 690.507 712.352 692.115 712.448 693.819C712.544 695.523 712.005 697.202 710.935 698.532H710.919ZM863.868 732.79C862.944 732.815 862.024 732.655 861.162 732.318C860.301 731.982 859.515 731.477 858.852 730.832C858.189 730.187 857.662 729.415 857.303 728.563C856.943 727.711 856.757 726.796 856.757 725.871C856.757 724.946 856.943 724.03 857.303 723.178C857.662 722.326 858.189 721.555 858.852 720.91C859.515 720.265 860.301 719.76 861.162 719.423C862.024 719.087 862.944 718.927 863.868 718.952H1018.27C1020.07 719.002 1021.78 719.752 1023.04 721.044C1024.3 722.336 1025 724.068 1025 725.871C1025 727.674 1024.3 729.405 1023.04 730.697C1021.78 731.99 1020.07 732.74 1018.27 732.79H863.868ZM894.549 683.883C892.713 683.883 890.953 683.154 889.655 681.856C888.357 680.558 887.628 678.797 887.628 676.962C887.628 675.126 888.357 673.366 889.655 672.068C890.953 670.77 892.713 670.04 894.549 670.04H1018.27C1020.1 670.04 1021.86 670.77 1023.16 672.068C1024.46 673.366 1025.19 675.126 1025.19 676.962C1025.19 678.797 1024.46 680.558 1023.16 681.856C1021.86 683.154 1020.1 683.883 1018.27 683.883H894.549ZM911.813 634.971C910.889 634.996 909.968 634.836 909.107 634.5C908.245 634.164 907.46 633.658 906.797 633.013C906.134 632.368 905.607 631.597 905.247 630.745C904.887 629.893 904.702 628.977 904.702 628.052C904.702 627.128 904.887 626.212 905.247 625.36C905.607 624.508 906.134 623.737 906.797 623.092C907.46 622.447 908.245 621.941 909.107 621.605C909.968 621.269 910.889 621.108 911.813 621.134H1018.27C1020.07 621.183 1021.78 621.934 1023.04 623.226C1024.3 624.518 1025 626.25 1025 628.052C1025 629.855 1024.3 631.587 1023.04 632.879C1021.78 634.171 1020.07 634.922 1018.27 634.971H911.813ZM815.846 397.479H970.574C972.409 397.479 974.17 398.208 975.468 399.506C976.766 400.804 977.495 402.565 977.495 404.4V450.057C977.495 451.892 976.766 453.653 975.468 454.951C974.17 456.249 972.409 456.978 970.574 456.978H815.846C814.011 456.977 812.252 456.247 810.955 454.949C809.658 453.651 808.93 451.891 808.93 450.057V404.4C808.93 402.565 809.659 400.804 810.957 399.506C812.255 398.208 814.01 397.479 815.846 397.479ZM963.653 411.321H822.762V443.141H963.653V411.321ZM1022.89 529.691L1004.94 521.74C1003.38 521.054 1002.13 519.818 1001.43 518.268C1000.73 516.719 1000.62 514.964 1001.13 513.342L1006.74 494.621L956.352 517.808L948.962 542.472L972.503 552.898L1022.89 529.706V529.691ZM1016.09 511.563L1024.37 483.909C1024.76 482.616 1024.75 481.24 1024.37 479.949C1023.98 478.657 1023.22 477.508 1022.19 476.641C1021.15 475.775 1019.89 475.229 1018.55 475.072C1017.21 474.915 1015.86 475.152 1014.65 475.755L947.735 506.555C946.843 506.965 946.048 507.56 945.405 508.302C944.762 509.044 944.285 509.915 944.007 510.856L934.87 541.323L876.109 568.363C862.8 543.695 840.627 524.996 814.067 516.04C787.507 507.084 758.538 508.54 733.009 520.112V412.627H784.032C785.867 412.627 787.628 411.897 788.926 410.599C790.224 409.301 790.953 407.541 790.953 405.705V354.682H1053.39V799.345H733.009V721.485C753.006 730.56 775.253 733.477 796.913 729.862C818.574 726.248 838.669 716.266 854.636 701.19C870.603 686.113 881.72 666.625 886.571 645.207C891.421 623.789 889.785 601.412 881.871 580.927L940.632 553.886L969.752 566.788C970.687 567.201 971.702 567.402 972.723 567.375C973.745 567.348 974.748 567.094 975.66 566.632L1042.57 535.842C1043.77 535.283 1044.79 534.388 1045.5 533.266C1046.21 532.143 1046.58 530.839 1046.57 529.511C1046.56 528.182 1046.16 526.886 1045.43 525.776C1044.7 524.666 1043.67 523.79 1042.45 523.253L1016.08 511.568L1016.09 511.563ZM781.65 627.062L798.582 619.262C798.939 623.914 797.65 628.543 794.939 632.34C792.228 636.138 788.268 638.861 783.752 640.033C779.236 641.206 774.452 640.753 770.236 638.754C766.02 636.755 762.642 633.338 760.691 629.099C758.741 624.861 758.343 620.072 759.567 615.57C760.791 611.067 763.559 607.139 767.387 604.471C771.215 601.804 775.859 600.568 780.506 600.979C785.154 601.39 789.509 603.422 792.81 606.719L775.868 614.519C775.044 614.899 774.304 615.438 773.688 616.104C773.073 616.77 772.594 617.551 772.281 618.402C771.967 619.253 771.824 620.158 771.86 621.064C771.896 621.97 772.11 622.861 772.49 623.684C772.87 624.508 773.409 625.249 774.075 625.864C774.741 626.479 775.522 626.958 776.373 627.271C777.224 627.585 778.129 627.728 779.035 627.692C779.942 627.656 780.827 627.442 781.65 627.062ZM805.857 600.718C800.889 594.017 793.614 589.395 785.438 587.745C777.261 586.096 768.763 587.536 761.586 591.787C754.409 596.038 749.063 602.799 746.58 610.762C744.098 618.725 744.655 627.326 748.145 634.903C751.635 642.479 757.809 648.493 765.475 651.782C773.14 655.071 781.753 655.402 789.648 652.711C797.544 650.019 804.161 644.497 808.222 637.211C812.283 629.924 813.498 621.391 811.634 613.261L838.627 600.838C843.701 616.08 842.743 632.686 835.951 647.244C829.16 661.801 817.05 673.204 802.11 679.109C787.171 685.014 770.537 684.972 755.627 678.992C740.718 673.012 728.665 661.548 721.947 646.956C715.229 632.365 714.355 615.754 719.505 600.538C724.655 585.322 735.439 572.656 749.638 565.145C763.838 557.633 780.376 555.846 795.852 560.151C811.329 564.456 824.568 574.525 832.85 588.29L805.846 600.718H805.857ZM761.016 360.995V305.932C761.015 305.022 761.193 304.121 761.54 303.28C761.887 302.439 762.397 301.675 763.04 301.031C763.683 300.387 764.446 299.876 765.287 299.528C766.127 299.179 767.028 299 767.938 299H1102.14C1103.97 299 1105.73 299.729 1107.03 301.027C1108.33 302.325 1109.06 304.086 1109.06 305.921V764.437C1109.06 766.273 1108.33 768.033 1107.03 769.331C1105.73 770.629 1103.97 771.358 1102.14 771.358H1067.23V806.267C1067.23 808.102 1066.5 809.863 1065.2 811.161C1063.9 812.459 1062.14 813.188 1060.31 813.188H726.108C724.273 813.188 722.512 812.459 721.214 811.161C719.916 809.863 719.187 808.102 719.187 806.267V730.346L704.627 749.201C706.36 752.169 707.164 755.589 706.934 759.019C706.704 762.449 705.451 765.731 703.337 768.441L671.648 809.345C667.599 814.561 661.649 817.96 655.099 818.798C648.55 819.636 641.935 817.845 636.704 813.817L627.161 806.407C622.061 802.237 618.816 796.219 618.134 789.666C617.452 783.114 619.389 776.557 623.521 771.426L654.841 730.933C656.93 728.195 659.794 726.148 663.061 725.059C666.328 723.971 669.848 723.89 673.161 724.828L696.494 694.668C685.783 682.733 677.795 668.612 673.085 653.283C668.374 637.954 667.053 621.784 669.214 605.893C671.375 590.003 676.965 574.773 685.598 561.258C694.23 547.743 705.699 536.268 719.208 527.626V405.601C719.208 402.357 721.199 400.833 723.217 398.841L761.032 361.021L761.016 360.995ZM1067.23 757.5V347.761C1067.23 345.925 1066.5 344.165 1065.2 342.867C1063.9 341.569 1062.14 340.84 1060.31 340.84H784.058C783.148 340.837 782.247 341.015 781.407 341.362C780.566 341.709 779.802 342.219 779.159 342.863L774.859 347.163V312.843H1095.22V757.516L1067.23 757.5ZM742.816 398.784H777.137V364.464L742.816 398.784Z" fill="#8D8D8E"/>
<path fill-rule="evenodd" clip-rule="evenodd" d="M710.919 698.532L680.644 737.672C679.526 739.121 677.879 740.066 676.064 740.3C674.249 740.534 672.416 740.038 670.967 738.92C670.601 738.598 670.173 738.353 669.71 738.2C669.247 738.047 668.757 737.99 668.271 738.032C667.785 738.074 667.313 738.214 666.882 738.443C666.452 738.673 666.072 738.987 665.767 739.368L634.093 780.287C632.295 782.622 631.495 785.574 631.867 788.497C632.239 791.42 633.754 794.077 636.08 795.887L645.159 802.886C647.493 804.685 650.445 805.486 653.368 805.115C656.291 804.743 658.948 803.23 660.759 800.905L692.407 759.986C692.975 759.247 693.23 758.314 693.118 757.389C693.007 756.463 692.536 755.618 691.809 755.035C690.995 754.479 690.31 753.754 689.801 752.909C689.292 752.065 688.971 751.121 688.859 750.141C688.747 749.162 688.847 748.17 689.152 747.232C689.458 746.295 689.961 745.434 690.628 744.708L720.331 706.306C720.829 705.536 721.475 704.874 722.232 704.358C722.989 703.842 723.842 703.482 724.739 703.299C725.637 703.116 726.563 703.115 727.461 703.295C728.36 703.474 729.213 703.831 729.972 704.345C747.234 714.417 767.191 718.899 787.102 717.173C807.014 715.447 825.902 707.599 841.174 694.707C856.446 681.815 867.351 664.511 872.394 645.172C877.436 625.832 876.367 605.406 869.334 586.699L851.217 595.019C854.836 605.189 856.273 616.008 855.435 626.77C854.597 637.533 851.502 647.998 846.352 657.486C841.201 666.973 834.111 675.269 825.542 681.835C816.973 688.401 807.118 693.089 796.617 695.594C786.117 698.099 775.207 698.365 764.597 696.375C753.987 694.384 743.914 690.182 735.036 684.042C726.157 677.901 718.671 669.96 713.064 660.735C707.458 651.51 703.856 641.208 702.495 630.499C694.055 564.521 770.668 517.325 825.794 559.965C833.762 566.11 840.442 573.764 845.45 582.492L863.572 574.172C856.893 562.019 847.68 551.444 836.558 543.163C825.435 534.881 812.663 529.086 799.106 526.171C785.549 523.256 771.524 523.288 757.98 526.265C744.436 529.243 731.691 535.096 720.606 543.428C709.522 551.761 700.358 562.378 693.734 574.561C687.111 586.744 683.183 600.208 682.216 614.041C681.25 627.875 683.268 641.754 688.133 654.74C692.998 667.725 700.597 679.514 710.414 689.307C711.627 690.507 712.352 692.115 712.448 693.819C712.544 695.523 712.005 697.202 710.935 698.532H710.919ZM863.868 732.79C862.944 732.815 862.024 732.655 861.162 732.318C860.301 731.982 859.515 731.477 858.852 730.832C858.189 730.187 857.662 729.415 857.303 728.563C856.943 727.711 856.757 726.796 856.757 725.871C856.757 724.946 856.943 724.03 857.303 723.178C857.662 722.326 858.189 721.555 858.852 720.91C859.515 720.265 860.301 719.76 861.162 719.423C862.024 719.087 862.944 718.927 863.868 718.952H1018.27C1020.07 719.002 1021.78 719.752 1023.04 721.044C1024.3 722.336 1025 724.068 1025 725.871C1025 727.674 1024.3 729.405 1023.04 730.697C1021.78 731.99 1020.07 732.74 1018.27 732.79H863.868ZM894.549 683.883C892.713 683.883 890.953 683.154 889.655 681.856C888.357 680.558 887.628 678.797 887.628 676.962C887.628 675.126 888.357 673.366 889.655 672.068C890.953 670.77 892.713 670.04 894.549 670.04H1018.27C1020.1 670.04 1021.86 670.77 1023.16 672.068C1024.46 673.366 1025.19 675.126 1025.19 676.962C1025.19 678.797 1024.46 680.558 1023.16 681.856C1021.86 683.154 1020.1 683.883 1018.27 683.883H894.549ZM911.813 634.971C910.889 634.996 909.968 634.836 909.107 634.5C908.245 634.164 907.46 633.658 906.797 633.013C906.134 632.368 905.607 631.597 905.247 630.745C904.887 629.893 904.702 628.977 904.702 628.052C904.702 627.128 904.887 626.212 905.247 625.36C905.607 624.508 906.134 623.737 906.797 623.092C907.46 622.447 908.245 621.941 909.107 621.605C909.968 621.269 910.889 621.108 911.813 621.134H1018.27C1020.07 621.183 1021.78 621.934 1023.04 623.226C1024.3 624.518 1025 626.25 1025 628.052C1025 629.855 1024.3 631.587 1023.04 632.879C1021.78 634.171 1020.07 634.922 1018.27 634.971H911.813ZM815.846 397.479H970.574C972.409 397.479 974.17 398.208 975.468 399.506C976.766 400.804 977.495 402.565 977.495 404.4V450.057C977.495 451.892 976.766 453.653 975.468 454.951C974.17 456.249 972.409 456.978 970.574 456.978H815.846C814.011 456.977 812.252 456.247 810.955 454.949C809.658 453.651 808.93 451.891 808.93 450.057V404.4C808.93 402.565 809.659 400.804 810.957 399.506C812.255 398.208 814.01 397.479 815.846 397.479ZM963.653 411.321H822.762V443.141H963.653V411.321ZM1022.89 529.691L1004.94 521.74C1003.38 521.054 1002.13 519.818 1001.43 518.268C1000.73 516.719 1000.62 514.964 1001.13 513.342L1006.74 494.621L956.352 517.808L948.962 542.472L972.503 552.898L1022.89 529.706V529.691ZM1016.09 511.563L1024.37 483.909C1024.76 482.616 1024.75 481.24 1024.37 479.949C1023.98 478.657 1023.22 477.508 1022.19 476.641C1021.15 475.775 1019.89 475.229 1018.55 475.072C1017.21 474.915 1015.86 475.152 1014.65 475.755L947.735 506.555C946.843 506.965 946.048 507.56 945.405 508.302C944.762 509.044 944.285 509.915 944.007 510.856L934.87 541.323L876.109 568.363C862.8 543.695 840.627 524.996 814.067 516.04C787.507 507.084 758.538 508.54 733.009 520.112V412.627H784.032C785.867 412.627 787.628 411.897 788.926 410.599C790.224 409.301 790.953 407.541 790.953 405.705V354.682H1053.39V799.345H733.009V721.485C753.006 730.56 775.253 733.477 796.913 729.862C818.574 726.248 838.669 716.266 854.636 701.19C870.603 686.113 881.72 666.625 886.571 645.207C891.421 623.789 889.785 601.412 881.871 580.927L940.632 553.886L969.752 566.788C970.687 567.201 971.702 567.402 972.723 567.375C973.745 567.348 974.748 567.094 975.66 566.632L1042.57 535.842C1043.77 535.283 1044.79 534.388 1045.5 533.266C1046.21 532.143 1046.58 530.839 1046.57 529.511C1046.56 528.182 1046.16 526.886 1045.43 525.776C1044.7 524.666 1043.67 523.79 1042.45 523.253L1016.08 511.568L1016.09 511.563ZM781.65 627.062L798.582 619.262C798.939 623.914 797.65 628.543 794.939 632.34C792.228 636.138 788.268 638.861 783.752 640.033C779.236 641.206 774.452 640.753 770.236 638.754C766.02 636.755 762.642 633.338 760.691 629.099C758.741 624.861 758.343 620.072 759.567 615.57C760.791 611.067 763.559 607.139 767.387 604.471C771.215 601.804 775.859 600.568 780.506 600.979C785.154 601.39 789.509 603.422 792.81 606.719L775.868 614.519C775.044 614.899 774.304 615.438 773.688 616.104C773.073 616.77 772.594 617.551 772.281 618.402C771.967 619.253 771.824 620.158 771.86 621.064C771.896 621.97 772.11 622.861 772.49 623.684C772.87 624.508 773.409 625.249 774.075 625.864C774.741 626.479 775.522 626.958 776.373 627.271C777.224 627.585 778.129 627.728 779.035 627.692C779.942 627.656 780.827 627.442 781.65 627.062ZM805.857 600.718C800.889 594.017 793.614 589.395 785.438 587.745C777.261 586.096 768.763 587.536 761.586 591.787C754.409 596.038 749.063 602.799 746.58 610.762C744.098 618.725 744.655 627.326 748.145 634.903C751.635 642.479 757.809 648.493 765.475 651.782C773.14 655.071 781.753 655.402 789.648 652.711C797.544 650.019 804.161 644.497 808.222 637.211C812.283 629.924 813.498 621.391 811.634 613.261L838.627 600.838C843.701 616.08 842.743 632.686 835.951 647.244C829.16 661.801 817.05 673.204 802.11 679.109C787.171 685.014 770.537 684.972 755.627 678.992C740.718 673.012 728.665 661.548 721.947 646.956C715.229 632.365 714.355 615.754 719.505 600.538C724.655 585.322 735.439 572.656 749.638 565.145C763.838 557.633 780.376 555.846 795.852 560.151C811.329 564.456 824.568 574.525 832.85 588.29L805.846 600.718H805.857ZM761.016 360.995V305.932C761.015 305.022 761.193 304.121 761.54 303.28C761.887 302.439 762.397 301.675 763.04 301.031C763.683 300.387 764.446 299.876 765.287 299.528C766.127 299.179 767.028 299 767.938 299H1102.14C1103.97 299 1105.73 299.729 1107.03 301.027C1108.33 302.325 1109.06 304.086 1109.06 305.921V764.437C1109.06 766.273 1108.33 768.033 1107.03 769.331C1105.73 770.629 1103.97 771.358 1102.14 771.358H1067.23V806.267C1067.23 808.102 1066.5 809.863 1065.2 811.161C1063.9 812.459 1062.14 813.188 1060.31 813.188H726.108C724.273 813.188 722.512 812.459 721.214 811.161C719.916 809.863 719.187 808.102 719.187 806.267V730.346L704.627 749.201C706.36 752.169 707.164 755.589 706.934 759.019C706.704 762.449 705.451 765.731 703.337 768.441L671.648 809.345C667.599 814.561 661.649 817.96 655.099 818.798C648.55 819.636 641.935 817.845 636.704 813.817L627.161 806.407C622.061 802.237 618.816 796.219 618.134 789.666C617.452 783.114 619.389 776.557 623.521 771.426L654.841 730.933C656.93 728.195 659.794 726.148 663.061 725.059C666.328 723.971 669.848 723.89 673.161 724.828L696.494 694.668C685.783 682.733 677.795 668.612 673.085 653.283C668.374 637.954 667.053 621.784 669.214 605.893C671.375 590.003 676.965 574.773 685.598 561.258C694.23 547.743 705.699 536.268 719.208 527.626V405.601C719.208 402.357 721.199 400.833 723.217 398.841L761.032 361.021L761.016 360.995ZM1067.23 757.5V347.761C1067.23 345.925 1066.5 344.165 1065.2 342.867C1063.9 341.569 1062.14 340.84 1060.31 340.84H784.058C783.148 340.837 782.247 341.015 781.407 341.362C780.566 341.709 779.802 342.219 779.159 342.863L774.859 347.163V312.843H1095.22V757.516L1067.23 757.5ZM742.816 398.784H777.137V364.464L742.816 398.784Z" stroke="#8D8D8E" stroke-width="2" mask="url(#path-3-outside-1_66_4128)"/>
</svg>
