<svg width="1728" height="1117" viewBox="0 0 1728 1117" fill="none" xmlns="http://www.w3.org/2000/svg">
<rect width="1728" height="1117" fill="#F5F8F9"/>
<rect x="0.5" y="0.5" width="1727" height="1116" stroke="black" stroke-opacity="0.25"/>
<mask id="path-3-outside-1_66_4135" maskUnits="userSpaceOnUse" x="629" y="317" width="470" height="484" fill="black">
<rect fill="white" x="629" y="317" width="470" height="484"/>
<path fill-rule="evenodd" clip-rule="evenodd" d="M879.366 338.31C872.991 331.915 863.408 329.998 855.054 333.435C846.721 336.873 841.284 345.018 841.284 354.039C841.284 363.059 846.721 371.205 855.054 374.642C863.408 378.08 872.991 376.163 879.366 369.768C888.032 361.08 888.032 346.997 879.366 338.31ZM879.366 385.121C869.199 390.412 857.095 390.412 846.95 385.121C831.305 391.683 821.118 406.954 821.076 423.911V426.89C848.575 434.786 877.741 434.786 905.238 426.89V423.911C905.176 406.953 894.99 391.683 879.366 385.121ZM863.366 319.001C876.928 319.001 889.261 326.813 895.052 339.062C900.844 351.312 899.052 365.811 890.448 376.269C907.573 386.04 918.156 404.206 918.197 423.914V431.642C918.176 434.413 916.364 436.871 913.718 437.725C881.074 448.1 846.035 448.1 813.391 437.725C810.537 436.996 808.537 434.434 808.537 431.475V423.913C808.579 404.205 819.162 386.039 836.286 376.269C827.682 365.811 825.891 351.311 831.682 339.062C837.473 326.812 849.804 319.001 863.366 319.001ZM664.813 590.676C664.522 593.968 661.751 596.488 658.439 596.488C655.126 596.488 652.376 593.967 652.064 590.676C651.356 548.844 663.147 507.762 685.938 472.702C708.208 438.453 739.893 411.349 777.183 394.683C778.724 393.975 780.474 393.912 782.037 394.516C783.62 395.121 784.87 396.329 785.557 397.871C786.974 401.079 785.557 404.849 782.349 406.308C746.913 422.203 716.911 448.14 696.059 480.908C675.206 513.675 664.414 551.822 665.018 590.674L664.813 590.676ZM965.864 757.71C968.905 755.898 972.822 756.877 974.676 759.897C976.467 762.918 975.488 766.814 972.488 768.626C939.552 788.501 901.824 799 863.367 799C824.91 799 787.183 788.5 754.245 768.626C751.246 766.814 750.266 762.918 752.058 759.897C753.912 756.877 757.829 755.898 760.87 757.71C791.806 776.355 827.241 786.23 863.368 786.23C899.494 786.23 934.926 776.355 965.864 757.71ZM944.531 406.304C941.344 404.846 939.906 401.075 941.344 397.867C942.01 396.325 943.281 395.117 944.864 394.513C946.427 393.909 948.177 393.971 949.718 394.68C987.467 411.575 1019.44 439.178 1041.65 474.074C1063.88 508.969 1075.34 549.634 1074.67 590.987C1074.84 592.779 1074.23 594.55 1073.03 595.883C1071.82 597.216 1070.09 597.966 1068.3 597.966C1066.48 597.966 1064.78 597.216 1063.57 595.883C1062.36 594.55 1061.75 592.779 1061.92 590.987C1062.55 552.155 1051.76 513.987 1030.9 481.199C1010.05 448.43 980.028 422.513 944.59 406.621L944.531 406.304ZM1056.53 645.714C1050.15 639.318 1040.57 637.423 1032.24 640.86C1023.9 644.318 1018.47 652.443 1018.47 661.464C1018.47 670.484 1023.9 678.609 1032.24 682.067C1040.57 685.504 1050.15 683.609 1056.53 677.234C1065.24 668.526 1065.24 654.402 1056.53 645.714ZM1057.11 692.317C1046.94 697.65 1034.82 697.65 1024.63 692.317C1009.01 698.879 998.842 714.191 998.821 731.148V734.086V734.065C1026.3 742.023 1055.46 742.023 1082.94 734.065V731.127V731.148C1082.92 714.19 1072.76 698.879 1057.11 692.317ZM1041.11 626.196C1054.69 626.155 1067.07 633.988 1072.86 646.258C1078.65 658.528 1076.86 673.049 1068.21 683.528C1085.34 693.256 1095.94 711.443 1096 731.151V738.88C1095.98 741.671 1094.17 744.13 1091.53 744.963C1058.88 755.337 1023.84 755.337 991.199 744.963C988.344 744.4 986.22 742.004 986.032 739.088V731.359C986.074 711.651 996.657 693.485 1013.76 683.736C1005.18 673.257 1003.39 658.757 1009.18 646.508C1014.97 634.237 1027.3 626.425 1040.86 626.404L1041.11 626.196ZM701.625 645.717C695.25 639.321 685.646 637.425 677.313 640.863C668.98 644.321 663.564 652.446 663.564 661.466C663.564 670.487 668.98 678.611 677.313 682.07C685.646 685.507 695.25 683.611 701.625 677.237C710.312 668.529 710.312 654.404 701.625 645.717ZM702.104 692.319C691.916 697.652 679.792 697.652 669.626 692.319C653.981 698.882 643.815 714.194 643.793 731.151V734.088V734.068C671.271 742.026 700.437 742.026 727.913 734.068V731.13V731.151C727.892 714.193 717.728 698.881 702.104 692.319ZM686.104 626.199C699.687 626.22 712.041 634.116 717.791 646.428C723.561 658.76 721.666 673.281 712.978 683.739C730.082 693.488 740.665 711.655 740.706 731.362V739.091C740.686 741.883 738.894 744.341 736.227 745.174C703.604 755.569 668.545 755.569 635.916 745.174C633.042 744.486 631.021 741.924 631 738.986V731.362C631.042 711.654 641.625 693.488 658.728 683.738C650.145 673.238 648.354 658.739 654.166 646.469C659.957 634.219 672.311 626.407 685.873 626.407L686.104 626.199ZM978.03 593.179L938.344 524.43C929.427 527.68 922.344 523.367 914.074 520.222L879.367 506.722C876.659 505.618 873.596 505.618 870.888 506.722L825.931 524.326C823.244 525.326 821.036 527.326 819.786 529.93L804.703 559.366C802.245 564.116 802.349 567.158 806.037 568.428C812.807 570.678 822.723 565.824 826.682 556.22C828.994 550.366 833.89 545.929 839.952 544.221L848.368 541.721H848.389C855.222 539.638 862.66 541.325 867.951 546.137C874.076 551.471 880.326 557.491 887.263 563.095C904.429 577.011 924.324 587.844 939.574 568.97C941.865 566.47 945.698 566.179 948.323 568.324C950.969 570.449 951.469 574.262 949.49 577.012C943.782 584.97 935.219 590.407 925.615 592.22L955.427 616.531C960.801 615.385 965.656 612.448 969.176 608.219C973.405 604.052 976.488 598.865 978.134 593.178L978.03 593.179ZM997.654 586.679L951.781 507.264L945.281 510.993L991.362 590.408L997.862 586.679H997.654ZM983.092 479.643L958.676 493.768L1012.7 587.471L1037.07 573.347L983.092 479.643ZM768.06 493.768L743.644 479.643L689.561 573.347L714.039 587.471L768.06 493.768ZM774.935 507.267L729.061 586.683L735.561 590.412L781.456 510.996L774.956 507.267H774.935ZM822.933 687.367H822.954C822.037 688.575 821.662 690.075 821.871 691.554C822.1 693.054 822.891 694.388 824.1 695.283C826.6 697.158 830.141 696.637 832.016 694.138L839.912 683.159C841.183 681.325 841.266 678.909 840.12 676.993C838.954 675.076 836.787 674.014 834.579 674.305C831.808 674.722 830.745 676.805 829.245 678.888L823.162 687.367L822.933 687.367ZM776.434 627.369C779.205 623.515 778.33 618.14 774.455 615.37C770.601 612.599 765.226 613.474 762.456 617.349C759.248 621.723 755.998 626.786 752.706 630.994C749.936 634.848 750.831 640.223 754.685 642.994C758.539 645.764 763.914 644.868 766.685 641.014L776.434 627.369ZM814.516 647.639C816.579 644.869 820.079 643.598 823.433 644.41C826.787 645.223 829.308 647.973 829.87 651.368C830.62 655.785 827.849 658.514 825.182 662.306L812.495 679.909C811.204 681.847 809.141 683.159 806.829 683.534C803.392 684.117 799.933 682.576 798.079 679.618C796.225 676.659 796.371 672.868 798.413 670.034L814.412 647.64L814.516 647.639ZM807.579 635.369L788.059 662.618C785.184 666.139 780.059 666.805 776.351 664.16C772.663 661.514 771.643 656.452 774.038 652.597L793.621 625.348C794.871 623.536 796.788 622.286 798.954 621.869C802.371 621.307 805.808 622.869 807.641 625.806C809.475 628.765 809.35 632.535 807.308 635.369H807.579ZM747.645 616.119L742.312 623.369C737.541 629.869 736.833 638.493 740.479 645.681C744.124 652.868 751.52 657.368 759.582 657.347C759.499 663.639 762.207 669.638 766.977 673.742C771.727 677.867 778.06 679.659 784.289 678.68C785.268 684.367 788.498 689.429 793.289 692.679C798.06 695.929 803.955 697.116 809.622 695.95C811.58 702.658 817.163 707.658 824.017 708.908C830.892 710.137 837.871 707.366 842.037 701.762L843.266 700.054L851.641 706.2C857.391 710.595 864.932 711.887 871.828 709.616C878.703 707.366 884.015 701.846 886.036 694.888L887.848 696.325C894.057 701.325 902.514 702.533 909.868 699.471C917.243 696.429 922.347 689.596 923.201 681.659C928.992 682.534 934.867 681.034 939.534 677.513C944.2 673.993 947.263 668.743 948.013 662.931C955.679 664.243 963.47 661.493 968.637 655.681C975.949 646.743 975.095 633.702 966.72 625.765C975.303 620.932 982.303 613.703 986.886 604.974C988.657 605.599 990.615 605.412 992.219 604.433L1004.22 597.495L1005.14 599.141L1005.11 599.162C1005.97 600.62 1007.34 601.703 1008.99 602.141C1010.61 602.578 1012.36 602.349 1013.82 601.495L1049.28 581.017C1052.3 579.288 1053.36 575.413 1051.63 572.392L990.948 467.793C990.093 466.335 988.719 465.252 987.073 464.814C985.448 464.377 983.698 464.606 982.24 465.46L946.824 485.938C945.366 486.771 944.304 488.146 943.845 489.771C943.408 491.396 943.637 493.125 944.491 494.584L945.449 496.292L933.45 503.167C931.971 504 930.908 505.396 930.471 507.021C930.033 508.646 930.262 510.396 931.096 511.854L931.471 512.542C927.013 511.812 922.7 510.417 918.68 508.396L883.681 495.001C878.015 492.73 871.661 492.73 865.973 495.001L831.37 508.438C825.433 509.875 819.267 510.146 813.246 509.25C806.184 508.271 799.351 506.167 792.976 503L781.289 496.271L782.247 494.563V494.584C783.102 493.126 783.331 491.396 782.893 489.772C782.435 488.147 781.372 486.772 779.914 485.938L744.499 465.46C743.041 464.606 741.291 464.377 739.666 464.814C738.02 465.252 736.645 466.335 735.791 467.793L675.313 572.542C673.584 575.583 674.646 579.437 677.667 581.187L713.124 601.665C714.603 602.519 716.332 602.749 717.978 602.29C719.603 601.853 720.999 600.79 721.832 599.311L722.749 597.666L733.79 604.019H733.769C736.727 607.603 740.081 610.831 743.789 613.603L747.623 616.102L747.645 616.119ZM745.728 598.308C748.562 601.453 751.937 604.078 755.687 606.037C760.686 601.745 767.394 599.995 773.852 601.308C780.289 602.641 785.789 606.849 788.706 612.744C795.393 608.12 804.143 607.703 811.247 611.682C818.351 615.64 822.58 623.307 822.143 631.41C829.434 631.598 836.121 635.473 839.892 641.702C843.663 647.931 843.975 655.66 840.767 662.201C846.246 663.889 850.642 668.035 852.663 673.43C854.683 678.805 854.079 684.825 851.058 689.721L859.475 695.971V695.95C863.224 699.138 868.849 698.659 872.037 694.909C875.224 691.159 874.745 685.534 870.995 682.347L859.787 673.118C858.495 672.055 857.662 670.513 857.516 668.847C857.35 667.159 857.85 665.493 858.912 664.201C861.141 661.493 865.141 661.097 867.849 663.305L896.119 686.513C899.953 689.305 905.328 688.617 908.327 684.93C911.327 681.242 910.931 675.847 907.432 672.638L862.891 636.327C860.454 634.015 860.204 630.203 862.329 627.619C864.475 625.015 868.266 624.515 870.995 626.453L920.806 667.306C924.618 670.431 930.243 669.889 933.389 666.077C936.451 662.243 935.889 656.66 932.118 653.493L888.536 617.661C887.244 616.578 886.411 615.036 886.265 613.349C886.099 611.682 886.619 609.995 887.682 608.703C889.932 605.995 893.932 605.62 896.64 607.849L946.388 648.702H946.409C950.513 651.681 956.263 650.869 959.367 646.827C961.533 643.056 960.908 638.286 957.825 635.202L896.974 585.662C890.766 581.933 884.87 577.683 879.37 572.975C872.225 567.226 866.309 561.622 859.642 555.643C857.621 553.747 854.746 553.101 852.121 553.934L843.747 556.434C841.288 556.934 839.268 558.663 838.414 561.017C829.455 582.933 802.998 587.308 793.394 574.517C789.207 568.163 789.207 559.913 793.394 553.559L808.331 524.227C808.811 523.268 809.352 522.414 809.873 521.56C804.082 520.623 798.415 519.06 792.978 516.873L745.728 598.308Z"/>
</mask>
<path fill-rule="evenodd" clip-rule="evenodd" d="M879.366 338.31C872.991 331.915 863.408 329.998 855.054 333.435C846.721 336.873 841.284 345.018 841.284 354.039C841.284 363.059 846.721 371.205 855.054 374.642C863.408 378.08 872.991 376.163 879.366 369.768C888.032 361.08 888.032 346.997 879.366 338.31ZM879.366 385.121C869.199 390.412 857.095 390.412 846.95 385.121C831.305 391.683 821.118 406.954 821.076 423.911V426.89C848.575 434.786 877.741 434.786 905.238 426.89V423.911C905.176 406.953 894.99 391.683 879.366 385.121ZM863.366 319.001C876.928 319.001 889.261 326.813 895.052 339.062C900.844 351.312 899.052 365.811 890.448 376.269C907.573 386.04 918.156 404.206 918.197 423.914V431.642C918.176 434.413 916.364 436.871 913.718 437.725C881.074 448.1 846.035 448.1 813.391 437.725C810.537 436.996 808.537 434.434 808.537 431.475V423.913C808.579 404.205 819.162 386.039 836.286 376.269C827.682 365.811 825.891 351.311 831.682 339.062C837.473 326.812 849.804 319.001 863.366 319.001ZM664.813 590.676C664.522 593.968 661.751 596.488 658.439 596.488C655.126 596.488 652.376 593.967 652.064 590.676C651.356 548.844 663.147 507.762 685.938 472.702C708.208 438.453 739.893 411.349 777.183 394.683C778.724 393.975 780.474 393.912 782.037 394.516C783.62 395.121 784.87 396.329 785.557 397.871C786.974 401.079 785.557 404.849 782.349 406.308C746.913 422.203 716.911 448.14 696.059 480.908C675.206 513.675 664.414 551.822 665.018 590.674L664.813 590.676ZM965.864 757.71C968.905 755.898 972.822 756.877 974.676 759.897C976.467 762.918 975.488 766.814 972.488 768.626C939.552 788.501 901.824 799 863.367 799C824.91 799 787.183 788.5 754.245 768.626C751.246 766.814 750.266 762.918 752.058 759.897C753.912 756.877 757.829 755.898 760.87 757.71C791.806 776.355 827.241 786.23 863.368 786.23C899.494 786.23 934.926 776.355 965.864 757.71ZM944.531 406.304C941.344 404.846 939.906 401.075 941.344 397.867C942.01 396.325 943.281 395.117 944.864 394.513C946.427 393.909 948.177 393.971 949.718 394.68C987.467 411.575 1019.44 439.178 1041.65 474.074C1063.88 508.969 1075.34 549.634 1074.67 590.987C1074.84 592.779 1074.23 594.55 1073.03 595.883C1071.82 597.216 1070.09 597.966 1068.3 597.966C1066.48 597.966 1064.78 597.216 1063.57 595.883C1062.36 594.55 1061.75 592.779 1061.92 590.987C1062.55 552.155 1051.76 513.987 1030.9 481.199C1010.05 448.43 980.028 422.513 944.59 406.621L944.531 406.304ZM1056.53 645.714C1050.15 639.318 1040.57 637.423 1032.24 640.86C1023.9 644.318 1018.47 652.443 1018.47 661.464C1018.47 670.484 1023.9 678.609 1032.24 682.067C1040.57 685.504 1050.15 683.609 1056.53 677.234C1065.24 668.526 1065.24 654.402 1056.53 645.714ZM1057.11 692.317C1046.94 697.65 1034.82 697.65 1024.63 692.317C1009.01 698.879 998.842 714.191 998.821 731.148V734.086V734.065C1026.3 742.023 1055.46 742.023 1082.94 734.065V731.127V731.148C1082.92 714.19 1072.76 698.879 1057.11 692.317ZM1041.11 626.196C1054.69 626.155 1067.07 633.988 1072.86 646.258C1078.65 658.528 1076.86 673.049 1068.21 683.528C1085.34 693.256 1095.94 711.443 1096 731.151V738.88C1095.98 741.671 1094.17 744.13 1091.53 744.963C1058.88 755.337 1023.84 755.337 991.199 744.963C988.344 744.4 986.22 742.004 986.032 739.088V731.359C986.074 711.651 996.657 693.485 1013.76 683.736C1005.18 673.257 1003.39 658.757 1009.18 646.508C1014.97 634.237 1027.3 626.425 1040.86 626.404L1041.11 626.196ZM701.625 645.717C695.25 639.321 685.646 637.425 677.313 640.863C668.98 644.321 663.564 652.446 663.564 661.466C663.564 670.487 668.98 678.611 677.313 682.07C685.646 685.507 695.25 683.611 701.625 677.237C710.312 668.529 710.312 654.404 701.625 645.717ZM702.104 692.319C691.916 697.652 679.792 697.652 669.626 692.319C653.981 698.882 643.815 714.194 643.793 731.151V734.088V734.068C671.271 742.026 700.437 742.026 727.913 734.068V731.13V731.151C727.892 714.193 717.728 698.881 702.104 692.319ZM686.104 626.199C699.687 626.22 712.041 634.116 717.791 646.428C723.561 658.76 721.666 673.281 712.978 683.739C730.082 693.488 740.665 711.655 740.706 731.362V739.091C740.686 741.883 738.894 744.341 736.227 745.174C703.604 755.569 668.545 755.569 635.916 745.174C633.042 744.486 631.021 741.924 631 738.986V731.362C631.042 711.654 641.625 693.488 658.728 683.738C650.145 673.238 648.354 658.739 654.166 646.469C659.957 634.219 672.311 626.407 685.873 626.407L686.104 626.199ZM978.03 593.179L938.344 524.43C929.427 527.68 922.344 523.367 914.074 520.222L879.367 506.722C876.659 505.618 873.596 505.618 870.888 506.722L825.931 524.326C823.244 525.326 821.036 527.326 819.786 529.93L804.703 559.366C802.245 564.116 802.349 567.158 806.037 568.428C812.807 570.678 822.723 565.824 826.682 556.22C828.994 550.366 833.89 545.929 839.952 544.221L848.368 541.721H848.389C855.222 539.638 862.66 541.325 867.951 546.137C874.076 551.471 880.326 557.491 887.263 563.095C904.429 577.011 924.324 587.844 939.574 568.97C941.865 566.47 945.698 566.179 948.323 568.324C950.969 570.449 951.469 574.262 949.49 577.012C943.782 584.97 935.219 590.407 925.615 592.22L955.427 616.531C960.801 615.385 965.656 612.448 969.176 608.219C973.405 604.052 976.488 598.865 978.134 593.178L978.03 593.179ZM997.654 586.679L951.781 507.264L945.281 510.993L991.362 590.408L997.862 586.679H997.654ZM983.092 479.643L958.676 493.768L1012.7 587.471L1037.07 573.347L983.092 479.643ZM768.06 493.768L743.644 479.643L689.561 573.347L714.039 587.471L768.06 493.768ZM774.935 507.267L729.061 586.683L735.561 590.412L781.456 510.996L774.956 507.267H774.935ZM822.933 687.367H822.954C822.037 688.575 821.662 690.075 821.871 691.554C822.1 693.054 822.891 694.388 824.1 695.283C826.6 697.158 830.141 696.637 832.016 694.138L839.912 683.159C841.183 681.325 841.266 678.909 840.12 676.993C838.954 675.076 836.787 674.014 834.579 674.305C831.808 674.722 830.745 676.805 829.245 678.888L823.162 687.367L822.933 687.367ZM776.434 627.369C779.205 623.515 778.33 618.14 774.455 615.37C770.601 612.599 765.226 613.474 762.456 617.349C759.248 621.723 755.998 626.786 752.706 630.994C749.936 634.848 750.831 640.223 754.685 642.994C758.539 645.764 763.914 644.868 766.685 641.014L776.434 627.369ZM814.516 647.639C816.579 644.869 820.079 643.598 823.433 644.41C826.787 645.223 829.308 647.973 829.87 651.368C830.62 655.785 827.849 658.514 825.182 662.306L812.495 679.909C811.204 681.847 809.141 683.159 806.829 683.534C803.392 684.117 799.933 682.576 798.079 679.618C796.225 676.659 796.371 672.868 798.413 670.034L814.412 647.64L814.516 647.639ZM807.579 635.369L788.059 662.618C785.184 666.139 780.059 666.805 776.351 664.16C772.663 661.514 771.643 656.452 774.038 652.597L793.621 625.348C794.871 623.536 796.788 622.286 798.954 621.869C802.371 621.307 805.808 622.869 807.641 625.806C809.475 628.765 809.35 632.535 807.308 635.369H807.579ZM747.645 616.119L742.312 623.369C737.541 629.869 736.833 638.493 740.479 645.681C744.124 652.868 751.52 657.368 759.582 657.347C759.499 663.639 762.207 669.638 766.977 673.742C771.727 677.867 778.06 679.659 784.289 678.68C785.268 684.367 788.498 689.429 793.289 692.679C798.06 695.929 803.955 697.116 809.622 695.95C811.58 702.658 817.163 707.658 824.017 708.908C830.892 710.137 837.871 707.366 842.037 701.762L843.266 700.054L851.641 706.2C857.391 710.595 864.932 711.887 871.828 709.616C878.703 707.366 884.015 701.846 886.036 694.888L887.848 696.325C894.057 701.325 902.514 702.533 909.868 699.471C917.243 696.429 922.347 689.596 923.201 681.659C928.992 682.534 934.867 681.034 939.534 677.513C944.2 673.993 947.263 668.743 948.013 662.931C955.679 664.243 963.47 661.493 968.637 655.681C975.949 646.743 975.095 633.702 966.72 625.765C975.303 620.932 982.303 613.703 986.886 604.974C988.657 605.599 990.615 605.412 992.219 604.433L1004.22 597.495L1005.14 599.141L1005.11 599.162C1005.97 600.62 1007.34 601.703 1008.99 602.141C1010.61 602.578 1012.36 602.349 1013.82 601.495L1049.28 581.017C1052.3 579.288 1053.36 575.413 1051.63 572.392L990.948 467.793C990.093 466.335 988.719 465.252 987.073 464.814C985.448 464.377 983.698 464.606 982.24 465.46L946.824 485.938C945.366 486.771 944.304 488.146 943.845 489.771C943.408 491.396 943.637 493.125 944.491 494.584L945.449 496.292L933.45 503.167C931.971 504 930.908 505.396 930.471 507.021C930.033 508.646 930.262 510.396 931.096 511.854L931.471 512.542C927.013 511.812 922.7 510.417 918.68 508.396L883.681 495.001C878.015 492.73 871.661 492.73 865.973 495.001L831.37 508.438C825.433 509.875 819.267 510.146 813.246 509.25C806.184 508.271 799.351 506.167 792.976 503L781.289 496.271L782.247 494.563V494.584C783.102 493.126 783.331 491.396 782.893 489.772C782.435 488.147 781.372 486.772 779.914 485.938L744.499 465.46C743.041 464.606 741.291 464.377 739.666 464.814C738.02 465.252 736.645 466.335 735.791 467.793L675.313 572.542C673.584 575.583 674.646 579.437 677.667 581.187L713.124 601.665C714.603 602.519 716.332 602.749 717.978 602.29C719.603 601.853 720.999 600.79 721.832 599.311L722.749 597.666L733.79 604.019H733.769C736.727 607.603 740.081 610.831 743.789 613.603L747.623 616.102L747.645 616.119ZM745.728 598.308C748.562 601.453 751.937 604.078 755.687 606.037C760.686 601.745 767.394 599.995 773.852 601.308C780.289 602.641 785.789 606.849 788.706 612.744C795.393 608.12 804.143 607.703 811.247 611.682C818.351 615.64 822.58 623.307 822.143 631.41C829.434 631.598 836.121 635.473 839.892 641.702C843.663 647.931 843.975 655.66 840.767 662.201C846.246 663.889 850.642 668.035 852.663 673.43C854.683 678.805 854.079 684.825 851.058 689.721L859.475 695.971V695.95C863.224 699.138 868.849 698.659 872.037 694.909C875.224 691.159 874.745 685.534 870.995 682.347L859.787 673.118C858.495 672.055 857.662 670.513 857.516 668.847C857.35 667.159 857.85 665.493 858.912 664.201C861.141 661.493 865.141 661.097 867.849 663.305L896.119 686.513C899.953 689.305 905.328 688.617 908.327 684.93C911.327 681.242 910.931 675.847 907.432 672.638L862.891 636.327C860.454 634.015 860.204 630.203 862.329 627.619C864.475 625.015 868.266 624.515 870.995 626.453L920.806 667.306C924.618 670.431 930.243 669.889 933.389 666.077C936.451 662.243 935.889 656.66 932.118 653.493L888.536 617.661C887.244 616.578 886.411 615.036 886.265 613.349C886.099 611.682 886.619 609.995 887.682 608.703C889.932 605.995 893.932 605.62 896.64 607.849L946.388 648.702H946.409C950.513 651.681 956.263 650.869 959.367 646.827C961.533 643.056 960.908 638.286 957.825 635.202L896.974 585.662C890.766 581.933 884.87 577.683 879.37 572.975C872.225 567.226 866.309 561.622 859.642 555.643C857.621 553.747 854.746 553.101 852.121 553.934L843.747 556.434C841.288 556.934 839.268 558.663 838.414 561.017C829.455 582.933 802.998 587.308 793.394 574.517C789.207 568.163 789.207 559.913 793.394 553.559L808.331 524.227C808.811 523.268 809.352 522.414 809.873 521.56C804.082 520.623 798.415 519.06 792.978 516.873L745.728 598.308Z" fill="#8D8D8E"/>
<path fill-rule="evenodd" clip-rule="evenodd" d="M879.366 338.31C872.991 331.915 863.408 329.998 855.054 333.435C846.721 336.873 841.284 345.018 841.284 354.039C841.284 363.059 846.721 371.205 855.054 374.642C863.408 378.08 872.991 376.163 879.366 369.768C888.032 361.08 888.032 346.997 879.366 338.31ZM879.366 385.121C869.199 390.412 857.095 390.412 846.95 385.121C831.305 391.683 821.118 406.954 821.076 423.911V426.89C848.575 434.786 877.741 434.786 905.238 426.89V423.911C905.176 406.953 894.99 391.683 879.366 385.121ZM863.366 319.001C876.928 319.001 889.261 326.813 895.052 339.062C900.844 351.312 899.052 365.811 890.448 376.269C907.573 386.04 918.156 404.206 918.197 423.914V431.642C918.176 434.413 916.364 436.871 913.718 437.725C881.074 448.1 846.035 448.1 813.391 437.725C810.537 436.996 808.537 434.434 808.537 431.475V423.913C808.579 404.205 819.162 386.039 836.286 376.269C827.682 365.811 825.891 351.311 831.682 339.062C837.473 326.812 849.804 319.001 863.366 319.001ZM664.813 590.676C664.522 593.968 661.751 596.488 658.439 596.488C655.126 596.488 652.376 593.967 652.064 590.676C651.356 548.844 663.147 507.762 685.938 472.702C708.208 438.453 739.893 411.349 777.183 394.683C778.724 393.975 780.474 393.912 782.037 394.516C783.62 395.121 784.87 396.329 785.557 397.871C786.974 401.079 785.557 404.849 782.349 406.308C746.913 422.203 716.911 448.14 696.059 480.908C675.206 513.675 664.414 551.822 665.018 590.674L664.813 590.676ZM965.864 757.71C968.905 755.898 972.822 756.877 974.676 759.897C976.467 762.918 975.488 766.814 972.488 768.626C939.552 788.501 901.824 799 863.367 799C824.91 799 787.183 788.5 754.245 768.626C751.246 766.814 750.266 762.918 752.058 759.897C753.912 756.877 757.829 755.898 760.87 757.71C791.806 776.355 827.241 786.23 863.368 786.23C899.494 786.23 934.926 776.355 965.864 757.71ZM944.531 406.304C941.344 404.846 939.906 401.075 941.344 397.867C942.01 396.325 943.281 395.117 944.864 394.513C946.427 393.909 948.177 393.971 949.718 394.68C987.467 411.575 1019.44 439.178 1041.65 474.074C1063.88 508.969 1075.34 549.634 1074.67 590.987C1074.84 592.779 1074.23 594.55 1073.03 595.883C1071.82 597.216 1070.09 597.966 1068.3 597.966C1066.48 597.966 1064.78 597.216 1063.57 595.883C1062.36 594.55 1061.75 592.779 1061.92 590.987C1062.55 552.155 1051.76 513.987 1030.9 481.199C1010.05 448.43 980.028 422.513 944.59 406.621L944.531 406.304ZM1056.53 645.714C1050.15 639.318 1040.57 637.423 1032.24 640.86C1023.9 644.318 1018.47 652.443 1018.47 661.464C1018.47 670.484 1023.9 678.609 1032.24 682.067C1040.57 685.504 1050.15 683.609 1056.53 677.234C1065.24 668.526 1065.24 654.402 1056.53 645.714ZM1057.11 692.317C1046.94 697.65 1034.82 697.65 1024.63 692.317C1009.01 698.879 998.842 714.191 998.821 731.148V734.086V734.065C1026.3 742.023 1055.46 742.023 1082.94 734.065V731.127V731.148C1082.92 714.19 1072.76 698.879 1057.11 692.317ZM1041.11 626.196C1054.69 626.155 1067.07 633.988 1072.86 646.258C1078.65 658.528 1076.86 673.049 1068.21 683.528C1085.34 693.256 1095.94 711.443 1096 731.151V738.88C1095.98 741.671 1094.17 744.13 1091.53 744.963C1058.88 755.337 1023.84 755.337 991.199 744.963C988.344 744.4 986.22 742.004 986.032 739.088V731.359C986.074 711.651 996.657 693.485 1013.76 683.736C1005.18 673.257 1003.39 658.757 1009.18 646.508C1014.97 634.237 1027.3 626.425 1040.86 626.404L1041.11 626.196ZM701.625 645.717C695.25 639.321 685.646 637.425 677.313 640.863C668.98 644.321 663.564 652.446 663.564 661.466C663.564 670.487 668.98 678.611 677.313 682.07C685.646 685.507 695.25 683.611 701.625 677.237C710.312 668.529 710.312 654.404 701.625 645.717ZM702.104 692.319C691.916 697.652 679.792 697.652 669.626 692.319C653.981 698.882 643.815 714.194 643.793 731.151V734.088V734.068C671.271 742.026 700.437 742.026 727.913 734.068V731.13V731.151C727.892 714.193 717.728 698.881 702.104 692.319ZM686.104 626.199C699.687 626.22 712.041 634.116 717.791 646.428C723.561 658.76 721.666 673.281 712.978 683.739C730.082 693.488 740.665 711.655 740.706 731.362V739.091C740.686 741.883 738.894 744.341 736.227 745.174C703.604 755.569 668.545 755.569 635.916 745.174C633.042 744.486 631.021 741.924 631 738.986V731.362C631.042 711.654 641.625 693.488 658.728 683.738C650.145 673.238 648.354 658.739 654.166 646.469C659.957 634.219 672.311 626.407 685.873 626.407L686.104 626.199ZM978.03 593.179L938.344 524.43C929.427 527.68 922.344 523.367 914.074 520.222L879.367 506.722C876.659 505.618 873.596 505.618 870.888 506.722L825.931 524.326C823.244 525.326 821.036 527.326 819.786 529.93L804.703 559.366C802.245 564.116 802.349 567.158 806.037 568.428C812.807 570.678 822.723 565.824 826.682 556.22C828.994 550.366 833.89 545.929 839.952 544.221L848.368 541.721H848.389C855.222 539.638 862.66 541.325 867.951 546.137C874.076 551.471 880.326 557.491 887.263 563.095C904.429 577.011 924.324 587.844 939.574 568.97C941.865 566.47 945.698 566.179 948.323 568.324C950.969 570.449 951.469 574.262 949.49 577.012C943.782 584.97 935.219 590.407 925.615 592.22L955.427 616.531C960.801 615.385 965.656 612.448 969.176 608.219C973.405 604.052 976.488 598.865 978.134 593.178L978.03 593.179ZM997.654 586.679L951.781 507.264L945.281 510.993L991.362 590.408L997.862 586.679H997.654ZM983.092 479.643L958.676 493.768L1012.7 587.471L1037.07 573.347L983.092 479.643ZM768.06 493.768L743.644 479.643L689.561 573.347L714.039 587.471L768.06 493.768ZM774.935 507.267L729.061 586.683L735.561 590.412L781.456 510.996L774.956 507.267H774.935ZM822.933 687.367H822.954C822.037 688.575 821.662 690.075 821.871 691.554C822.1 693.054 822.891 694.388 824.1 695.283C826.6 697.158 830.141 696.637 832.016 694.138L839.912 683.159C841.183 681.325 841.266 678.909 840.12 676.993C838.954 675.076 836.787 674.014 834.579 674.305C831.808 674.722 830.745 676.805 829.245 678.888L823.162 687.367L822.933 687.367ZM776.434 627.369C779.205 623.515 778.33 618.14 774.455 615.37C770.601 612.599 765.226 613.474 762.456 617.349C759.248 621.723 755.998 626.786 752.706 630.994C749.936 634.848 750.831 640.223 754.685 642.994C758.539 645.764 763.914 644.868 766.685 641.014L776.434 627.369ZM814.516 647.639C816.579 644.869 820.079 643.598 823.433 644.41C826.787 645.223 829.308 647.973 829.87 651.368C830.62 655.785 827.849 658.514 825.182 662.306L812.495 679.909C811.204 681.847 809.141 683.159 806.829 683.534C803.392 684.117 799.933 682.576 798.079 679.618C796.225 676.659 796.371 672.868 798.413 670.034L814.412 647.64L814.516 647.639ZM807.579 635.369L788.059 662.618C785.184 666.139 780.059 666.805 776.351 664.16C772.663 661.514 771.643 656.452 774.038 652.597L793.621 625.348C794.871 623.536 796.788 622.286 798.954 621.869C802.371 621.307 805.808 622.869 807.641 625.806C809.475 628.765 809.35 632.535 807.308 635.369H807.579ZM747.645 616.119L742.312 623.369C737.541 629.869 736.833 638.493 740.479 645.681C744.124 652.868 751.52 657.368 759.582 657.347C759.499 663.639 762.207 669.638 766.977 673.742C771.727 677.867 778.06 679.659 784.289 678.68C785.268 684.367 788.498 689.429 793.289 692.679C798.06 695.929 803.955 697.116 809.622 695.95C811.58 702.658 817.163 707.658 824.017 708.908C830.892 710.137 837.871 707.366 842.037 701.762L843.266 700.054L851.641 706.2C857.391 710.595 864.932 711.887 871.828 709.616C878.703 707.366 884.015 701.846 886.036 694.888L887.848 696.325C894.057 701.325 902.514 702.533 909.868 699.471C917.243 696.429 922.347 689.596 923.201 681.659C928.992 682.534 934.867 681.034 939.534 677.513C944.2 673.993 947.263 668.743 948.013 662.931C955.679 664.243 963.47 661.493 968.637 655.681C975.949 646.743 975.095 633.702 966.72 625.765C975.303 620.932 982.303 613.703 986.886 604.974C988.657 605.599 990.615 605.412 992.219 604.433L1004.22 597.495L1005.14 599.141L1005.11 599.162C1005.97 600.62 1007.34 601.703 1008.99 602.141C1010.61 602.578 1012.36 602.349 1013.82 601.495L1049.28 581.017C1052.3 579.288 1053.36 575.413 1051.63 572.392L990.948 467.793C990.093 466.335 988.719 465.252 987.073 464.814C985.448 464.377 983.698 464.606 982.24 465.46L946.824 485.938C945.366 486.771 944.304 488.146 943.845 489.771C943.408 491.396 943.637 493.125 944.491 494.584L945.449 496.292L933.45 503.167C931.971 504 930.908 505.396 930.471 507.021C930.033 508.646 930.262 510.396 931.096 511.854L931.471 512.542C927.013 511.812 922.7 510.417 918.68 508.396L883.681 495.001C878.015 492.73 871.661 492.73 865.973 495.001L831.37 508.438C825.433 509.875 819.267 510.146 813.246 509.25C806.184 508.271 799.351 506.167 792.976 503L781.289 496.271L782.247 494.563V494.584C783.102 493.126 783.331 491.396 782.893 489.772C782.435 488.147 781.372 486.772 779.914 485.938L744.499 465.46C743.041 464.606 741.291 464.377 739.666 464.814C738.02 465.252 736.645 466.335 735.791 467.793L675.313 572.542C673.584 575.583 674.646 579.437 677.667 581.187L713.124 601.665C714.603 602.519 716.332 602.749 717.978 602.29C719.603 601.853 720.999 600.79 721.832 599.311L722.749 597.666L733.79 604.019H733.769C736.727 607.603 740.081 610.831 743.789 613.603L747.623 616.102L747.645 616.119ZM745.728 598.308C748.562 601.453 751.937 604.078 755.687 606.037C760.686 601.745 767.394 599.995 773.852 601.308C780.289 602.641 785.789 606.849 788.706 612.744C795.393 608.12 804.143 607.703 811.247 611.682C818.351 615.64 822.58 623.307 822.143 631.41C829.434 631.598 836.121 635.473 839.892 641.702C843.663 647.931 843.975 655.66 840.767 662.201C846.246 663.889 850.642 668.035 852.663 673.43C854.683 678.805 854.079 684.825 851.058 689.721L859.475 695.971V695.95C863.224 699.138 868.849 698.659 872.037 694.909C875.224 691.159 874.745 685.534 870.995 682.347L859.787 673.118C858.495 672.055 857.662 670.513 857.516 668.847C857.35 667.159 857.85 665.493 858.912 664.201C861.141 661.493 865.141 661.097 867.849 663.305L896.119 686.513C899.953 689.305 905.328 688.617 908.327 684.93C911.327 681.242 910.931 675.847 907.432 672.638L862.891 636.327C860.454 634.015 860.204 630.203 862.329 627.619C864.475 625.015 868.266 624.515 870.995 626.453L920.806 667.306C924.618 670.431 930.243 669.889 933.389 666.077C936.451 662.243 935.889 656.66 932.118 653.493L888.536 617.661C887.244 616.578 886.411 615.036 886.265 613.349C886.099 611.682 886.619 609.995 887.682 608.703C889.932 605.995 893.932 605.62 896.64 607.849L946.388 648.702H946.409C950.513 651.681 956.263 650.869 959.367 646.827C961.533 643.056 960.908 638.286 957.825 635.202L896.974 585.662C890.766 581.933 884.87 577.683 879.37 572.975C872.225 567.226 866.309 561.622 859.642 555.643C857.621 553.747 854.746 553.101 852.121 553.934L843.747 556.434C841.288 556.934 839.268 558.663 838.414 561.017C829.455 582.933 802.998 587.308 793.394 574.517C789.207 568.163 789.207 559.913 793.394 553.559L808.331 524.227C808.811 523.268 809.352 522.414 809.873 521.56C804.082 520.623 798.415 519.06 792.978 516.873L745.728 598.308Z" stroke="#8D8D8E" stroke-width="4" mask="url(#path-3-outside-1_66_4135)"/>
</svg>
