<svg width="1728" height="1117" viewBox="0 0 1728 1117" fill="none" xmlns="http://www.w3.org/2000/svg">
<rect width="1728" height="1117" fill="#F5F8F9"/>
<rect x="0.5" y="0.5" width="1727" height="1116" stroke="black" stroke-opacity="0.25"/>
<mask id="path-3-outside-1_66_4121" maskUnits="userSpaceOnUse" x="586" y="326" width="556" height="466" fill="black">
<rect fill="white" x="586" y="326" width="556" height="466"/>
<path d="M972.155 408.727L972.242 408.61L972.343 408.494L972.437 408.385L972.538 408.276L972.638 408.167L972.739 408.065L972.848 407.963L972.992 407.825L973.064 407.767L973.648 407.331L973.713 407.28L973.973 407.128L974.103 407.055L974.499 406.859L974.773 406.742L974.911 406.692L975.048 406.641L975.185 406.597L975.329 406.553L975.466 406.517L975.61 406.481L975.899 406.423C976.396 406.335 976.973 406.299 977.478 406.343L977.63 406.357L977.94 406.393L978.279 406.459C1024 413.894 1064.31 437.713 1093.06 471.729C1121.48 505.352 1138.64 548.919 1138.64 596.476C1138.64 649.636 1117.24 697.782 1082.68 732.612C1048.11 767.442 1000.34 789 947.581 789C894.826 789 847.048 767.442 812.484 732.612C777.92 697.782 756.526 649.636 756.526 596.476C756.526 547.72 774.53 503.179 804.189 469.258C834.195 434.929 876.195 411.452 923.569 405.463L923.728 405.449L923.879 405.441L924.024 405.434L924.175 405.427L924.759 405.441L924.904 405.456L925.055 405.47L925.344 405.514L925.488 405.543L925.632 405.572L925.776 405.601L925.913 405.638L925.986 405.652L926.058 405.681L926.195 405.725L926.267 405.747L926.404 405.797L926.476 405.819L926.548 405.848L926.685 405.907L926.815 405.965L926.952 406.023L927.082 406.096L927.212 406.161L927.342 406.234L927.464 406.306L927.529 406.343L927.594 406.386L927.717 406.466L927.832 406.553L927.955 406.641L928.012 406.684L928.07 406.728L928.186 406.822L928.243 406.866L928.301 406.917L928.359 406.968L928.467 407.069L928.575 407.171L928.683 407.28L928.791 407.389L928.892 407.506L928.986 407.622L929.087 407.738L929.181 407.862L929.267 407.985L929.361 408.116L929.448 408.247L929.527 408.378L929.606 408.509L929.679 408.639L929.751 408.77C931.525 411.823 933.66 414.309 935.932 416.155C939.654 419.171 944.025 420.719 948.497 420.879C953.106 421.047 957.946 419.76 962.461 417.158C965.967 415.13 969.292 412.288 972.155 408.727ZM780.949 718.635C784.317 718.635 787.058 721.397 787.058 724.791C787.058 728.186 784.317 730.948 780.949 730.948H678.202C674.833 730.948 672.092 728.186 672.092 724.791C672.092 721.397 674.833 718.635 678.202 718.635H780.949ZM737.167 650.211C740.535 650.211 743.276 652.973 743.276 656.367C743.276 659.761 740.535 662.523 737.167 662.523H634.419C631.051 662.523 628.31 659.761 628.31 656.367C628.31 652.973 631.051 650.211 634.419 650.211H737.167ZM733.597 582.68C736.965 582.68 739.706 585.442 739.706 588.837C739.706 592.231 736.965 594.993 733.597 594.993H595.109C591.741 594.993 589 592.231 589 588.837C589 585.442 591.741 582.68 595.109 582.68H733.597ZM746.111 512.461C749.479 512.461 752.22 515.223 752.22 518.617C752.22 522.011 749.479 524.773 746.111 524.773H625.49C622.122 524.773 619.381 522.011 619.381 518.617C619.381 515.223 622.122 512.461 625.49 512.461H746.111ZM780.949 444.036C784.317 444.036 787.058 446.798 787.058 450.193C787.058 453.587 784.317 456.349 780.949 456.349H678.202C674.833 456.349 672.092 453.587 672.092 450.193C672.092 446.798 674.833 444.036 678.202 444.036H780.949ZM917.467 341.313C914.928 346.873 914.943 352.535 917.518 358.262H980.796C983.371 352.535 983.386 346.873 980.847 341.313H917.467ZM908.422 367.224C901.476 355.406 901.491 343.74 908.466 332.271C908.653 331.907 908.891 331.566 909.151 331.246L909.23 331.159C909.461 330.89 909.713 330.635 909.98 330.41C911.033 329.531 912.389 329 913.861 329H984.453C985.925 329 987.266 329.538 988.326 330.41C988.601 330.635 988.86 330.89 989.084 331.159L989.163 331.246C989.423 331.566 989.654 331.907 989.848 332.271C996.823 343.74 996.838 355.406 989.892 367.224L989.596 367.726L989.517 367.857C988.406 369.499 986.559 370.575 984.453 370.575H913.861C911.755 370.575 909.908 369.492 908.805 367.857L908.718 367.733L908.422 367.224ZM944.09 401.466C944.674 402.127 945.251 402.708 945.814 403.203C947.249 404.453 948.584 405.1 949.774 405.122C951.022 405.129 952.5 404.496 954.152 403.246L954.448 403.036C955.097 402.519 955.768 401.916 956.446 401.226V389.044H944.09V401.466ZM966.782 408.036C965.144 409.897 963.478 411.496 961.826 412.79L961.495 413.059C957.628 416.002 953.633 417.441 949.593 417.376C945.403 417.289 941.5 415.653 937.851 412.477C936.365 411.176 934.901 409.599 933.48 407.753C932.484 406.655 931.871 405.194 931.871 403.595V383.048V382.888C931.871 379.493 934.612 376.731 937.981 376.731H938.139H962.396H962.555C965.923 376.731 968.664 379.493 968.664 382.888V383.048V403.595C968.664 405.34 967.943 406.917 966.782 408.036ZM921.297 418.19C878.525 424.535 840.636 446.166 813.349 477.384C785.594 509.132 768.745 550.823 768.745 596.476C768.745 646.235 788.768 691.299 821.125 723.905C853.482 756.51 898.202 776.687 947.581 776.687C996.96 776.687 1041.68 756.51 1074.04 723.905C1106.39 691.299 1126.42 646.235 1126.42 596.476C1126.42 551.892 1110.38 511.102 1083.81 479.666C1057.54 448.579 1020.92 426.578 979.354 419.077C976.05 422.66 972.372 425.604 968.52 427.828C962.057 431.557 954.981 433.381 948.064 433.134C941.01 432.879 934.151 430.452 928.301 425.72C925.748 423.649 923.389 421.134 921.297 418.19ZM977.875 577.353C975.415 579.657 971.557 579.519 969.27 577.04C966.984 574.562 967.121 570.673 969.58 568.369C973.619 564.582 978.308 559.996 983.595 554.668C988.968 549.253 994.342 543.7 999.694 538.024C1002.01 535.574 1005.88 535.472 1008.31 537.805C1010.74 540.139 1010.84 544.034 1008.52 546.484C1002.43 552.945 996.982 558.593 992.236 563.376C987.41 568.238 982.614 572.912 977.875 577.353ZM941.573 577.571C942.099 537.209 942.078 504.088 941.5 478.219C941.436 474.84 944.104 472.034 947.458 471.969C950.812 471.903 953.596 474.593 953.661 477.972C954.246 503.92 954.267 537.144 953.734 577.614C956.705 578.603 959.36 580.274 961.509 582.44C965.065 586.024 967.279 590.995 967.279 596.476C967.279 601.956 965.065 606.928 961.509 610.511C957.953 614.094 953.019 616.326 947.581 616.326C942.135 616.326 937.202 614.094 933.646 610.511C930.09 606.928 927.875 601.956 927.875 596.476C927.875 590.995 930.09 586.024 933.646 582.44C935.831 580.238 938.543 578.545 941.573 577.571ZM942.287 601.803C943.636 603.163 945.518 604.013 947.581 604.013C949.644 604.013 951.519 603.163 952.868 601.803C954.217 600.444 955.061 598.554 955.061 596.476C955.061 594.397 954.217 592.507 952.868 591.148C951.519 589.789 949.644 588.938 947.581 588.938C945.518 588.938 943.636 589.789 942.287 591.148C940.938 592.507 940.094 594.397 940.094 596.476C940.094 598.554 940.938 600.444 942.287 601.803ZM947.581 750.281C905.429 750.281 867.258 733.055 839.647 705.232C812.037 677.409 794.942 638.952 794.942 596.476C794.942 553.999 812.037 515.542 839.647 487.719C867.258 459.896 905.429 442.67 947.581 442.67C989.733 442.67 1027.9 459.896 1055.51 487.719C1083.12 515.542 1100.21 553.999 1100.21 596.476C1100.21 638.952 1083.12 677.409 1055.51 705.232C1027.9 733.055 989.733 750.281 947.581 750.281ZM848.288 696.525C873.692 722.124 908.805 737.969 947.581 737.969C986.35 737.969 1021.46 722.124 1046.87 696.525C1072.27 670.925 1087.99 635.543 1087.99 596.476C1087.99 557.408 1072.27 522.026 1046.87 496.427C1021.46 470.828 986.35 454.983 947.581 454.983C908.805 454.983 873.692 470.828 848.288 496.427C822.885 522.026 807.161 557.408 807.161 596.476C807.161 635.543 822.885 670.925 848.288 696.525Z"/>
</mask>
<path d="M972.155 408.727L972.242 408.61L972.343 408.494L972.437 408.385L972.538 408.276L972.638 408.167L972.739 408.065L972.848 407.963L972.992 407.825L973.064 407.767L973.648 407.331L973.713 407.28L973.973 407.128L974.103 407.055L974.499 406.859L974.773 406.742L974.911 406.692L975.048 406.641L975.185 406.597L975.329 406.553L975.466 406.517L975.61 406.481L975.899 406.423C976.396 406.335 976.973 406.299 977.478 406.343L977.63 406.357L977.94 406.393L978.279 406.459C1024 413.894 1064.31 437.713 1093.06 471.729C1121.48 505.352 1138.64 548.919 1138.64 596.476C1138.64 649.636 1117.24 697.782 1082.68 732.612C1048.11 767.442 1000.34 789 947.581 789C894.826 789 847.048 767.442 812.484 732.612C777.92 697.782 756.526 649.636 756.526 596.476C756.526 547.72 774.53 503.179 804.189 469.258C834.195 434.929 876.195 411.452 923.569 405.463L923.728 405.449L923.879 405.441L924.024 405.434L924.175 405.427L924.759 405.441L924.904 405.456L925.055 405.47L925.344 405.514L925.488 405.543L925.632 405.572L925.776 405.601L925.913 405.638L925.986 405.652L926.058 405.681L926.195 405.725L926.267 405.747L926.404 405.797L926.476 405.819L926.548 405.848L926.685 405.907L926.815 405.965L926.952 406.023L927.082 406.096L927.212 406.161L927.342 406.234L927.464 406.306L927.529 406.343L927.594 406.386L927.717 406.466L927.832 406.553L927.955 406.641L928.012 406.684L928.07 406.728L928.186 406.822L928.243 406.866L928.301 406.917L928.359 406.968L928.467 407.069L928.575 407.171L928.683 407.28L928.791 407.389L928.892 407.506L928.986 407.622L929.087 407.738L929.181 407.862L929.267 407.985L929.361 408.116L929.448 408.247L929.527 408.378L929.606 408.509L929.679 408.639L929.751 408.77C931.525 411.823 933.66 414.309 935.932 416.155C939.654 419.171 944.025 420.719 948.497 420.879C953.106 421.047 957.946 419.76 962.461 417.158C965.967 415.13 969.292 412.288 972.155 408.727ZM780.949 718.635C784.317 718.635 787.058 721.397 787.058 724.791C787.058 728.186 784.317 730.948 780.949 730.948H678.202C674.833 730.948 672.092 728.186 672.092 724.791C672.092 721.397 674.833 718.635 678.202 718.635H780.949ZM737.167 650.211C740.535 650.211 743.276 652.973 743.276 656.367C743.276 659.761 740.535 662.523 737.167 662.523H634.419C631.051 662.523 628.31 659.761 628.31 656.367C628.31 652.973 631.051 650.211 634.419 650.211H737.167ZM733.597 582.68C736.965 582.68 739.706 585.442 739.706 588.837C739.706 592.231 736.965 594.993 733.597 594.993H595.109C591.741 594.993 589 592.231 589 588.837C589 585.442 591.741 582.68 595.109 582.68H733.597ZM746.111 512.461C749.479 512.461 752.22 515.223 752.22 518.617C752.22 522.011 749.479 524.773 746.111 524.773H625.49C622.122 524.773 619.381 522.011 619.381 518.617C619.381 515.223 622.122 512.461 625.49 512.461H746.111ZM780.949 444.036C784.317 444.036 787.058 446.798 787.058 450.193C787.058 453.587 784.317 456.349 780.949 456.349H678.202C674.833 456.349 672.092 453.587 672.092 450.193C672.092 446.798 674.833 444.036 678.202 444.036H780.949ZM917.467 341.313C914.928 346.873 914.943 352.535 917.518 358.262H980.796C983.371 352.535 983.386 346.873 980.847 341.313H917.467ZM908.422 367.224C901.476 355.406 901.491 343.74 908.466 332.271C908.653 331.907 908.891 331.566 909.151 331.246L909.23 331.159C909.461 330.89 909.713 330.635 909.98 330.41C911.033 329.531 912.389 329 913.861 329H984.453C985.925 329 987.266 329.538 988.326 330.41C988.601 330.635 988.86 330.89 989.084 331.159L989.163 331.246C989.423 331.566 989.654 331.907 989.848 332.271C996.823 343.74 996.838 355.406 989.892 367.224L989.596 367.726L989.517 367.857C988.406 369.499 986.559 370.575 984.453 370.575H913.861C911.755 370.575 909.908 369.492 908.805 367.857L908.718 367.733L908.422 367.224ZM944.09 401.466C944.674 402.127 945.251 402.708 945.814 403.203C947.249 404.453 948.584 405.1 949.774 405.122C951.022 405.129 952.5 404.496 954.152 403.246L954.448 403.036C955.097 402.519 955.768 401.916 956.446 401.226V389.044H944.09V401.466ZM966.782 408.036C965.144 409.897 963.478 411.496 961.826 412.79L961.495 413.059C957.628 416.002 953.633 417.441 949.593 417.376C945.403 417.289 941.5 415.653 937.851 412.477C936.365 411.176 934.901 409.599 933.48 407.753C932.484 406.655 931.871 405.194 931.871 403.595V383.048V382.888C931.871 379.493 934.612 376.731 937.981 376.731H938.139H962.396H962.555C965.923 376.731 968.664 379.493 968.664 382.888V383.048V403.595C968.664 405.34 967.943 406.917 966.782 408.036ZM921.297 418.19C878.525 424.535 840.636 446.166 813.349 477.384C785.594 509.132 768.745 550.823 768.745 596.476C768.745 646.235 788.768 691.299 821.125 723.905C853.482 756.51 898.202 776.687 947.581 776.687C996.96 776.687 1041.68 756.51 1074.04 723.905C1106.39 691.299 1126.42 646.235 1126.42 596.476C1126.42 551.892 1110.38 511.102 1083.81 479.666C1057.54 448.579 1020.92 426.578 979.354 419.077C976.05 422.66 972.372 425.604 968.52 427.828C962.057 431.557 954.981 433.381 948.064 433.134C941.01 432.879 934.151 430.452 928.301 425.72C925.748 423.649 923.389 421.134 921.297 418.19ZM977.875 577.353C975.415 579.657 971.557 579.519 969.27 577.04C966.984 574.562 967.121 570.673 969.58 568.369C973.619 564.582 978.308 559.996 983.595 554.668C988.968 549.253 994.342 543.7 999.694 538.024C1002.01 535.574 1005.88 535.472 1008.31 537.805C1010.74 540.139 1010.84 544.034 1008.52 546.484C1002.43 552.945 996.982 558.593 992.236 563.376C987.41 568.238 982.614 572.912 977.875 577.353ZM941.573 577.571C942.099 537.209 942.078 504.088 941.5 478.219C941.436 474.84 944.104 472.034 947.458 471.969C950.812 471.903 953.596 474.593 953.661 477.972C954.246 503.92 954.267 537.144 953.734 577.614C956.705 578.603 959.36 580.274 961.509 582.44C965.065 586.024 967.279 590.995 967.279 596.476C967.279 601.956 965.065 606.928 961.509 610.511C957.953 614.094 953.019 616.326 947.581 616.326C942.135 616.326 937.202 614.094 933.646 610.511C930.09 606.928 927.875 601.956 927.875 596.476C927.875 590.995 930.09 586.024 933.646 582.44C935.831 580.238 938.543 578.545 941.573 577.571ZM942.287 601.803C943.636 603.163 945.518 604.013 947.581 604.013C949.644 604.013 951.519 603.163 952.868 601.803C954.217 600.444 955.061 598.554 955.061 596.476C955.061 594.397 954.217 592.507 952.868 591.148C951.519 589.789 949.644 588.938 947.581 588.938C945.518 588.938 943.636 589.789 942.287 591.148C940.938 592.507 940.094 594.397 940.094 596.476C940.094 598.554 940.938 600.444 942.287 601.803ZM947.581 750.281C905.429 750.281 867.258 733.055 839.647 705.232C812.037 677.409 794.942 638.952 794.942 596.476C794.942 553.999 812.037 515.542 839.647 487.719C867.258 459.896 905.429 442.67 947.581 442.67C989.733 442.67 1027.9 459.896 1055.51 487.719C1083.12 515.542 1100.21 553.999 1100.21 596.476C1100.21 638.952 1083.12 677.409 1055.51 705.232C1027.9 733.055 989.733 750.281 947.581 750.281ZM848.288 696.525C873.692 722.124 908.805 737.969 947.581 737.969C986.35 737.969 1021.46 722.124 1046.87 696.525C1072.27 670.925 1087.99 635.543 1087.99 596.476C1087.99 557.408 1072.27 522.026 1046.87 496.427C1021.46 470.828 986.35 454.983 947.581 454.983C908.805 454.983 873.692 470.828 848.288 496.427C822.885 522.026 807.161 557.408 807.161 596.476C807.161 635.543 822.885 670.925 848.288 696.525Z" fill="#8D8D8E"/>
<path d="M972.155 408.727L972.242 408.61L972.343 408.494L972.437 408.385L972.538 408.276L972.638 408.167L972.739 408.065L972.848 407.963L972.992 407.825L973.064 407.767L973.648 407.331L973.713 407.28L973.973 407.128L974.103 407.055L974.499 406.859L974.773 406.742L974.911 406.692L975.048 406.641L975.185 406.597L975.329 406.553L975.466 406.517L975.61 406.481L975.899 406.423C976.396 406.335 976.973 406.299 977.478 406.343L977.63 406.357L977.94 406.393L978.279 406.459C1024 413.894 1064.31 437.713 1093.06 471.729C1121.48 505.352 1138.64 548.919 1138.64 596.476C1138.64 649.636 1117.24 697.782 1082.68 732.612C1048.11 767.442 1000.34 789 947.581 789C894.826 789 847.048 767.442 812.484 732.612C777.92 697.782 756.526 649.636 756.526 596.476C756.526 547.72 774.53 503.179 804.189 469.258C834.195 434.929 876.195 411.452 923.569 405.463L923.728 405.449L923.879 405.441L924.024 405.434L924.175 405.427L924.759 405.441L924.904 405.456L925.055 405.47L925.344 405.514L925.488 405.543L925.632 405.572L925.776 405.601L925.913 405.638L925.986 405.652L926.058 405.681L926.195 405.725L926.267 405.747L926.404 405.797L926.476 405.819L926.548 405.848L926.685 405.907L926.815 405.965L926.952 406.023L927.082 406.096L927.212 406.161L927.342 406.234L927.464 406.306L927.529 406.343L927.594 406.386L927.717 406.466L927.832 406.553L927.955 406.641L928.012 406.684L928.07 406.728L928.186 406.822L928.243 406.866L928.301 406.917L928.359 406.968L928.467 407.069L928.575 407.171L928.683 407.28L928.791 407.389L928.892 407.506L928.986 407.622L929.087 407.738L929.181 407.862L929.267 407.985L929.361 408.116L929.448 408.247L929.527 408.378L929.606 408.509L929.679 408.639L929.751 408.77C931.525 411.823 933.66 414.309 935.932 416.155C939.654 419.171 944.025 420.719 948.497 420.879C953.106 421.047 957.946 419.76 962.461 417.158C965.967 415.13 969.292 412.288 972.155 408.727ZM780.949 718.635C784.317 718.635 787.058 721.397 787.058 724.791C787.058 728.186 784.317 730.948 780.949 730.948H678.202C674.833 730.948 672.092 728.186 672.092 724.791C672.092 721.397 674.833 718.635 678.202 718.635H780.949ZM737.167 650.211C740.535 650.211 743.276 652.973 743.276 656.367C743.276 659.761 740.535 662.523 737.167 662.523H634.419C631.051 662.523 628.31 659.761 628.31 656.367C628.31 652.973 631.051 650.211 634.419 650.211H737.167ZM733.597 582.68C736.965 582.68 739.706 585.442 739.706 588.837C739.706 592.231 736.965 594.993 733.597 594.993H595.109C591.741 594.993 589 592.231 589 588.837C589 585.442 591.741 582.68 595.109 582.68H733.597ZM746.111 512.461C749.479 512.461 752.22 515.223 752.22 518.617C752.22 522.011 749.479 524.773 746.111 524.773H625.49C622.122 524.773 619.381 522.011 619.381 518.617C619.381 515.223 622.122 512.461 625.49 512.461H746.111ZM780.949 444.036C784.317 444.036 787.058 446.798 787.058 450.193C787.058 453.587 784.317 456.349 780.949 456.349H678.202C674.833 456.349 672.092 453.587 672.092 450.193C672.092 446.798 674.833 444.036 678.202 444.036H780.949ZM917.467 341.313C914.928 346.873 914.943 352.535 917.518 358.262H980.796C983.371 352.535 983.386 346.873 980.847 341.313H917.467ZM908.422 367.224C901.476 355.406 901.491 343.74 908.466 332.271C908.653 331.907 908.891 331.566 909.151 331.246L909.23 331.159C909.461 330.89 909.713 330.635 909.98 330.41C911.033 329.531 912.389 329 913.861 329H984.453C985.925 329 987.266 329.538 988.326 330.41C988.601 330.635 988.86 330.89 989.084 331.159L989.163 331.246C989.423 331.566 989.654 331.907 989.848 332.271C996.823 343.74 996.838 355.406 989.892 367.224L989.596 367.726L989.517 367.857C988.406 369.499 986.559 370.575 984.453 370.575H913.861C911.755 370.575 909.908 369.492 908.805 367.857L908.718 367.733L908.422 367.224ZM944.09 401.466C944.674 402.127 945.251 402.708 945.814 403.203C947.249 404.453 948.584 405.1 949.774 405.122C951.022 405.129 952.5 404.496 954.152 403.246L954.448 403.036C955.097 402.519 955.768 401.916 956.446 401.226V389.044H944.09V401.466ZM966.782 408.036C965.144 409.897 963.478 411.496 961.826 412.79L961.495 413.059C957.628 416.002 953.633 417.441 949.593 417.376C945.403 417.289 941.5 415.653 937.851 412.477C936.365 411.176 934.901 409.599 933.48 407.753C932.484 406.655 931.871 405.194 931.871 403.595V383.048V382.888C931.871 379.493 934.612 376.731 937.981 376.731H938.139H962.396H962.555C965.923 376.731 968.664 379.493 968.664 382.888V383.048V403.595C968.664 405.34 967.943 406.917 966.782 408.036ZM921.297 418.19C878.525 424.535 840.636 446.166 813.349 477.384C785.594 509.132 768.745 550.823 768.745 596.476C768.745 646.235 788.768 691.299 821.125 723.905C853.482 756.51 898.202 776.687 947.581 776.687C996.96 776.687 1041.68 756.51 1074.04 723.905C1106.39 691.299 1126.42 646.235 1126.42 596.476C1126.42 551.892 1110.38 511.102 1083.81 479.666C1057.54 448.579 1020.92 426.578 979.354 419.077C976.05 422.66 972.372 425.604 968.52 427.828C962.057 431.557 954.981 433.381 948.064 433.134C941.01 432.879 934.151 430.452 928.301 425.72C925.748 423.649 923.389 421.134 921.297 418.19ZM977.875 577.353C975.415 579.657 971.557 579.519 969.27 577.04C966.984 574.562 967.121 570.673 969.58 568.369C973.619 564.582 978.308 559.996 983.595 554.668C988.968 549.253 994.342 543.7 999.694 538.024C1002.01 535.574 1005.88 535.472 1008.31 537.805C1010.74 540.139 1010.84 544.034 1008.52 546.484C1002.43 552.945 996.982 558.593 992.236 563.376C987.41 568.238 982.614 572.912 977.875 577.353ZM941.573 577.571C942.099 537.209 942.078 504.088 941.5 478.219C941.436 474.84 944.104 472.034 947.458 471.969C950.812 471.903 953.596 474.593 953.661 477.972C954.246 503.92 954.267 537.144 953.734 577.614C956.705 578.603 959.36 580.274 961.509 582.44C965.065 586.024 967.279 590.995 967.279 596.476C967.279 601.956 965.065 606.928 961.509 610.511C957.953 614.094 953.019 616.326 947.581 616.326C942.135 616.326 937.202 614.094 933.646 610.511C930.09 606.928 927.875 601.956 927.875 596.476C927.875 590.995 930.09 586.024 933.646 582.44C935.831 580.238 938.543 578.545 941.573 577.571ZM942.287 601.803C943.636 603.163 945.518 604.013 947.581 604.013C949.644 604.013 951.519 603.163 952.868 601.803C954.217 600.444 955.061 598.554 955.061 596.476C955.061 594.397 954.217 592.507 952.868 591.148C951.519 589.789 949.644 588.938 947.581 588.938C945.518 588.938 943.636 589.789 942.287 591.148C940.938 592.507 940.094 594.397 940.094 596.476C940.094 598.554 940.938 600.444 942.287 601.803ZM947.581 750.281C905.429 750.281 867.258 733.055 839.647 705.232C812.037 677.409 794.942 638.952 794.942 596.476C794.942 553.999 812.037 515.542 839.647 487.719C867.258 459.896 905.429 442.67 947.581 442.67C989.733 442.67 1027.9 459.896 1055.51 487.719C1083.12 515.542 1100.21 553.999 1100.21 596.476C1100.21 638.952 1083.12 677.409 1055.51 705.232C1027.9 733.055 989.733 750.281 947.581 750.281ZM848.288 696.525C873.692 722.124 908.805 737.969 947.581 737.969C986.35 737.969 1021.46 722.124 1046.87 696.525C1072.27 670.925 1087.99 635.543 1087.99 596.476C1087.99 557.408 1072.27 522.026 1046.87 496.427C1021.46 470.828 986.35 454.983 947.581 454.983C908.805 454.983 873.692 470.828 848.288 496.427C822.885 522.026 807.161 557.408 807.161 596.476C807.161 635.543 822.885 670.925 848.288 696.525Z" stroke="#8D8D8E" stroke-width="6" mask="url(#path-3-outside-1_66_4121)"/>
</svg>
