<svg width="1728" height="1117" viewBox="0 0 1728 1117" fill="none" xmlns="http://www.w3.org/2000/svg">
<rect width="1728" height="1117" fill="#F5F8F9"/>
<rect x="0.5" y="0.5" width="1727" height="1116" stroke="black" stroke-opacity="0.25"/>
<path d="M772.887 823.977H607.273C602.692 823.977 599 820.264 599 815.705V768.091C599 734.977 625.932 708.045 659.046 708.045H721.159C754.272 708.045 781.205 734.976 781.205 768.091V815.705C781.16 820.264 777.468 823.977 772.887 823.977ZM615.545 807.409H764.615V768.068C764.615 744.095 745.111 724.591 721.138 724.591H659.025C635.052 724.591 615.548 744.095 615.548 768.068L615.545 807.409Z" fill="#252B33" fill-opacity="0.75"/>
<path d="M781.705 815.71V815.705V768.091C781.705 734.7 754.549 707.545 721.159 707.545H659.046C625.655 707.545 598.5 734.701 598.5 768.091V815.705C598.5 820.539 602.414 824.477 607.273 824.477H772.887C777.746 824.477 781.657 820.539 781.705 815.71ZM764.115 768.068V806.909H616.045L616.048 768.068C616.048 744.371 635.328 725.091 659.025 725.091H721.138C744.835 725.091 764.115 744.371 764.115 768.068Z" stroke="#252B33" stroke-opacity="0.75"/>
<path d="M648.688 823.976C644.107 823.976 640.415 820.262 640.415 815.703V774.294C640.415 769.713 644.129 766.021 648.688 766.021C653.269 766.021 656.961 769.735 656.961 774.294V815.703C656.961 820.262 653.247 823.976 648.688 823.976Z" fill="#252B33" fill-opacity="0.75"/>
<path d="M639.915 815.703C639.915 820.537 643.83 824.476 648.688 824.476C653.523 824.476 657.461 820.538 657.461 815.703V774.294C657.461 769.46 653.546 765.521 648.688 765.521C643.854 765.521 639.915 769.436 639.915 774.294V815.703Z" stroke="#252B33" stroke-opacity="0.75"/>
<path d="M731.484 823.976C726.902 823.976 723.211 820.262 723.211 815.703V774.294C723.211 769.713 726.925 766.021 731.484 766.021C736.065 766.021 739.756 769.735 739.756 774.294V815.703C739.779 820.262 736.065 823.976 731.484 823.976Z" fill="#252B33" fill-opacity="0.75"/>
<path d="M722.711 815.703C722.711 820.537 726.625 824.476 731.484 824.476C736.339 824.476 740.279 820.54 740.256 815.702V774.294C740.256 769.46 736.342 765.521 731.484 765.521C726.65 765.521 722.711 769.436 722.711 774.294V815.703Z" stroke="#252B33" stroke-opacity="0.75"/>
<path d="M690.069 724.593C662.67 724.593 640.387 702.309 640.387 674.911C640.387 647.512 662.67 625.229 690.069 625.229C717.467 625.229 739.751 647.512 739.751 674.911C739.773 702.309 717.467 724.593 690.069 724.593ZM690.069 641.797C671.811 641.797 656.955 656.653 656.955 674.911C656.955 693.169 671.811 708.024 690.069 708.024C708.327 708.024 723.183 693.169 723.183 674.911C723.205 656.653 708.349 641.797 690.069 641.797Z" fill="#252B33" fill-opacity="0.75"/>
<path d="M722.683 674.91V674.911C722.683 692.893 708.051 707.524 690.069 707.524C672.087 707.524 657.455 692.893 657.455 674.911C657.455 656.929 672.087 642.297 690.069 642.297C708.073 642.297 722.705 656.929 722.683 674.91ZM639.887 674.911C639.887 702.585 662.394 725.093 690.069 725.093C717.743 725.093 740.273 702.585 740.251 674.91C740.251 647.236 717.743 624.729 690.069 624.729C662.394 624.729 639.887 647.236 639.887 674.911Z" stroke="#252B33" stroke-opacity="0.75"/>
<path d="M1120.68 823.977H955.069C950.487 823.977 946.796 820.264 946.796 815.705V768.091C946.796 734.977 973.728 708.045 1006.84 708.045H1068.95C1102.07 708.045 1129 734.976 1129 768.091V815.705C1128.98 820.264 1125.26 823.977 1120.68 823.977ZM963.341 807.409H1112.41V768.068C1112.41 744.095 1092.91 724.591 1068.93 724.591H1006.82C982.848 724.591 963.344 744.095 963.344 768.068L963.341 807.409Z" fill="#252B33" fill-opacity="0.75"/>
<path d="M1129.5 815.707V815.705V768.091C1129.5 734.7 1102.34 707.545 1068.95 707.545H1006.84C973.451 707.545 946.296 734.701 946.296 768.091V815.705C946.296 820.539 950.21 824.477 955.069 824.477H1120.68C1125.54 824.477 1129.48 820.541 1129.5 815.707ZM1111.91 768.068V806.909H963.841L963.844 768.068C963.844 744.371 983.124 725.091 1006.82 725.091H1068.93C1092.63 725.091 1111.91 744.371 1111.91 768.068Z" stroke="#252B33" stroke-opacity="0.75"/>
<path d="M996.478 823.976C991.897 823.976 988.205 820.262 988.205 815.703V774.294C988.205 769.713 991.919 766.021 996.478 766.021C1001.06 766.021 1004.75 769.735 1004.75 774.294V815.703C1004.75 820.262 1001.04 823.976 996.478 823.976Z" fill="#252B33" fill-opacity="0.75"/>
<path d="M987.705 815.703C987.705 820.537 991.62 824.476 996.478 824.476C1001.31 824.476 1005.25 820.538 1005.25 815.703V774.294C1005.25 769.46 1001.34 765.521 996.478 765.521C991.644 765.521 987.705 769.436 987.705 774.294V815.703Z" stroke="#252B33" stroke-opacity="0.75"/>
<path d="M1079.27 823.976C1074.69 823.976 1071 820.262 1071 815.703V774.294C1071 769.713 1074.71 766.021 1079.27 766.021C1083.85 766.021 1087.55 769.735 1087.55 774.294V815.703C1087.57 820.262 1083.85 823.976 1079.27 823.976Z" fill="#252B33" fill-opacity="0.75"/>
<path d="M1070.5 815.703C1070.5 820.537 1074.41 824.476 1079.27 824.476C1084.13 824.476 1088.07 820.54 1088.05 815.702V774.294C1088.05 769.46 1084.13 765.521 1079.27 765.521C1074.44 765.521 1070.5 769.436 1070.5 774.294V815.703Z" stroke="#252B33" stroke-opacity="0.75"/>
<path d="M1037.89 724.593C1010.49 724.593 988.205 702.309 988.205 674.911C988.205 647.512 1010.49 625.229 1037.89 625.229C1065.29 625.229 1087.57 647.512 1087.57 674.911C1087.57 702.309 1065.29 724.593 1037.89 724.593ZM1037.89 641.797C1019.63 641.797 1004.77 656.653 1004.77 674.911C1004.77 693.169 1019.63 708.024 1037.89 708.024C1056.15 708.024 1071 693.169 1071 674.911C1071 656.653 1056.15 641.797 1037.89 641.797Z" fill="#252B33" fill-opacity="0.75"/>
<path d="M987.705 674.911C987.705 702.585 1010.21 725.093 1037.89 725.093C1065.56 725.093 1088.07 702.585 1088.07 674.911C1088.07 647.236 1065.56 624.729 1037.89 624.729C1010.21 624.729 987.705 647.236 987.705 674.911ZM1005.27 674.911C1005.27 656.929 1019.91 642.297 1037.89 642.297C1055.87 642.297 1070.5 656.929 1070.5 674.911C1070.5 692.893 1055.87 707.524 1037.89 707.524C1019.91 707.524 1005.27 692.893 1005.27 674.911Z" stroke="#252B33" stroke-opacity="0.75"/>
<path d="M946.797 492.729H781.159C776.578 492.729 772.887 489.015 772.887 484.457V436.843C772.887 403.729 799.818 376.797 832.933 376.797H895.045C928.159 376.797 955.091 403.728 955.091 436.843V484.457C955.069 489.016 951.356 492.729 946.797 492.729ZM789.454 476.161H938.525V436.82C938.525 412.847 919.021 393.343 895.048 393.343H832.935C808.962 393.343 789.458 412.847 789.458 436.82L789.454 476.161Z" fill="#252B33" fill-opacity="0.75"/>
<path d="M955.591 484.459V484.457V436.843C955.591 403.452 928.435 376.297 895.045 376.297H832.933C799.542 376.297 772.387 403.453 772.387 436.843V484.457C772.387 489.291 776.301 493.229 781.159 493.229H946.797C951.632 493.229 955.568 489.292 955.591 484.459ZM938.025 436.82V475.661H789.954L789.958 436.82C789.958 413.123 809.238 393.843 832.935 393.843H895.048C918.745 393.843 938.025 413.123 938.025 436.82Z" stroke="#252B33" stroke-opacity="0.75"/>
<path d="M822.575 492.728C817.993 492.728 814.302 489.014 814.302 484.455V443.046C814.302 438.465 818.016 434.773 822.575 434.773C827.156 434.773 830.847 438.487 830.847 443.046V484.455C830.87 489.014 827.156 492.728 822.575 492.728Z" fill="#252B33" fill-opacity="0.75"/>
<path d="M813.802 484.455C813.802 489.289 817.716 493.228 822.575 493.228C827.43 493.228 831.37 489.292 831.347 484.454V443.046C831.347 438.212 827.433 434.273 822.575 434.273C817.74 434.273 813.802 438.188 813.802 443.046V484.455Z" stroke="#252B33" stroke-opacity="0.75"/>
<path d="M905.386 492.728C900.805 492.728 897.113 489.014 897.113 484.455V443.046C897.113 438.465 900.827 434.773 905.386 434.773C909.967 434.773 913.659 438.487 913.659 443.046V484.455C913.659 489.014 909.945 492.728 905.386 492.728Z" fill="#252B33" fill-opacity="0.75"/>
<path d="M896.613 484.455C896.613 489.289 900.528 493.228 905.386 493.228C910.221 493.228 914.159 489.29 914.159 484.455V443.046C914.159 438.212 910.244 434.273 905.386 434.273C900.552 434.273 896.613 438.188 896.613 443.046V484.455Z" stroke="#252B33" stroke-opacity="0.75"/>
<path d="M863.977 393.364C836.579 393.364 814.295 371.081 814.295 343.682C814.295 316.284 836.579 294 863.977 294C891.375 294 913.659 316.284 913.659 343.682C913.659 371.058 891.375 393.364 863.977 393.364ZM863.977 310.546C845.719 310.546 830.863 325.401 830.863 343.659C830.863 361.917 845.719 376.773 863.977 376.773C882.235 376.773 897.091 361.917 897.091 343.659C897.091 325.401 882.235 310.546 863.977 310.546Z" fill="#252B33" fill-opacity="0.75"/>
<path d="M813.795 343.682C813.795 371.357 836.302 393.864 863.977 393.864C891.652 393.864 914.159 371.334 914.159 343.682C914.159 316.008 891.652 293.5 863.977 293.5C836.302 293.5 813.795 316.008 813.795 343.682ZM831.363 343.659C831.363 325.677 845.995 311.046 863.977 311.046C881.959 311.046 896.591 325.677 896.591 343.659C896.591 361.641 881.959 376.273 863.977 376.273C845.995 376.273 831.363 361.641 831.363 343.659Z" stroke="#252B33" stroke-opacity="0.75"/>
<path d="M640.393 625.227C635.812 625.227 632.12 621.513 632.12 616.954V434.773C632.12 430.192 635.834 426.5 640.393 426.5H748.051C752.632 426.5 756.324 430.214 756.324 434.773C756.324 439.354 752.61 443.046 748.051 443.046H648.688V616.955C648.688 621.514 644.974 625.227 640.393 625.227Z" fill="#252B33" fill-opacity="0.75"/>
<path d="M631.62 616.954C631.62 621.789 635.535 625.727 640.393 625.727C645.249 625.727 649.188 621.791 649.188 616.955V443.546H748.051C752.885 443.546 756.824 439.631 756.824 434.773C756.824 429.939 752.909 426 748.051 426H640.393C635.559 426 631.62 429.914 631.62 434.773V616.954Z" stroke="#252B33" stroke-opacity="0.75"/>
<path d="M714.909 476.166C712.796 476.166 710.661 475.365 709.06 473.742C705.835 470.517 705.835 465.269 709.06 462.022L736.325 434.779L709.06 407.513C705.835 404.289 705.835 399.04 709.06 395.794C712.285 392.569 717.533 392.569 720.78 395.794L753.894 428.907C757.119 432.132 757.119 437.38 753.894 440.627L720.78 473.741C719.157 475.365 717.043 476.166 714.909 476.166Z" fill="#252B33" fill-opacity="0.75"/>
<path d="M735.618 434.779L708.707 461.668L708.705 461.669C705.288 465.11 705.286 470.673 708.705 474.094C710.406 475.818 712.672 476.666 714.909 476.666C717.17 476.666 719.412 475.816 721.134 474.095L754.247 440.981L754.249 440.98C757.666 437.539 757.668 431.974 754.247 428.554L721.134 395.44L721.132 395.439C717.691 392.021 712.127 392.019 708.707 395.44L708.705 395.441C705.288 398.882 705.286 404.446 708.707 407.867L735.618 434.779Z" stroke="#252B33" stroke-opacity="0.75"/>
<path d="M1062.73 608.661C1058.15 608.661 1054.45 604.947 1054.45 600.388L1054.43 443.046H979.908C975.327 443.046 971.636 439.332 971.636 434.773C971.636 430.192 975.35 426.5 979.908 426.5H1062.73C1067.31 426.5 1071 430.214 1071 434.773V600.387C1071 604.946 1067.29 608.661 1062.73 608.661Z" fill="#252B33" fill-opacity="0.75"/>
<path d="M1053.95 600.388C1053.95 605.222 1057.87 609.161 1062.73 609.161C1067.56 609.161 1071.5 605.222 1071.5 600.387V434.773C1071.5 429.939 1067.59 426 1062.73 426H979.908C975.074 426 971.136 429.914 971.136 434.773C971.136 439.607 975.05 443.546 979.908 443.546H1053.93L1053.95 600.388Z" stroke="#252B33" stroke-opacity="0.75"/>
<path d="M1062.73 608.665C1060.61 608.665 1058.48 607.864 1056.88 606.241L1023.77 573.127C1020.54 569.902 1020.54 564.654 1023.77 561.407C1026.99 558.182 1032.24 558.182 1035.49 561.407L1062.73 588.672L1089.99 561.407C1093.22 558.182 1098.47 558.182 1101.71 561.407C1104.94 564.631 1104.94 569.88 1101.71 573.127L1068.6 606.241C1066.95 607.864 1064.84 608.665 1062.73 608.665Z" fill="#252B33" fill-opacity="0.75"/>
<path d="M1062.73 587.965L1035.84 561.053L1035.84 561.052C1032.4 557.634 1026.83 557.633 1023.41 561.053L1023.41 561.054C1019.99 564.496 1019.99 570.06 1023.41 573.48L1056.52 606.592C1056.52 606.592 1056.52 606.592 1056.52 606.593C1058.23 608.317 1060.49 609.165 1062.73 609.165C1064.97 609.165 1067.21 608.315 1068.95 606.597L1068.95 606.594L1102.07 573.48L1102.07 573.479C1105.49 570.038 1105.49 564.474 1102.07 561.053L1102.07 561.052C1098.62 557.634 1093.06 557.633 1089.64 561.053L1062.73 587.965Z" stroke="#252B33" stroke-opacity="0.75"/>
<path d="M830.869 807.415C828.756 807.415 826.621 806.614 825.02 804.991L800.179 780.149C796.955 776.925 796.955 771.676 800.179 768.429L825.02 743.588C828.245 740.364 833.493 740.364 836.74 743.588C839.965 746.813 839.965 752.062 836.74 755.308L817.726 774.278L836.718 793.27C839.943 796.495 839.943 801.743 836.718 804.99C835.095 806.613 832.981 807.415 830.869 807.415Z" fill="#252B33" fill-opacity="0.75"/>
<path d="M818.434 774.279L837.093 755.662L837.095 755.661C840.513 752.22 840.514 746.655 837.094 743.235L837.093 743.234C833.651 739.816 828.087 739.814 824.667 743.235L799.826 768.076L799.824 768.077C796.407 771.518 796.405 777.082 799.826 780.503L824.664 805.342C824.665 805.342 824.665 805.343 824.666 805.343C826.367 807.067 828.632 807.915 830.869 807.915C833.108 807.915 835.35 807.065 837.072 805.344L837.073 805.342C840.49 801.901 840.492 796.337 837.072 792.916L818.434 774.279Z" stroke="#252B33" stroke-opacity="0.75"/>
<path d="M921.958 782.567H806.005C801.424 782.567 797.732 778.853 797.732 774.294C797.732 769.713 801.446 766.021 806.005 766.021H921.935C926.517 766.021 930.208 769.735 930.208 774.294C930.23 778.853 926.517 782.567 921.958 782.567Z" fill="#252B33" fill-opacity="0.75"/>
<path d="M930.708 774.294C930.708 769.46 926.794 765.521 921.935 765.521H806.005C801.171 765.521 797.232 769.436 797.232 774.294C797.232 779.128 801.147 783.067 806.005 783.067H921.958C926.792 783.067 930.73 779.131 930.708 774.294ZM930.708 774.294H930.208L930.708 774.292C930.708 774.293 930.708 774.293 930.708 774.294Z" stroke="#252B33" stroke-opacity="0.75"/>
<mask id="path-39-outside-1_45_1820" maskUnits="userSpaceOnUse" x="755.341" y="508.297" width="218" height="218" fill="black">
<rect fill="white" x="755.341" y="508.297" width="218" height="218"/>
<path d="M880.545 724.591H847.432C842.85 724.591 839.159 720.877 839.159 716.319V704.599C832.332 702.664 825.771 699.951 819.589 696.481L811.294 704.776C808.069 708.001 802.821 708.001 799.574 704.776L776.156 681.358C774.599 679.802 773.732 677.689 773.732 675.51C773.732 673.308 774.599 671.218 776.156 669.661L784.451 661.366C780.982 655.184 778.269 648.623 776.334 641.796H764.614C760.032 641.796 756.341 638.082 756.341 633.523V600.409C756.341 595.828 760.055 592.137 764.614 592.137H776.334C778.268 585.309 780.982 578.749 784.451 572.566L776.156 564.271C774.599 562.715 773.732 560.602 773.732 558.423C773.732 556.221 774.599 554.131 776.156 552.574L799.574 529.156C802.798 525.932 808.047 525.932 811.294 529.156L819.589 537.451C825.771 533.982 832.332 531.269 839.159 529.334L839.137 517.57C839.137 512.988 842.851 509.297 847.409 509.297H880.523C885.105 509.297 888.796 513.011 888.796 517.57V529.29C895.623 531.224 902.184 533.938 908.366 537.407L916.661 529.112C918.218 527.555 920.331 526.688 922.51 526.688C924.712 526.688 926.802 527.555 928.358 529.112L951.776 552.53C953.333 554.086 954.2 556.199 954.2 558.378C954.2 560.58 953.333 562.67 951.776 564.227L943.481 572.522C946.951 578.704 949.664 585.265 951.599 592.092H963.341C967.922 592.092 971.614 595.806 971.614 600.365V633.479C971.614 638.06 967.9 641.752 963.341 641.752H951.621C949.686 648.579 946.973 655.14 943.503 661.322L951.798 669.617C955.023 672.841 955.023 678.09 951.798 681.337L928.381 704.755C925.156 707.979 919.908 707.979 916.661 704.755L908.366 696.46C902.184 699.929 895.623 702.642 888.795 704.577L888.818 716.319C888.818 720.9 885.104 724.591 880.545 724.591ZM855.704 708.046H872.273V698.105C872.273 694.169 875.053 690.766 878.9 689.988C888.285 688.075 897.092 684.428 905.054 679.135C908.345 676.956 912.704 677.401 915.483 680.18L922.533 687.23L934.253 675.51L927.203 668.46C924.424 665.681 923.979 661.3 926.158 658.031C931.451 650.069 935.098 641.262 937.011 631.877C937.789 628.008 941.191 625.25 945.128 625.25L955.069 625.228V608.659H945.128C941.192 608.659 937.789 605.879 937.011 602.032C935.098 592.647 931.451 583.84 926.158 575.879C923.979 572.587 924.424 568.228 927.203 565.449L934.253 558.399L922.533 546.679L915.483 553.729C912.704 556.508 908.345 556.953 905.054 554.774C897.092 549.481 888.285 545.834 878.9 543.922C875.031 543.143 872.273 539.741 872.273 535.804L872.251 525.863H855.682V535.804C855.682 539.741 852.902 543.143 849.055 543.922C839.67 545.834 830.863 549.481 822.901 554.774C819.61 556.953 815.251 556.508 812.472 553.729L805.422 546.679L793.702 558.399L800.752 565.449C803.531 568.228 803.976 572.609 801.797 575.879C796.504 583.84 792.857 592.647 790.944 602.032C790.166 605.901 786.763 608.659 782.827 608.659H772.886V625.228H782.827C786.763 625.228 790.166 628.007 790.944 631.855C792.857 641.24 796.504 650.046 801.797 658.008C803.976 661.3 803.531 665.659 800.752 668.438L793.702 675.488L805.422 687.208L812.472 680.158C815.251 677.378 819.632 676.934 822.901 679.113C830.863 684.406 839.67 688.053 849.055 689.965C852.924 690.744 855.682 694.146 855.682 698.083L855.704 708.046Z"/>
</mask>
<path d="M880.545 724.591H847.432C842.85 724.591 839.159 720.877 839.159 716.319V704.599C832.332 702.664 825.771 699.951 819.589 696.481L811.294 704.776C808.069 708.001 802.821 708.001 799.574 704.776L776.156 681.358C774.599 679.802 773.732 677.689 773.732 675.51C773.732 673.308 774.599 671.218 776.156 669.661L784.451 661.366C780.982 655.184 778.269 648.623 776.334 641.796H764.614C760.032 641.796 756.341 638.082 756.341 633.523V600.409C756.341 595.828 760.055 592.137 764.614 592.137H776.334C778.268 585.309 780.982 578.749 784.451 572.566L776.156 564.271C774.599 562.715 773.732 560.602 773.732 558.423C773.732 556.221 774.599 554.131 776.156 552.574L799.574 529.156C802.798 525.932 808.047 525.932 811.294 529.156L819.589 537.451C825.771 533.982 832.332 531.269 839.159 529.334L839.137 517.57C839.137 512.988 842.851 509.297 847.409 509.297H880.523C885.105 509.297 888.796 513.011 888.796 517.57V529.29C895.623 531.224 902.184 533.938 908.366 537.407L916.661 529.112C918.218 527.555 920.331 526.688 922.51 526.688C924.712 526.688 926.802 527.555 928.358 529.112L951.776 552.53C953.333 554.086 954.2 556.199 954.2 558.378C954.2 560.58 953.333 562.67 951.776 564.227L943.481 572.522C946.951 578.704 949.664 585.265 951.599 592.092H963.341C967.922 592.092 971.614 595.806 971.614 600.365V633.479C971.614 638.06 967.9 641.752 963.341 641.752H951.621C949.686 648.579 946.973 655.14 943.503 661.322L951.798 669.617C955.023 672.841 955.023 678.09 951.798 681.337L928.381 704.755C925.156 707.979 919.908 707.979 916.661 704.755L908.366 696.46C902.184 699.929 895.623 702.642 888.795 704.577L888.818 716.319C888.818 720.9 885.104 724.591 880.545 724.591ZM855.704 708.046H872.273V698.105C872.273 694.169 875.053 690.766 878.9 689.988C888.285 688.075 897.092 684.428 905.054 679.135C908.345 676.956 912.704 677.401 915.483 680.18L922.533 687.23L934.253 675.51L927.203 668.46C924.424 665.681 923.979 661.3 926.158 658.031C931.451 650.069 935.098 641.262 937.011 631.877C937.789 628.008 941.191 625.25 945.128 625.25L955.069 625.228V608.659H945.128C941.192 608.659 937.789 605.879 937.011 602.032C935.098 592.647 931.451 583.84 926.158 575.879C923.979 572.587 924.424 568.228 927.203 565.449L934.253 558.399L922.533 546.679L915.483 553.729C912.704 556.508 908.345 556.953 905.054 554.774C897.092 549.481 888.285 545.834 878.9 543.922C875.031 543.143 872.273 539.741 872.273 535.804L872.251 525.863H855.682V535.804C855.682 539.741 852.902 543.143 849.055 543.922C839.67 545.834 830.863 549.481 822.901 554.774C819.61 556.953 815.251 556.508 812.472 553.729L805.422 546.679L793.702 558.399L800.752 565.449C803.531 568.228 803.976 572.609 801.797 575.879C796.504 583.84 792.857 592.647 790.944 602.032C790.166 605.901 786.763 608.659 782.827 608.659H772.886V625.228H782.827C786.763 625.228 790.166 628.007 790.944 631.855C792.857 641.24 796.504 650.046 801.797 658.008C803.976 661.3 803.531 665.659 800.752 668.438L793.702 675.488L805.422 687.208L812.472 680.158C815.251 677.378 819.632 676.934 822.901 679.113C830.863 684.406 839.67 688.053 849.055 689.965C852.924 690.744 855.682 694.146 855.682 698.083L855.704 708.046Z" fill="#252B33" fill-opacity="0.75"/>
<path d="M880.545 724.591H847.432C842.85 724.591 839.159 720.877 839.159 716.319V704.599C832.332 702.664 825.771 699.951 819.589 696.481L811.294 704.776C808.069 708.001 802.821 708.001 799.574 704.776L776.156 681.358C774.599 679.802 773.732 677.689 773.732 675.51C773.732 673.308 774.599 671.218 776.156 669.661L784.451 661.366C780.982 655.184 778.269 648.623 776.334 641.796H764.614C760.032 641.796 756.341 638.082 756.341 633.523V600.409C756.341 595.828 760.055 592.137 764.614 592.137H776.334C778.268 585.309 780.982 578.749 784.451 572.566L776.156 564.271C774.599 562.715 773.732 560.602 773.732 558.423C773.732 556.221 774.599 554.131 776.156 552.574L799.574 529.156C802.798 525.932 808.047 525.932 811.294 529.156L819.589 537.451C825.771 533.982 832.332 531.269 839.159 529.334L839.137 517.57C839.137 512.988 842.851 509.297 847.409 509.297H880.523C885.105 509.297 888.796 513.011 888.796 517.57V529.29C895.623 531.224 902.184 533.938 908.366 537.407L916.661 529.112C918.218 527.555 920.331 526.688 922.51 526.688C924.712 526.688 926.802 527.555 928.358 529.112L951.776 552.53C953.333 554.086 954.2 556.199 954.2 558.378C954.2 560.58 953.333 562.67 951.776 564.227L943.481 572.522C946.951 578.704 949.664 585.265 951.599 592.092H963.341C967.922 592.092 971.614 595.806 971.614 600.365V633.479C971.614 638.06 967.9 641.752 963.341 641.752H951.621C949.686 648.579 946.973 655.14 943.503 661.322L951.798 669.617C955.023 672.841 955.023 678.09 951.798 681.337L928.381 704.755C925.156 707.979 919.908 707.979 916.661 704.755L908.366 696.46C902.184 699.929 895.623 702.642 888.795 704.577L888.818 716.319C888.818 720.9 885.104 724.591 880.545 724.591ZM855.704 708.046H872.273V698.105C872.273 694.169 875.053 690.766 878.9 689.988C888.285 688.075 897.092 684.428 905.054 679.135C908.345 676.956 912.704 677.401 915.483 680.18L922.533 687.23L934.253 675.51L927.203 668.46C924.424 665.681 923.979 661.3 926.158 658.031C931.451 650.069 935.098 641.262 937.011 631.877C937.789 628.008 941.191 625.25 945.128 625.25L955.069 625.228V608.659H945.128C941.192 608.659 937.789 605.879 937.011 602.032C935.098 592.647 931.451 583.84 926.158 575.879C923.979 572.587 924.424 568.228 927.203 565.449L934.253 558.399L922.533 546.679L915.483 553.729C912.704 556.508 908.345 556.953 905.054 554.774C897.092 549.481 888.285 545.834 878.9 543.922C875.031 543.143 872.273 539.741 872.273 535.804L872.251 525.863H855.682V535.804C855.682 539.741 852.902 543.143 849.055 543.922C839.67 545.834 830.863 549.481 822.901 554.774C819.61 556.953 815.251 556.508 812.472 553.729L805.422 546.679L793.702 558.399L800.752 565.449C803.531 568.228 803.976 572.609 801.797 575.879C796.504 583.84 792.857 592.647 790.944 602.032C790.166 605.901 786.763 608.659 782.827 608.659H772.886V625.228H782.827C786.763 625.228 790.166 628.007 790.944 631.855C792.857 641.24 796.504 650.046 801.797 658.008C803.976 661.3 803.531 665.659 800.752 668.438L793.702 675.488L805.422 687.208L812.472 680.158C815.251 677.378 819.632 676.934 822.901 679.113C830.863 684.406 839.67 688.053 849.055 689.965C852.924 690.744 855.682 694.146 855.682 698.083L855.704 708.046Z" stroke="#252B33" stroke-opacity="0.75" stroke-width="2" mask="url(#path-39-outside-1_45_1820)"/>
<path d="M863.98 674.914C832.023 674.914 806.001 648.916 806.001 616.934C806.001 584.977 831.998 558.955 863.98 558.955C895.938 558.955 921.96 584.952 921.96 616.934C921.96 648.914 895.94 674.914 863.98 674.914ZM863.98 575.551C841.141 575.551 822.572 594.12 822.572 616.959C822.572 639.799 841.141 658.368 863.98 658.368C886.82 658.368 905.389 639.799 905.389 616.959C905.389 594.12 886.82 575.551 863.98 575.551Z" fill="#252B33" fill-opacity="0.75"/>
<path d="M805.501 616.934C805.501 649.193 831.747 675.414 863.98 675.414C896.216 675.414 922.46 649.19 922.46 616.934C922.46 584.676 896.214 558.455 863.98 558.455C831.722 558.455 805.501 584.701 805.501 616.934ZM823.072 616.959C823.072 594.396 841.417 576.051 863.98 576.051C886.543 576.051 904.889 594.396 904.889 616.959C904.889 639.523 886.543 657.868 863.98 657.868C841.417 657.868 823.072 639.523 823.072 616.959Z" stroke="#252B33" stroke-opacity="0.75"/>
</svg>
