<svg width="1728" height="1117" viewBox="0 0 1728 1117" fill="none" xmlns="http://www.w3.org/2000/svg">
<rect width="1728" height="1117" fill="#F5F8F9"/>
<rect x="0.5" y="0.5" width="1727" height="1116" stroke="black" stroke-opacity="0.25"/>
<mask id="path-3-outside-1_45_1809" maskUnits="userSpaceOnUse" x="636" y="260" width="456" height="597" fill="black">
<rect fill="white" x="636" y="260" width="456" height="597"/>
<path d="M869.952 676.395L836.03 659.445V700.1L869.952 719.148V676.395ZM838.175 645.402C835.407 643.972 834.3 640.582 835.73 637.815C836.284 636.754 837.114 635.924 838.105 635.416L878.415 612.518C880.029 611.618 881.735 611.157 883.465 611.157C885.171 611.157 886.901 611.618 888.515 612.518L928.963 635.508C930.116 636.154 931.038 637.1 931.638 638.207C932.191 639.221 932.491 640.397 932.468 641.619V641.827C932.422 643.118 932.053 644.34 931.384 645.355C930.715 646.393 929.793 647.246 928.64 647.823V647.8L887.893 668.185C886.279 669.107 884.249 669.222 882.474 668.3L838.152 645.424L838.175 645.402ZM852.587 640.167L885.125 656.955L916.395 641.321L883.465 622.618L852.587 640.167ZM944.504 751.435C926.217 765.755 903.894 772.858 881.597 772.581C857.914 772.281 834.277 763.68 815.484 746.546C795.122 727.982 784.191 702.847 783.015 677.251C781.839 651.678 790.395 625.619 808.958 605.259H808.981C827.544 584.874 852.68 573.966 878.275 572.79C903.826 571.614 929.861 580.169 950.226 598.71L950.25 598.733C969.044 615.866 979.813 638.604 982.303 662.147C984.632 684.285 979.605 707.161 967.038 726.719L986.385 744.36C990.536 743.415 994.848 743.346 999.022 744.199C1004.16 745.213 1009.12 747.589 1013.32 751.347C1031.33 768.135 1050.12 784.3 1068.04 801.157C1074.11 806.761 1077.36 814.256 1077.73 821.888C1078.1 829.545 1075.54 837.339 1069.89 843.473L1069.86 843.496V843.519L1069.54 843.842C1063.96 849.768 1056.56 852.951 1049.04 853.296C1041.36 853.642 1033.57 851.083 1027.43 845.456L1027.41 845.433L1027.13 845.179L972.709 795.853L972.686 795.876C968.489 791.933 965.538 787.021 964.039 781.672C962.886 777.498 962.609 773.047 963.347 768.643L944.484 751.416L944.504 751.435ZM881.732 761.305C902.948 761.581 924.186 754.317 941.021 739.697V739.72C943.165 737.875 946.371 737.875 948.515 739.812L973.19 762.365C974.873 763.749 975.657 766.055 975.011 768.292C973.997 771.751 974.02 775.348 974.942 778.669C975.864 782.012 977.732 785.126 980.407 787.616L980.384 787.639L1034.71 836.849L1035.06 837.149L1035.04 837.172C1038.84 840.654 1043.73 842.269 1048.5 842.038C1053.21 841.83 1057.82 839.847 1061.3 836.181L1061.58 835.858H1061.6C1065.06 832.053 1066.65 827.21 1066.44 822.414C1066.21 817.663 1064.16 812.959 1060.36 809.431C1041.98 793.197 1024.22 775.878 1005.77 759.782C1003.14 757.43 1000.01 755.931 996.757 755.285C993.506 754.64 990.139 754.824 987.003 755.839C985.043 756.669 982.691 756.323 981.031 754.801L955.78 731.787L955.803 731.764C953.704 729.873 953.335 726.645 955.019 724.293C968.002 706.213 973.283 684.399 971.046 663.298C968.855 642.452 959.285 622.297 942.612 607.078L942.589 607.055C924.51 590.589 901.403 582.98 878.69 584.041C856.022 585.102 833.746 594.787 817.259 612.843V612.866C800.771 630.945 793.185 654.075 794.245 676.765C795.283 699.456 804.968 721.732 823.025 738.196C839.72 753.392 860.682 761.049 881.667 761.326L881.732 761.305ZM680.048 412.495C691.394 412.495 701.632 417.107 709.081 424.533C716.506 431.958 721.095 442.22 721.095 453.566C721.095 464.888 716.506 475.15 709.081 482.576C701.655 490.001 691.394 494.613 680.048 494.613C668.725 494.613 658.464 490.001 651.038 482.576C643.589 475.15 639 464.888 639 453.566C639 442.22 643.612 431.958 651.038 424.533C658.463 417.107 668.725 412.495 680.048 412.495ZM701.079 432.534C695.683 427.161 688.257 423.84 680.048 423.84C671.838 423.84 664.413 427.161 659.017 432.534C653.621 437.907 650.3 445.356 650.3 453.565C650.3 461.774 653.62 469.2 658.994 474.596C664.39 479.969 671.815 483.313 680.025 483.313C688.234 483.313 695.659 479.969 701.056 474.596C706.429 469.223 709.75 461.774 709.75 453.565C709.75 445.356 706.429 437.907 701.056 432.534H701.079ZM822.353 287.51C833.699 287.51 843.937 292.099 851.363 299.525C858.811 306.95 863.401 317.212 863.401 328.558C863.401 339.881 858.812 350.142 851.363 357.568C843.938 364.994 833.676 369.606 822.353 369.606C811.007 369.606 800.769 364.994 793.32 357.568C785.894 350.143 781.305 339.881 781.305 328.558C781.305 317.212 785.894 306.95 793.32 299.525C800.768 292.1 811.007 287.51 822.353 287.51ZM843.384 307.527C837.988 302.154 830.562 298.833 822.353 298.833C814.143 298.833 806.718 302.153 801.322 307.527C795.949 312.923 792.628 320.348 792.628 328.558C792.628 336.767 795.949 344.192 801.322 349.589C806.718 354.985 814.143 358.306 822.353 358.306C830.562 358.306 837.987 354.985 843.384 349.612C848.757 344.215 852.078 336.79 852.078 328.581C852.078 320.371 848.757 312.923 843.384 307.55V307.527ZM922.897 388.055C934.22 388.055 944.481 392.667 951.907 400.093C959.332 407.518 963.922 417.78 963.922 429.103C963.922 440.426 959.333 450.687 951.907 458.113L951.884 458.136L951.907 458.159C944.482 465.584 934.22 470.174 922.897 470.174C911.551 470.174 901.289 465.585 893.864 458.159C886.439 450.734 881.826 440.472 881.826 429.126C881.826 417.803 886.438 407.542 893.864 400.116C901.289 392.691 911.551 388.078 922.897 388.078V388.055ZM943.928 408.094C938.555 402.698 931.106 399.377 922.897 399.377C914.688 399.377 907.239 402.698 901.866 408.094C896.493 413.468 893.149 420.893 893.149 429.125C893.149 437.335 896.493 444.76 901.866 450.156C907.239 455.529 914.688 458.85 922.897 458.85C931.106 458.85 938.532 455.53 943.928 450.156H943.951C949.301 444.783 952.645 437.335 952.645 429.125C952.645 420.916 949.324 413.491 943.951 408.094H943.928ZM1047.95 263C1059.3 263 1069.56 267.612 1076.99 275.038C1084.41 282.463 1089 292.725 1089 304.048C1089 315.394 1084.41 325.655 1076.99 333.081C1069.56 340.506 1059.3 345.095 1047.95 345.095C1036.63 345.095 1026.37 340.506 1018.94 333.081C1011.52 325.655 1006.9 315.394 1006.9 304.048C1006.9 292.702 1011.52 282.464 1018.94 275.038C1026.37 267.589 1036.63 263 1047.95 263ZM1068.98 283.016C1063.61 277.643 1056.16 274.322 1047.95 274.322C1039.74 274.322 1032.32 277.643 1026.92 283.016C1021.53 288.412 1018.2 295.838 1018.2 304.047C1018.2 312.256 1021.53 319.705 1026.92 325.078C1032.29 330.451 1039.74 333.772 1047.95 333.772C1056.16 333.772 1063.61 330.451 1068.98 325.078C1074.36 319.682 1077.68 312.256 1077.68 304.047C1077.68 295.838 1074.36 288.412 1068.98 283.016ZM775.057 359.879C777.387 357.803 780.961 357.988 783.037 360.294C785.112 362.623 784.927 366.197 782.621 368.273L727.807 417.553C725.478 419.628 721.927 419.444 719.828 417.138C717.752 414.809 717.937 411.258 720.243 409.182L775.057 359.879ZM890.292 379.411C892.506 381.625 892.506 385.199 890.292 387.413C888.102 389.604 884.504 389.604 882.313 387.413L864.073 369.196C861.882 366.982 861.882 363.407 864.073 361.193C866.264 358.98 869.861 358.98 872.075 361.193L890.292 379.411ZM1007.32 343.46C1009.51 341.269 1013.11 341.269 1015.32 343.46C1017.51 345.674 1017.51 349.248 1015.32 351.462L972.593 394.193C970.379 396.384 966.805 396.384 964.591 394.193C962.4 391.979 962.4 388.405 964.591 386.191L1007.32 343.46ZM1023.65 423.641H1067.67C1073.09 423.641 1078.05 425.854 1081.6 429.429C1081.71 429.544 1081.83 429.659 1081.94 429.798C1085.31 433.349 1087.41 438.123 1087.41 443.357V655.349C1087.41 660.768 1085.2 665.703 1081.62 669.278C1078.07 672.829 1073.11 675.066 1067.69 675.066H1023.67C1018.25 675.066 1013.29 672.852 1009.74 669.278C1009.63 669.163 1009.51 669.024 1009.4 668.909C1006.03 665.358 1003.93 660.584 1003.93 655.349V443.357C1003.93 437.938 1006.17 433.026 1009.74 429.429H1009.72C1013.27 425.854 1018.23 423.641 1023.65 423.641ZM1067.67 434.94H1023.65C1021.34 434.94 1019.24 435.909 1017.72 437.431L1017.7 437.408L1017.68 437.431C1016.15 438.953 1015.23 441.051 1015.23 443.357V655.349C1015.23 657.54 1016.08 659.569 1017.49 661.068L1017.72 661.276C1019.24 662.798 1021.34 663.743 1023.65 663.743H1067.67C1069.98 663.743 1072.07 662.798 1073.6 661.276C1075.12 659.754 1076.09 657.655 1076.09 655.349V443.357C1076.09 441.167 1075.23 439.137 1073.83 437.638L1073.6 437.431C1072.07 435.909 1069.98 434.94 1067.67 434.94ZM905.692 557.023C905.692 560.159 903.179 562.673 900.042 562.673C896.906 562.673 894.369 560.159 894.369 557.023V538.275C894.369 532.856 896.606 527.944 900.181 524.347H900.158C903.709 520.772 908.667 518.558 914.086 518.558H958.108C963.527 518.558 968.485 520.772 972.037 524.347C972.152 524.462 972.267 524.577 972.383 524.715C975.749 528.267 977.848 533.04 977.848 538.275V597.125C977.848 600.238 975.311 602.775 972.175 602.775C969.039 602.775 966.525 600.238 966.525 597.125V538.275C966.525 536.061 965.672 534.055 964.265 532.556L964.035 532.349C962.513 530.827 960.414 529.858 958.108 529.858H914.086C911.78 529.858 909.682 530.827 908.16 532.349L908.137 532.326L908.114 532.349C906.592 533.871 905.669 535.969 905.669 538.275V557.023L905.692 557.023ZM796.154 600.884C796.154 604.02 793.64 606.534 790.504 606.534C787.368 606.534 784.831 604.02 784.831 600.884V478.736C784.831 473.317 787.068 468.382 790.643 464.807L790.62 464.784C794.171 461.233 799.129 458.996 804.548 458.996H848.57C853.989 458.996 858.947 461.21 862.498 464.784C862.614 464.9 862.729 465.038 862.844 465.153C866.211 468.705 868.31 473.478 868.31 478.736V557.535C868.31 560.671 865.773 563.185 862.637 563.185C859.501 563.185 856.987 560.671 856.987 557.535V478.736C856.987 476.522 856.134 474.493 854.727 473.017L854.497 472.786C852.975 471.264 850.876 470.319 848.57 470.319H804.548C802.242 470.319 800.144 471.264 798.622 472.786H798.576C797.054 474.308 796.131 476.407 796.131 478.736V600.884L796.154 600.884ZM695.034 525.155H739.056C744.475 525.155 749.433 527.368 752.985 530.943C753.1 531.058 753.215 531.196 753.33 531.312C756.697 534.863 758.796 539.637 758.796 544.894V655.353C758.796 660.773 756.582 665.684 753.008 669.259V669.282C749.456 672.833 744.498 675.07 739.079 675.07H695.057C689.638 675.07 684.68 672.856 681.129 669.282C681.013 669.167 680.898 669.028 680.783 668.913C677.416 665.362 675.317 660.588 675.317 655.353V544.894C675.317 539.475 677.554 534.54 681.129 530.966L681.106 530.943C684.657 527.392 689.615 525.155 695.034 525.155ZM739.056 536.454H695.034C692.728 536.454 690.63 537.4 689.108 538.922H689.062C687.54 540.444 686.617 542.542 686.617 544.871V655.33C686.617 657.521 687.47 659.55 688.877 661.049L689.108 661.257C690.63 662.779 692.728 663.724 695.034 663.724H739.056C741.362 663.724 743.461 662.779 744.982 661.257L745.006 661.28L745.029 661.257C746.551 659.735 747.473 657.636 747.473 655.33V544.871C747.473 542.658 746.62 540.628 745.213 539.152L744.982 538.922C743.461 537.4 741.362 536.454 739.056 536.454ZM893.378 731.132C890.656 732.654 887.22 731.685 885.675 728.964C884.153 726.243 885.122 722.807 887.843 721.285L927.507 698.986V653.557C927.507 650.421 930.044 647.884 933.18 647.884C936.316 647.884 938.83 650.421 938.83 653.557V699.678C938.83 701.523 938.368 703.275 937.469 704.797H937.446C936.547 706.342 935.255 707.611 933.641 708.51L893.378 731.155L893.378 731.132ZM836.788 647.262L876.152 666.932C877.72 667.716 878.988 668.892 879.888 670.322C880.787 671.775 881.271 673.435 881.271 675.164V725.759C881.271 727.096 880.925 728.341 880.303 729.448C879.657 730.555 878.735 731.478 877.582 732.169C876.429 732.838 875.183 733.184 873.892 733.184C872.601 733.207 871.332 732.884 870.202 732.239L829.916 709.617C828.325 708.717 827.034 707.426 826.134 705.904C825.235 704.359 824.751 702.606 824.751 700.785V654.664C824.751 653.234 825.12 651.851 825.811 650.605C826.503 649.383 827.472 648.346 828.717 647.585C829.962 646.823 831.323 646.408 832.707 646.339C834.113 646.27 835.52 646.547 836.788 647.192L836.788 647.262Z"/>
</mask>
<path d="M869.952 676.395L836.03 659.445V700.1L869.952 719.148V676.395ZM838.175 645.402C835.407 643.972 834.3 640.582 835.73 637.815C836.284 636.754 837.114 635.924 838.105 635.416L878.415 612.518C880.029 611.618 881.735 611.157 883.465 611.157C885.171 611.157 886.901 611.618 888.515 612.518L928.963 635.508C930.116 636.154 931.038 637.1 931.638 638.207C932.191 639.221 932.491 640.397 932.468 641.619V641.827C932.422 643.118 932.053 644.34 931.384 645.355C930.715 646.393 929.793 647.246 928.64 647.823V647.8L887.893 668.185C886.279 669.107 884.249 669.222 882.474 668.3L838.152 645.424L838.175 645.402ZM852.587 640.167L885.125 656.955L916.395 641.321L883.465 622.618L852.587 640.167ZM944.504 751.435C926.217 765.755 903.894 772.858 881.597 772.581C857.914 772.281 834.277 763.68 815.484 746.546C795.122 727.982 784.191 702.847 783.015 677.251C781.839 651.678 790.395 625.619 808.958 605.259H808.981C827.544 584.874 852.68 573.966 878.275 572.79C903.826 571.614 929.861 580.169 950.226 598.71L950.25 598.733C969.044 615.866 979.813 638.604 982.303 662.147C984.632 684.285 979.605 707.161 967.038 726.719L986.385 744.36C990.536 743.415 994.848 743.346 999.022 744.199C1004.16 745.213 1009.12 747.589 1013.32 751.347C1031.33 768.135 1050.12 784.3 1068.04 801.157C1074.11 806.761 1077.36 814.256 1077.73 821.888C1078.1 829.545 1075.54 837.339 1069.89 843.473L1069.86 843.496V843.519L1069.54 843.842C1063.96 849.768 1056.56 852.951 1049.04 853.296C1041.36 853.642 1033.57 851.083 1027.43 845.456L1027.41 845.433L1027.13 845.179L972.709 795.853L972.686 795.876C968.489 791.933 965.538 787.021 964.039 781.672C962.886 777.498 962.609 773.047 963.347 768.643L944.484 751.416L944.504 751.435ZM881.732 761.305C902.948 761.581 924.186 754.317 941.021 739.697V739.72C943.165 737.875 946.371 737.875 948.515 739.812L973.19 762.365C974.873 763.749 975.657 766.055 975.011 768.292C973.997 771.751 974.02 775.348 974.942 778.669C975.864 782.012 977.732 785.126 980.407 787.616L980.384 787.639L1034.71 836.849L1035.06 837.149L1035.04 837.172C1038.84 840.654 1043.73 842.269 1048.5 842.038C1053.21 841.83 1057.82 839.847 1061.3 836.181L1061.58 835.858H1061.6C1065.06 832.053 1066.65 827.21 1066.44 822.414C1066.21 817.663 1064.16 812.959 1060.36 809.431C1041.98 793.197 1024.22 775.878 1005.77 759.782C1003.14 757.43 1000.01 755.931 996.757 755.285C993.506 754.64 990.139 754.824 987.003 755.839C985.043 756.669 982.691 756.323 981.031 754.801L955.78 731.787L955.803 731.764C953.704 729.873 953.335 726.645 955.019 724.293C968.002 706.213 973.283 684.399 971.046 663.298C968.855 642.452 959.285 622.297 942.612 607.078L942.589 607.055C924.51 590.589 901.403 582.98 878.69 584.041C856.022 585.102 833.746 594.787 817.259 612.843V612.866C800.771 630.945 793.185 654.075 794.245 676.765C795.283 699.456 804.968 721.732 823.025 738.196C839.72 753.392 860.682 761.049 881.667 761.326L881.732 761.305ZM680.048 412.495C691.394 412.495 701.632 417.107 709.081 424.533C716.506 431.958 721.095 442.22 721.095 453.566C721.095 464.888 716.506 475.15 709.081 482.576C701.655 490.001 691.394 494.613 680.048 494.613C668.725 494.613 658.464 490.001 651.038 482.576C643.589 475.15 639 464.888 639 453.566C639 442.22 643.612 431.958 651.038 424.533C658.463 417.107 668.725 412.495 680.048 412.495ZM701.079 432.534C695.683 427.161 688.257 423.84 680.048 423.84C671.838 423.84 664.413 427.161 659.017 432.534C653.621 437.907 650.3 445.356 650.3 453.565C650.3 461.774 653.62 469.2 658.994 474.596C664.39 479.969 671.815 483.313 680.025 483.313C688.234 483.313 695.659 479.969 701.056 474.596C706.429 469.223 709.75 461.774 709.75 453.565C709.75 445.356 706.429 437.907 701.056 432.534H701.079ZM822.353 287.51C833.699 287.51 843.937 292.099 851.363 299.525C858.811 306.95 863.401 317.212 863.401 328.558C863.401 339.881 858.812 350.142 851.363 357.568C843.938 364.994 833.676 369.606 822.353 369.606C811.007 369.606 800.769 364.994 793.32 357.568C785.894 350.143 781.305 339.881 781.305 328.558C781.305 317.212 785.894 306.95 793.32 299.525C800.768 292.1 811.007 287.51 822.353 287.51ZM843.384 307.527C837.988 302.154 830.562 298.833 822.353 298.833C814.143 298.833 806.718 302.153 801.322 307.527C795.949 312.923 792.628 320.348 792.628 328.558C792.628 336.767 795.949 344.192 801.322 349.589C806.718 354.985 814.143 358.306 822.353 358.306C830.562 358.306 837.987 354.985 843.384 349.612C848.757 344.215 852.078 336.79 852.078 328.581C852.078 320.371 848.757 312.923 843.384 307.55V307.527ZM922.897 388.055C934.22 388.055 944.481 392.667 951.907 400.093C959.332 407.518 963.922 417.78 963.922 429.103C963.922 440.426 959.333 450.687 951.907 458.113L951.884 458.136L951.907 458.159C944.482 465.584 934.22 470.174 922.897 470.174C911.551 470.174 901.289 465.585 893.864 458.159C886.439 450.734 881.826 440.472 881.826 429.126C881.826 417.803 886.438 407.542 893.864 400.116C901.289 392.691 911.551 388.078 922.897 388.078V388.055ZM943.928 408.094C938.555 402.698 931.106 399.377 922.897 399.377C914.688 399.377 907.239 402.698 901.866 408.094C896.493 413.468 893.149 420.893 893.149 429.125C893.149 437.335 896.493 444.76 901.866 450.156C907.239 455.529 914.688 458.85 922.897 458.85C931.106 458.85 938.532 455.53 943.928 450.156H943.951C949.301 444.783 952.645 437.335 952.645 429.125C952.645 420.916 949.324 413.491 943.951 408.094H943.928ZM1047.95 263C1059.3 263 1069.56 267.612 1076.99 275.038C1084.41 282.463 1089 292.725 1089 304.048C1089 315.394 1084.41 325.655 1076.99 333.081C1069.56 340.506 1059.3 345.095 1047.95 345.095C1036.63 345.095 1026.37 340.506 1018.94 333.081C1011.52 325.655 1006.9 315.394 1006.9 304.048C1006.9 292.702 1011.52 282.464 1018.94 275.038C1026.37 267.589 1036.63 263 1047.95 263ZM1068.98 283.016C1063.61 277.643 1056.16 274.322 1047.95 274.322C1039.74 274.322 1032.32 277.643 1026.92 283.016C1021.53 288.412 1018.2 295.838 1018.2 304.047C1018.2 312.256 1021.53 319.705 1026.92 325.078C1032.29 330.451 1039.74 333.772 1047.95 333.772C1056.16 333.772 1063.61 330.451 1068.98 325.078C1074.36 319.682 1077.68 312.256 1077.68 304.047C1077.68 295.838 1074.36 288.412 1068.98 283.016ZM775.057 359.879C777.387 357.803 780.961 357.988 783.037 360.294C785.112 362.623 784.927 366.197 782.621 368.273L727.807 417.553C725.478 419.628 721.927 419.444 719.828 417.138C717.752 414.809 717.937 411.258 720.243 409.182L775.057 359.879ZM890.292 379.411C892.506 381.625 892.506 385.199 890.292 387.413C888.102 389.604 884.504 389.604 882.313 387.413L864.073 369.196C861.882 366.982 861.882 363.407 864.073 361.193C866.264 358.98 869.861 358.98 872.075 361.193L890.292 379.411ZM1007.32 343.46C1009.51 341.269 1013.11 341.269 1015.32 343.46C1017.51 345.674 1017.51 349.248 1015.32 351.462L972.593 394.193C970.379 396.384 966.805 396.384 964.591 394.193C962.4 391.979 962.4 388.405 964.591 386.191L1007.32 343.46ZM1023.65 423.641H1067.67C1073.09 423.641 1078.05 425.854 1081.6 429.429C1081.71 429.544 1081.83 429.659 1081.94 429.798C1085.31 433.349 1087.41 438.123 1087.41 443.357V655.349C1087.41 660.768 1085.2 665.703 1081.62 669.278C1078.07 672.829 1073.11 675.066 1067.69 675.066H1023.67C1018.25 675.066 1013.29 672.852 1009.74 669.278C1009.63 669.163 1009.51 669.024 1009.4 668.909C1006.03 665.358 1003.93 660.584 1003.93 655.349V443.357C1003.93 437.938 1006.17 433.026 1009.74 429.429H1009.72C1013.27 425.854 1018.23 423.641 1023.65 423.641ZM1067.67 434.94H1023.65C1021.34 434.94 1019.24 435.909 1017.72 437.431L1017.7 437.408L1017.68 437.431C1016.15 438.953 1015.23 441.051 1015.23 443.357V655.349C1015.23 657.54 1016.08 659.569 1017.49 661.068L1017.72 661.276C1019.24 662.798 1021.34 663.743 1023.65 663.743H1067.67C1069.98 663.743 1072.07 662.798 1073.6 661.276C1075.12 659.754 1076.09 657.655 1076.09 655.349V443.357C1076.09 441.167 1075.23 439.137 1073.83 437.638L1073.6 437.431C1072.07 435.909 1069.98 434.94 1067.67 434.94ZM905.692 557.023C905.692 560.159 903.179 562.673 900.042 562.673C896.906 562.673 894.369 560.159 894.369 557.023V538.275C894.369 532.856 896.606 527.944 900.181 524.347H900.158C903.709 520.772 908.667 518.558 914.086 518.558H958.108C963.527 518.558 968.485 520.772 972.037 524.347C972.152 524.462 972.267 524.577 972.383 524.715C975.749 528.267 977.848 533.04 977.848 538.275V597.125C977.848 600.238 975.311 602.775 972.175 602.775C969.039 602.775 966.525 600.238 966.525 597.125V538.275C966.525 536.061 965.672 534.055 964.265 532.556L964.035 532.349C962.513 530.827 960.414 529.858 958.108 529.858H914.086C911.78 529.858 909.682 530.827 908.16 532.349L908.137 532.326L908.114 532.349C906.592 533.871 905.669 535.969 905.669 538.275V557.023L905.692 557.023ZM796.154 600.884C796.154 604.02 793.64 606.534 790.504 606.534C787.368 606.534 784.831 604.02 784.831 600.884V478.736C784.831 473.317 787.068 468.382 790.643 464.807L790.62 464.784C794.171 461.233 799.129 458.996 804.548 458.996H848.57C853.989 458.996 858.947 461.21 862.498 464.784C862.614 464.9 862.729 465.038 862.844 465.153C866.211 468.705 868.31 473.478 868.31 478.736V557.535C868.31 560.671 865.773 563.185 862.637 563.185C859.501 563.185 856.987 560.671 856.987 557.535V478.736C856.987 476.522 856.134 474.493 854.727 473.017L854.497 472.786C852.975 471.264 850.876 470.319 848.57 470.319H804.548C802.242 470.319 800.144 471.264 798.622 472.786H798.576C797.054 474.308 796.131 476.407 796.131 478.736V600.884L796.154 600.884ZM695.034 525.155H739.056C744.475 525.155 749.433 527.368 752.985 530.943C753.1 531.058 753.215 531.196 753.33 531.312C756.697 534.863 758.796 539.637 758.796 544.894V655.353C758.796 660.773 756.582 665.684 753.008 669.259V669.282C749.456 672.833 744.498 675.07 739.079 675.07H695.057C689.638 675.07 684.68 672.856 681.129 669.282C681.013 669.167 680.898 669.028 680.783 668.913C677.416 665.362 675.317 660.588 675.317 655.353V544.894C675.317 539.475 677.554 534.54 681.129 530.966L681.106 530.943C684.657 527.392 689.615 525.155 695.034 525.155ZM739.056 536.454H695.034C692.728 536.454 690.63 537.4 689.108 538.922H689.062C687.54 540.444 686.617 542.542 686.617 544.871V655.33C686.617 657.521 687.47 659.55 688.877 661.049L689.108 661.257C690.63 662.779 692.728 663.724 695.034 663.724H739.056C741.362 663.724 743.461 662.779 744.982 661.257L745.006 661.28L745.029 661.257C746.551 659.735 747.473 657.636 747.473 655.33V544.871C747.473 542.658 746.62 540.628 745.213 539.152L744.982 538.922C743.461 537.4 741.362 536.454 739.056 536.454ZM893.378 731.132C890.656 732.654 887.22 731.685 885.675 728.964C884.153 726.243 885.122 722.807 887.843 721.285L927.507 698.986V653.557C927.507 650.421 930.044 647.884 933.18 647.884C936.316 647.884 938.83 650.421 938.83 653.557V699.678C938.83 701.523 938.368 703.275 937.469 704.797H937.446C936.547 706.342 935.255 707.611 933.641 708.51L893.378 731.155L893.378 731.132ZM836.788 647.262L876.152 666.932C877.72 667.716 878.988 668.892 879.888 670.322C880.787 671.775 881.271 673.435 881.271 675.164V725.759C881.271 727.096 880.925 728.341 880.303 729.448C879.657 730.555 878.735 731.478 877.582 732.169C876.429 732.838 875.183 733.184 873.892 733.184C872.601 733.207 871.332 732.884 870.202 732.239L829.916 709.617C828.325 708.717 827.034 707.426 826.134 705.904C825.235 704.359 824.751 702.606 824.751 700.785V654.664C824.751 653.234 825.12 651.851 825.811 650.605C826.503 649.383 827.472 648.346 828.717 647.585C829.962 646.823 831.323 646.408 832.707 646.339C834.113 646.27 835.52 646.547 836.788 647.192L836.788 647.262Z" fill="#8D8D8E"/>
<path d="M869.952 676.395L836.03 659.445V700.1L869.952 719.148V676.395ZM838.175 645.402C835.407 643.972 834.3 640.582 835.73 637.815C836.284 636.754 837.114 635.924 838.105 635.416L878.415 612.518C880.029 611.618 881.735 611.157 883.465 611.157C885.171 611.157 886.901 611.618 888.515 612.518L928.963 635.508C930.116 636.154 931.038 637.1 931.638 638.207C932.191 639.221 932.491 640.397 932.468 641.619V641.827C932.422 643.118 932.053 644.34 931.384 645.355C930.715 646.393 929.793 647.246 928.64 647.823V647.8L887.893 668.185C886.279 669.107 884.249 669.222 882.474 668.3L838.152 645.424L838.175 645.402ZM852.587 640.167L885.125 656.955L916.395 641.321L883.465 622.618L852.587 640.167ZM944.504 751.435C926.217 765.755 903.894 772.858 881.597 772.581C857.914 772.281 834.277 763.68 815.484 746.546C795.122 727.982 784.191 702.847 783.015 677.251C781.839 651.678 790.395 625.619 808.958 605.259H808.981C827.544 584.874 852.68 573.966 878.275 572.79C903.826 571.614 929.861 580.169 950.226 598.71L950.25 598.733C969.044 615.866 979.813 638.604 982.303 662.147C984.632 684.285 979.605 707.161 967.038 726.719L986.385 744.36C990.536 743.415 994.848 743.346 999.022 744.199C1004.16 745.213 1009.12 747.589 1013.32 751.347C1031.33 768.135 1050.12 784.3 1068.04 801.157C1074.11 806.761 1077.36 814.256 1077.73 821.888C1078.1 829.545 1075.54 837.339 1069.89 843.473L1069.86 843.496V843.519L1069.54 843.842C1063.96 849.768 1056.56 852.951 1049.04 853.296C1041.36 853.642 1033.57 851.083 1027.43 845.456L1027.41 845.433L1027.13 845.179L972.709 795.853L972.686 795.876C968.489 791.933 965.538 787.021 964.039 781.672C962.886 777.498 962.609 773.047 963.347 768.643L944.484 751.416L944.504 751.435ZM881.732 761.305C902.948 761.581 924.186 754.317 941.021 739.697V739.72C943.165 737.875 946.371 737.875 948.515 739.812L973.19 762.365C974.873 763.749 975.657 766.055 975.011 768.292C973.997 771.751 974.02 775.348 974.942 778.669C975.864 782.012 977.732 785.126 980.407 787.616L980.384 787.639L1034.71 836.849L1035.06 837.149L1035.04 837.172C1038.84 840.654 1043.73 842.269 1048.5 842.038C1053.21 841.83 1057.82 839.847 1061.3 836.181L1061.58 835.858H1061.6C1065.06 832.053 1066.65 827.21 1066.44 822.414C1066.21 817.663 1064.16 812.959 1060.36 809.431C1041.98 793.197 1024.22 775.878 1005.77 759.782C1003.14 757.43 1000.01 755.931 996.757 755.285C993.506 754.64 990.139 754.824 987.003 755.839C985.043 756.669 982.691 756.323 981.031 754.801L955.78 731.787L955.803 731.764C953.704 729.873 953.335 726.645 955.019 724.293C968.002 706.213 973.283 684.399 971.046 663.298C968.855 642.452 959.285 622.297 942.612 607.078L942.589 607.055C924.51 590.589 901.403 582.98 878.69 584.041C856.022 585.102 833.746 594.787 817.259 612.843V612.866C800.771 630.945 793.185 654.075 794.245 676.765C795.283 699.456 804.968 721.732 823.025 738.196C839.72 753.392 860.682 761.049 881.667 761.326L881.732 761.305ZM680.048 412.495C691.394 412.495 701.632 417.107 709.081 424.533C716.506 431.958 721.095 442.22 721.095 453.566C721.095 464.888 716.506 475.15 709.081 482.576C701.655 490.001 691.394 494.613 680.048 494.613C668.725 494.613 658.464 490.001 651.038 482.576C643.589 475.15 639 464.888 639 453.566C639 442.22 643.612 431.958 651.038 424.533C658.463 417.107 668.725 412.495 680.048 412.495ZM701.079 432.534C695.683 427.161 688.257 423.84 680.048 423.84C671.838 423.84 664.413 427.161 659.017 432.534C653.621 437.907 650.3 445.356 650.3 453.565C650.3 461.774 653.62 469.2 658.994 474.596C664.39 479.969 671.815 483.313 680.025 483.313C688.234 483.313 695.659 479.969 701.056 474.596C706.429 469.223 709.75 461.774 709.75 453.565C709.75 445.356 706.429 437.907 701.056 432.534H701.079ZM822.353 287.51C833.699 287.51 843.937 292.099 851.363 299.525C858.811 306.95 863.401 317.212 863.401 328.558C863.401 339.881 858.812 350.142 851.363 357.568C843.938 364.994 833.676 369.606 822.353 369.606C811.007 369.606 800.769 364.994 793.32 357.568C785.894 350.143 781.305 339.881 781.305 328.558C781.305 317.212 785.894 306.95 793.32 299.525C800.768 292.1 811.007 287.51 822.353 287.51ZM843.384 307.527C837.988 302.154 830.562 298.833 822.353 298.833C814.143 298.833 806.718 302.153 801.322 307.527C795.949 312.923 792.628 320.348 792.628 328.558C792.628 336.767 795.949 344.192 801.322 349.589C806.718 354.985 814.143 358.306 822.353 358.306C830.562 358.306 837.987 354.985 843.384 349.612C848.757 344.215 852.078 336.79 852.078 328.581C852.078 320.371 848.757 312.923 843.384 307.55V307.527ZM922.897 388.055C934.22 388.055 944.481 392.667 951.907 400.093C959.332 407.518 963.922 417.78 963.922 429.103C963.922 440.426 959.333 450.687 951.907 458.113L951.884 458.136L951.907 458.159C944.482 465.584 934.22 470.174 922.897 470.174C911.551 470.174 901.289 465.585 893.864 458.159C886.439 450.734 881.826 440.472 881.826 429.126C881.826 417.803 886.438 407.542 893.864 400.116C901.289 392.691 911.551 388.078 922.897 388.078V388.055ZM943.928 408.094C938.555 402.698 931.106 399.377 922.897 399.377C914.688 399.377 907.239 402.698 901.866 408.094C896.493 413.468 893.149 420.893 893.149 429.125C893.149 437.335 896.493 444.76 901.866 450.156C907.239 455.529 914.688 458.85 922.897 458.85C931.106 458.85 938.532 455.53 943.928 450.156H943.951C949.301 444.783 952.645 437.335 952.645 429.125C952.645 420.916 949.324 413.491 943.951 408.094H943.928ZM1047.95 263C1059.3 263 1069.56 267.612 1076.99 275.038C1084.41 282.463 1089 292.725 1089 304.048C1089 315.394 1084.41 325.655 1076.99 333.081C1069.56 340.506 1059.3 345.095 1047.95 345.095C1036.63 345.095 1026.37 340.506 1018.94 333.081C1011.52 325.655 1006.9 315.394 1006.9 304.048C1006.9 292.702 1011.52 282.464 1018.94 275.038C1026.37 267.589 1036.63 263 1047.95 263ZM1068.98 283.016C1063.61 277.643 1056.16 274.322 1047.95 274.322C1039.74 274.322 1032.32 277.643 1026.92 283.016C1021.53 288.412 1018.2 295.838 1018.2 304.047C1018.2 312.256 1021.53 319.705 1026.92 325.078C1032.29 330.451 1039.74 333.772 1047.95 333.772C1056.16 333.772 1063.61 330.451 1068.98 325.078C1074.36 319.682 1077.68 312.256 1077.68 304.047C1077.68 295.838 1074.36 288.412 1068.98 283.016ZM775.057 359.879C777.387 357.803 780.961 357.988 783.037 360.294C785.112 362.623 784.927 366.197 782.621 368.273L727.807 417.553C725.478 419.628 721.927 419.444 719.828 417.138C717.752 414.809 717.937 411.258 720.243 409.182L775.057 359.879ZM890.292 379.411C892.506 381.625 892.506 385.199 890.292 387.413C888.102 389.604 884.504 389.604 882.313 387.413L864.073 369.196C861.882 366.982 861.882 363.407 864.073 361.193C866.264 358.98 869.861 358.98 872.075 361.193L890.292 379.411ZM1007.32 343.46C1009.51 341.269 1013.11 341.269 1015.32 343.46C1017.51 345.674 1017.51 349.248 1015.32 351.462L972.593 394.193C970.379 396.384 966.805 396.384 964.591 394.193C962.4 391.979 962.4 388.405 964.591 386.191L1007.32 343.46ZM1023.65 423.641H1067.67C1073.09 423.641 1078.05 425.854 1081.6 429.429C1081.71 429.544 1081.83 429.659 1081.94 429.798C1085.31 433.349 1087.41 438.123 1087.41 443.357V655.349C1087.41 660.768 1085.2 665.703 1081.62 669.278C1078.07 672.829 1073.11 675.066 1067.69 675.066H1023.67C1018.25 675.066 1013.29 672.852 1009.74 669.278C1009.63 669.163 1009.51 669.024 1009.4 668.909C1006.03 665.358 1003.93 660.584 1003.93 655.349V443.357C1003.93 437.938 1006.17 433.026 1009.74 429.429H1009.72C1013.27 425.854 1018.23 423.641 1023.65 423.641ZM1067.67 434.94H1023.65C1021.34 434.94 1019.24 435.909 1017.72 437.431L1017.7 437.408L1017.68 437.431C1016.15 438.953 1015.23 441.051 1015.23 443.357V655.349C1015.23 657.54 1016.08 659.569 1017.49 661.068L1017.72 661.276C1019.24 662.798 1021.34 663.743 1023.65 663.743H1067.67C1069.98 663.743 1072.07 662.798 1073.6 661.276C1075.12 659.754 1076.09 657.655 1076.09 655.349V443.357C1076.09 441.167 1075.23 439.137 1073.83 437.638L1073.6 437.431C1072.07 435.909 1069.98 434.94 1067.67 434.94ZM905.692 557.023C905.692 560.159 903.179 562.673 900.042 562.673C896.906 562.673 894.369 560.159 894.369 557.023V538.275C894.369 532.856 896.606 527.944 900.181 524.347H900.158C903.709 520.772 908.667 518.558 914.086 518.558H958.108C963.527 518.558 968.485 520.772 972.037 524.347C972.152 524.462 972.267 524.577 972.383 524.715C975.749 528.267 977.848 533.04 977.848 538.275V597.125C977.848 600.238 975.311 602.775 972.175 602.775C969.039 602.775 966.525 600.238 966.525 597.125V538.275C966.525 536.061 965.672 534.055 964.265 532.556L964.035 532.349C962.513 530.827 960.414 529.858 958.108 529.858H914.086C911.78 529.858 909.682 530.827 908.16 532.349L908.137 532.326L908.114 532.349C906.592 533.871 905.669 535.969 905.669 538.275V557.023L905.692 557.023ZM796.154 600.884C796.154 604.02 793.64 606.534 790.504 606.534C787.368 606.534 784.831 604.02 784.831 600.884V478.736C784.831 473.317 787.068 468.382 790.643 464.807L790.62 464.784C794.171 461.233 799.129 458.996 804.548 458.996H848.57C853.989 458.996 858.947 461.21 862.498 464.784C862.614 464.9 862.729 465.038 862.844 465.153C866.211 468.705 868.31 473.478 868.31 478.736V557.535C868.31 560.671 865.773 563.185 862.637 563.185C859.501 563.185 856.987 560.671 856.987 557.535V478.736C856.987 476.522 856.134 474.493 854.727 473.017L854.497 472.786C852.975 471.264 850.876 470.319 848.57 470.319H804.548C802.242 470.319 800.144 471.264 798.622 472.786H798.576C797.054 474.308 796.131 476.407 796.131 478.736V600.884L796.154 600.884ZM695.034 525.155H739.056C744.475 525.155 749.433 527.368 752.985 530.943C753.1 531.058 753.215 531.196 753.33 531.312C756.697 534.863 758.796 539.637 758.796 544.894V655.353C758.796 660.773 756.582 665.684 753.008 669.259V669.282C749.456 672.833 744.498 675.07 739.079 675.07H695.057C689.638 675.07 684.68 672.856 681.129 669.282C681.013 669.167 680.898 669.028 680.783 668.913C677.416 665.362 675.317 660.588 675.317 655.353V544.894C675.317 539.475 677.554 534.54 681.129 530.966L681.106 530.943C684.657 527.392 689.615 525.155 695.034 525.155ZM739.056 536.454H695.034C692.728 536.454 690.63 537.4 689.108 538.922H689.062C687.54 540.444 686.617 542.542 686.617 544.871V655.33C686.617 657.521 687.47 659.55 688.877 661.049L689.108 661.257C690.63 662.779 692.728 663.724 695.034 663.724H739.056C741.362 663.724 743.461 662.779 744.982 661.257L745.006 661.28L745.029 661.257C746.551 659.735 747.473 657.636 747.473 655.33V544.871C747.473 542.658 746.62 540.628 745.213 539.152L744.982 538.922C743.461 537.4 741.362 536.454 739.056 536.454ZM893.378 731.132C890.656 732.654 887.22 731.685 885.675 728.964C884.153 726.243 885.122 722.807 887.843 721.285L927.507 698.986V653.557C927.507 650.421 930.044 647.884 933.18 647.884C936.316 647.884 938.83 650.421 938.83 653.557V699.678C938.83 701.523 938.368 703.275 937.469 704.797H937.446C936.547 706.342 935.255 707.611 933.641 708.51L893.378 731.155L893.378 731.132ZM836.788 647.262L876.152 666.932C877.72 667.716 878.988 668.892 879.888 670.322C880.787 671.775 881.271 673.435 881.271 675.164V725.759C881.271 727.096 880.925 728.341 880.303 729.448C879.657 730.555 878.735 731.478 877.582 732.169C876.429 732.838 875.183 733.184 873.892 733.184C872.601 733.207 871.332 732.884 870.202 732.239L829.916 709.617C828.325 708.717 827.034 707.426 826.134 705.904C825.235 704.359 824.751 702.606 824.751 700.785V654.664C824.751 653.234 825.12 651.851 825.811 650.605C826.503 649.383 827.472 648.346 828.717 647.585C829.962 646.823 831.323 646.408 832.707 646.339C834.113 646.27 835.52 646.547 836.788 647.192L836.788 647.262Z" stroke="#8D8D8E" stroke-width="6" mask="url(#path-3-outside-1_45_1809)"/>
</svg>
