<svg width="1728" height="1117" viewBox="0 0 1728 1117" fill="none" xmlns="http://www.w3.org/2000/svg">
<rect width="1728" height="1117" fill="#F5F8F9"/>
<rect x="0.5" y="0.5" width="1727" height="1116" stroke="black" stroke-opacity="0.25"/>
<mask id="path-3-outside-1_45_1887" maskUnits="userSpaceOnUse" x="600" y="295" width="528" height="528" fill="black">
<rect fill="white" x="600" y="295" width="528" height="528"/>
<path d="M1106.64 605.336H1003.55C998.939 605.336 994.518 607.163 991.253 610.418C987.988 613.672 986.147 618.088 986.133 622.698V637.13H876.045C873.758 637.123 871.492 637.567 869.376 638.435C867.26 639.304 865.336 640.581 863.714 642.193C862.092 643.805 860.803 645.721 859.921 647.832C859.039 649.942 858.581 652.205 858.574 654.492V668.979H748.704C744.103 668.993 739.695 670.827 736.443 674.08C733.19 677.333 731.356 681.741 731.341 686.341V700.828H621.362C616.758 700.828 612.341 702.657 609.085 705.913C605.829 709.169 604 713.586 604 718.19V807.66C604.014 810.663 605.214 813.539 607.337 815.663C609.461 817.786 612.337 818.986 615.34 819H1112.66C1115.66 818.986 1118.54 817.786 1120.66 815.663C1122.79 813.539 1123.99 810.663 1124 807.66V622.698C1124 618.093 1122.17 613.677 1118.91 610.421C1115.66 607.165 1111.24 605.336 1106.64 605.336ZM748.541 679.614H858.574V808.583H741.976V686.341C741.976 684.557 742.685 682.846 743.946 681.584C745.208 680.322 746.919 679.614 748.704 679.614H748.541ZM614.417 807.66V718.19C614.417 717.288 614.598 716.395 614.949 715.565C615.301 714.734 615.816 713.982 616.464 713.355C617.112 712.727 617.879 712.236 618.721 711.911C619.562 711.586 620.461 711.433 621.362 711.462H731.341V808.583H615.34C615.212 808.615 615.079 808.613 614.952 808.578C614.825 808.543 614.71 808.476 614.617 808.383C614.524 808.29 614.457 808.175 614.422 808.048C614.387 807.921 614.385 807.788 614.417 807.66ZM869.426 808.583V654.492C869.44 652.713 870.153 651.009 871.412 649.751C872.671 648.492 874.374 647.779 876.154 647.765H986.024V808.583H869.426ZM1113.58 807.823C1113.58 808.025 1113.5 808.218 1113.36 808.36C1113.22 808.503 1113.02 808.583 1112.82 808.583H996.659V622.698C996.659 620.899 997.373 619.174 998.645 617.902C999.917 616.63 1001.64 615.916 1003.44 615.916H1106.53C1107.44 615.879 1108.35 616.028 1109.21 616.352C1110.06 616.676 1110.84 617.17 1111.5 617.804C1112.16 618.437 1112.68 619.197 1113.04 620.038C1113.4 620.879 1113.58 621.784 1113.58 622.698V807.823ZM755.486 431.659C761.712 431.669 767.802 429.833 772.984 426.381C778.166 422.93 782.208 418.019 784.598 412.27C786.988 406.521 787.619 400.191 786.411 394.083C785.203 387.976 782.21 382.363 777.811 377.957C773.412 373.55 767.805 370.548 761.699 369.329C755.593 368.11 749.263 368.73 743.51 371.111C737.757 373.491 732.839 377.524 729.378 382.701C725.918 387.877 724.071 393.963 724.071 400.189C724.071 408.526 727.379 416.522 733.269 422.422C739.159 428.322 747.149 431.644 755.486 431.659ZM755.486 379.355C759.607 379.355 763.635 380.577 767.061 382.866C770.487 385.155 773.158 388.409 774.735 392.216C776.312 396.023 776.724 400.213 775.92 404.254C775.116 408.296 773.132 412.008 770.218 414.922C767.304 417.836 763.592 419.82 759.55 420.624C755.509 421.428 751.32 421.015 747.513 419.438C743.706 417.861 740.452 415.191 738.162 411.765C735.873 408.338 734.651 404.31 734.651 400.189C734.651 394.664 736.846 389.364 740.753 385.457C744.661 381.55 749.96 379.355 755.486 379.355ZM663.737 668.654C668.448 672.475 674.328 674.562 680.394 674.568C681.316 674.622 682.24 674.622 683.161 674.568C686.674 674.234 690.083 673.198 693.187 671.52C696.291 669.842 699.026 667.557 701.229 664.801L738.178 618.683C741.903 614.065 743.984 608.338 744.092 602.406L744.58 573.649L772.251 592.965L776.755 637.184C776.728 637.473 776.728 637.764 776.755 638.053C777.626 641.454 779.17 644.646 781.295 647.442C783.419 650.237 786.082 652.579 789.125 654.33C793.123 656.675 797.675 657.912 802.31 657.911C804.639 657.928 806.958 657.618 809.2 656.988C815.925 655.189 821.673 650.819 825.205 644.82C828.737 638.822 829.77 631.676 828.082 624.922L821.408 571.208C821.433 570.973 821.433 570.737 821.408 570.503C819.806 564.484 816.113 559.233 810.991 555.69L767.097 525.089L775.398 486.295H831.446C834.473 486.332 837.475 485.754 840.273 484.598C843.071 483.442 845.605 481.73 847.723 479.568C850.186 477.075 852.042 474.049 853.149 470.724C854.923 471.165 856.746 471.383 858.574 471.375C860.408 471.352 862.231 471.097 864 470.615L908.274 458.733V494.705C908.277 498.492 909.093 502.233 910.665 505.678C912.237 509.122 914.53 512.189 917.389 514.672L916.846 544.785L885.703 583.524C883.473 586.217 881.798 589.325 880.775 592.668C879.753 596.012 879.402 599.524 879.745 603.004C880.087 606.483 881.115 609.861 882.769 612.941C884.423 616.021 886.671 618.743 889.383 620.95C892.095 623.157 895.217 624.804 898.569 625.798C901.921 626.792 905.437 627.112 908.913 626.74C912.39 626.368 915.758 625.311 918.824 623.63C921.89 621.949 924.592 619.677 926.775 616.947L963.942 571.099C967.693 566.496 969.777 560.76 969.856 554.822L970.235 534.15L989.225 542.723L1001.49 578.587C1002.53 582.966 1004.74 586.984 1007.87 590.22C1011 593.455 1014.94 595.79 1019.28 596.98C1024.05 598.215 1029.05 598.195 1033.81 596.921C1038.56 595.646 1042.9 593.162 1046.41 589.71C1049.65 586.461 1051.95 582.39 1053.05 577.935C1054.15 573.48 1054.01 568.809 1052.65 564.426C1052.65 564.426 1052.65 564.426 1052.65 564.1L1036.97 516.191C1035.93 512.378 1034.04 508.848 1031.45 505.862C1028.85 502.876 1025.62 500.51 1022 498.937L983.366 481.575V452.059H1028.62C1034.01 452.076 1039.22 450.154 1043.31 446.644C1047.4 443.135 1050.09 438.272 1050.9 432.942C1051.7 427.613 1050.56 422.173 1047.68 417.614C1044.81 413.056 1040.39 409.683 1035.24 408.111V357.435H1091.88C1093.28 357.426 1094.64 357.018 1095.82 356.259C1096.99 355.499 1097.92 354.42 1098.5 353.149C1099.08 351.88 1099.27 350.469 1099.06 349.091C1098.85 347.713 1098.24 346.426 1097.31 345.39L1082.33 328.028L1097.31 311.045C1098.22 309.997 1098.81 308.708 1099.02 307.333C1099.22 305.957 1099.02 304.552 1098.45 303.284C1097.88 302.016 1096.96 300.939 1095.79 300.18C1094.63 299.42 1093.27 299.011 1091.88 299H1029.97C1028.53 299 1027.15 299.572 1026.14 300.589C1025.12 301.607 1024.55 302.987 1024.55 304.426V407.08H929.76C927.144 407.071 924.55 407.549 922.109 408.491L852.606 427.21C849.743 427.953 847.058 429.263 844.71 431.061C842.361 432.86 840.397 435.111 838.933 437.681C838.136 439.05 837.499 440.507 837.034 442.022C835.258 441.587 833.437 441.369 831.609 441.371H728.357C720.684 441.345 713.232 443.939 707.233 448.724C701.235 453.509 697.049 460.198 695.369 467.685L683.324 520.477C682.126 525.37 682.314 530.498 683.867 535.29C685.419 540.081 688.275 544.346 692.114 547.606L691.354 592.748L659.939 631.487C655.557 636.937 653.499 643.894 654.209 650.85C654.92 657.807 658.343 664.203 663.737 668.654ZM1035.29 309.417H1084.12L1073.05 322.385C1071.7 323.952 1070.95 325.955 1070.95 328.028C1070.95 330.1 1071.7 332.103 1073.05 333.67L1084.45 346.801H1035.29V309.417ZM959.33 554.442C959.303 558.089 958.019 561.616 955.695 564.426L918.257 610.219C916.975 611.916 915.363 613.338 913.52 614.399C911.676 615.461 909.637 616.14 907.525 616.396C905.413 616.652 903.271 616.481 901.227 615.891C899.182 615.302 897.278 614.307 895.627 612.965C893.975 611.624 892.611 609.964 891.615 608.083C890.62 606.203 890.013 604.142 889.831 602.022C889.649 599.903 889.896 597.768 890.557 595.746C891.218 593.723 892.28 591.855 893.679 590.252L927.427 548.637L927.861 520.315C930.107 520.925 932.424 521.235 934.751 521.237H940.937L959.438 529.321L959.33 554.442ZM1028.67 417.932C1031.82 417.932 1034.84 419.183 1037.07 421.412C1039.3 423.64 1040.55 426.662 1040.55 429.814C1040.55 432.965 1039.3 435.988 1037.07 438.216C1034.84 440.444 1031.82 441.696 1028.67 441.696H964.593C963.798 441.515 962.973 441.515 962.178 441.697C961.384 441.878 960.641 442.237 960.003 442.745C959.366 443.253 958.852 443.898 958.498 444.632C958.145 445.367 957.961 446.171 957.961 446.986C957.961 447.801 958.145 448.606 958.498 449.34C958.852 450.074 959.366 450.719 960.003 451.228C960.641 451.736 961.384 452.094 962.178 452.276C962.973 452.457 963.798 452.457 964.593 452.276H972.785V485.21C972.799 486.224 973.095 487.213 973.642 488.067C974.188 488.92 974.963 489.604 975.878 490.039L1017.66 508.921C1019.85 509.825 1021.8 511.212 1023.38 512.978C1024.96 514.745 1026.12 516.844 1026.77 519.121C1026.77 519.121 1026.77 519.121 1026.77 519.392L1042.45 567.356C1043.27 569.873 1043.37 572.566 1042.76 575.14C1042.15 577.714 1040.84 580.07 1038.98 581.951C1036.77 584.067 1034.05 585.589 1031.09 586.376C1028.13 587.164 1025.02 587.19 1022.05 586.454C1019.49 585.775 1017.17 584.402 1015.34 582.487C1013.51 580.573 1012.25 578.19 1011.69 575.603C1011.71 575.495 1011.71 575.384 1011.69 575.277L998.612 537.026C998.37 536.334 997.99 535.699 997.496 535.158C997.002 534.617 996.403 534.182 995.736 533.879L944.572 511.417C943.933 511.146 943.255 510.981 942.564 510.928H935.131C930.919 510.914 926.884 509.234 923.906 506.256C920.928 503.278 919.248 499.243 919.234 495.031V428.349C919.234 425.471 920.377 422.711 922.412 420.676C924.447 418.641 927.207 417.498 930.085 417.498L1028.67 417.932ZM855.319 437.464L909.196 423.032C908.729 424.803 908.492 426.626 908.491 428.457V447.773L861.45 460.361C859.947 460.763 858.379 460.866 856.836 460.662C855.293 460.459 853.805 459.954 852.457 459.175C851.109 458.397 849.928 457.36 848.981 456.126C848.033 454.891 847.339 453.481 846.936 451.978C846.534 450.474 846.431 448.907 846.634 447.363C846.838 445.82 847.343 444.333 848.122 442.985C848.9 441.637 849.936 440.456 851.171 439.509C852.406 438.561 853.815 437.867 855.319 437.464ZM693.633 522.811L705.786 470.018C706.897 464.87 709.748 460.263 713.859 456.972C717.971 453.68 723.091 451.907 728.357 451.951H831.446C833.033 451.965 834.601 452.297 836.058 452.927C836.058 453.524 836.058 454.121 836.437 454.718C837.595 458.905 839.93 462.671 843.165 465.569C842.802 468.031 841.662 470.313 839.91 472.08C838.809 473.212 837.493 474.111 836.04 474.726C834.586 475.341 833.024 475.659 831.446 475.661H757.548C756.109 475.661 754.729 476.233 753.711 477.25C752.694 478.268 752.122 479.648 752.122 481.087C752.122 482.526 752.694 483.906 753.711 484.923C754.729 485.941 756.109 486.513 757.548 486.513H764.492L755.92 526.446C755.726 527.463 755.828 528.514 756.212 529.476C756.597 530.437 757.248 531.268 758.09 531.871L804.86 564.426C807.818 566.516 809.995 569.532 811.045 572.998L817.719 626.659C817.693 626.893 817.693 627.13 817.719 627.364C818.708 631.374 818.098 635.611 816.017 639.179C813.937 642.747 810.549 645.365 806.572 646.479C802.595 647.594 798.341 647.116 794.71 645.148C791.079 643.181 788.356 639.877 787.118 635.937L782.614 589.71C782.537 588.947 782.298 588.209 781.915 587.545C781.532 586.881 781.012 586.306 780.39 585.857L736.984 555.799C733.489 553.305 729.651 551.332 725.59 549.939L703.508 542.126C699.775 540.683 696.705 537.916 694.883 534.353C693.062 530.79 692.617 526.681 693.633 522.811ZM668.186 638.107L701.88 596.492L702.639 553.086L722.226 560.031C725.362 561.082 728.338 562.561 731.07 564.426L734.054 566.488L733.457 602.406C733.438 605.969 732.193 609.418 729.931 612.172L692.765 658.019C691.459 659.644 689.844 660.994 688.014 661.992C686.184 662.989 684.174 663.614 682.101 663.831C680.028 664.048 677.932 663.852 675.935 663.255C673.938 662.658 672.079 661.672 670.465 660.352C667.22 657.7 665.158 653.87 664.731 649.7C664.304 645.531 665.546 641.362 668.186 638.107ZM946.145 395.74C952.369 395.74 958.453 393.895 963.629 390.437C968.804 386.979 972.837 382.064 975.219 376.314C977.601 370.564 978.224 364.236 977.01 358.132C975.795 352.028 972.798 346.42 968.397 342.019C963.996 337.618 958.389 334.621 952.285 333.407C946.18 332.193 939.853 332.816 934.103 335.198C928.352 337.579 923.437 341.613 919.98 346.788C916.522 351.963 914.676 358.047 914.676 364.271C914.69 372.613 918.011 380.609 923.909 386.507C929.808 392.406 937.804 395.726 946.145 395.74ZM946.145 343.437C950.266 343.437 954.294 344.658 957.72 346.948C961.147 349.237 963.817 352.491 965.394 356.298C966.971 360.105 967.384 364.294 966.58 368.336C965.776 372.377 963.791 376.09 960.878 379.004C957.964 381.917 954.251 383.902 950.21 384.706C946.168 385.51 941.979 385.097 938.172 383.52C934.365 381.943 931.111 379.273 928.822 375.846C926.532 372.42 925.311 368.392 925.311 364.271C925.311 358.746 927.506 353.446 931.413 349.539C935.32 345.632 940.62 343.437 946.145 343.437Z"/>
</mask>
<path d="M1106.64 605.336H1003.55C998.939 605.336 994.518 607.163 991.253 610.418C987.988 613.672 986.147 618.088 986.133 622.698V637.13H876.045C873.758 637.123 871.492 637.567 869.376 638.435C867.26 639.304 865.336 640.581 863.714 642.193C862.092 643.805 860.803 645.721 859.921 647.832C859.039 649.942 858.581 652.205 858.574 654.492V668.979H748.704C744.103 668.993 739.695 670.827 736.443 674.08C733.19 677.333 731.356 681.741 731.341 686.341V700.828H621.362C616.758 700.828 612.341 702.657 609.085 705.913C605.829 709.169 604 713.586 604 718.19V807.66C604.014 810.663 605.214 813.539 607.337 815.663C609.461 817.786 612.337 818.986 615.34 819H1112.66C1115.66 818.986 1118.54 817.786 1120.66 815.663C1122.79 813.539 1123.99 810.663 1124 807.66V622.698C1124 618.093 1122.17 613.677 1118.91 610.421C1115.66 607.165 1111.24 605.336 1106.64 605.336ZM748.541 679.614H858.574V808.583H741.976V686.341C741.976 684.557 742.685 682.846 743.946 681.584C745.208 680.322 746.919 679.614 748.704 679.614H748.541ZM614.417 807.66V718.19C614.417 717.288 614.598 716.395 614.949 715.565C615.301 714.734 615.816 713.982 616.464 713.355C617.112 712.727 617.879 712.236 618.721 711.911C619.562 711.586 620.461 711.433 621.362 711.462H731.341V808.583H615.34C615.212 808.615 615.079 808.613 614.952 808.578C614.825 808.543 614.71 808.476 614.617 808.383C614.524 808.29 614.457 808.175 614.422 808.048C614.387 807.921 614.385 807.788 614.417 807.66ZM869.426 808.583V654.492C869.44 652.713 870.153 651.009 871.412 649.751C872.671 648.492 874.374 647.779 876.154 647.765H986.024V808.583H869.426ZM1113.58 807.823C1113.58 808.025 1113.5 808.218 1113.36 808.36C1113.22 808.503 1113.02 808.583 1112.82 808.583H996.659V622.698C996.659 620.899 997.373 619.174 998.645 617.902C999.917 616.63 1001.64 615.916 1003.44 615.916H1106.53C1107.44 615.879 1108.35 616.028 1109.21 616.352C1110.06 616.676 1110.84 617.17 1111.5 617.804C1112.16 618.437 1112.68 619.197 1113.04 620.038C1113.4 620.879 1113.58 621.784 1113.58 622.698V807.823ZM755.486 431.659C761.712 431.669 767.802 429.833 772.984 426.381C778.166 422.93 782.208 418.019 784.598 412.27C786.988 406.521 787.619 400.191 786.411 394.083C785.203 387.976 782.21 382.363 777.811 377.957C773.412 373.55 767.805 370.548 761.699 369.329C755.593 368.11 749.263 368.73 743.51 371.111C737.757 373.491 732.839 377.524 729.378 382.701C725.918 387.877 724.071 393.963 724.071 400.189C724.071 408.526 727.379 416.522 733.269 422.422C739.159 428.322 747.149 431.644 755.486 431.659ZM755.486 379.355C759.607 379.355 763.635 380.577 767.061 382.866C770.487 385.155 773.158 388.409 774.735 392.216C776.312 396.023 776.724 400.213 775.92 404.254C775.116 408.296 773.132 412.008 770.218 414.922C767.304 417.836 763.592 419.82 759.55 420.624C755.509 421.428 751.32 421.015 747.513 419.438C743.706 417.861 740.452 415.191 738.162 411.765C735.873 408.338 734.651 404.31 734.651 400.189C734.651 394.664 736.846 389.364 740.753 385.457C744.661 381.55 749.96 379.355 755.486 379.355ZM663.737 668.654C668.448 672.475 674.328 674.562 680.394 674.568C681.316 674.622 682.24 674.622 683.161 674.568C686.674 674.234 690.083 673.198 693.187 671.52C696.291 669.842 699.026 667.557 701.229 664.801L738.178 618.683C741.903 614.065 743.984 608.338 744.092 602.406L744.58 573.649L772.251 592.965L776.755 637.184C776.728 637.473 776.728 637.764 776.755 638.053C777.626 641.454 779.17 644.646 781.295 647.442C783.419 650.237 786.082 652.579 789.125 654.33C793.123 656.675 797.675 657.912 802.31 657.911C804.639 657.928 806.958 657.618 809.2 656.988C815.925 655.189 821.673 650.819 825.205 644.82C828.737 638.822 829.77 631.676 828.082 624.922L821.408 571.208C821.433 570.973 821.433 570.737 821.408 570.503C819.806 564.484 816.113 559.233 810.991 555.69L767.097 525.089L775.398 486.295H831.446C834.473 486.332 837.475 485.754 840.273 484.598C843.071 483.442 845.605 481.73 847.723 479.568C850.186 477.075 852.042 474.049 853.149 470.724C854.923 471.165 856.746 471.383 858.574 471.375C860.408 471.352 862.231 471.097 864 470.615L908.274 458.733V494.705C908.277 498.492 909.093 502.233 910.665 505.678C912.237 509.122 914.53 512.189 917.389 514.672L916.846 544.785L885.703 583.524C883.473 586.217 881.798 589.325 880.775 592.668C879.753 596.012 879.402 599.524 879.745 603.004C880.087 606.483 881.115 609.861 882.769 612.941C884.423 616.021 886.671 618.743 889.383 620.95C892.095 623.157 895.217 624.804 898.569 625.798C901.921 626.792 905.437 627.112 908.913 626.74C912.39 626.368 915.758 625.311 918.824 623.63C921.89 621.949 924.592 619.677 926.775 616.947L963.942 571.099C967.693 566.496 969.777 560.76 969.856 554.822L970.235 534.15L989.225 542.723L1001.49 578.587C1002.53 582.966 1004.74 586.984 1007.87 590.22C1011 593.455 1014.94 595.79 1019.28 596.98C1024.05 598.215 1029.05 598.195 1033.81 596.921C1038.56 595.646 1042.9 593.162 1046.41 589.71C1049.65 586.461 1051.95 582.39 1053.05 577.935C1054.15 573.48 1054.01 568.809 1052.65 564.426C1052.65 564.426 1052.65 564.426 1052.65 564.1L1036.97 516.191C1035.93 512.378 1034.04 508.848 1031.45 505.862C1028.85 502.876 1025.62 500.51 1022 498.937L983.366 481.575V452.059H1028.62C1034.01 452.076 1039.22 450.154 1043.31 446.644C1047.4 443.135 1050.09 438.272 1050.9 432.942C1051.7 427.613 1050.56 422.173 1047.68 417.614C1044.81 413.056 1040.39 409.683 1035.24 408.111V357.435H1091.88C1093.28 357.426 1094.64 357.018 1095.82 356.259C1096.99 355.499 1097.92 354.42 1098.5 353.149C1099.08 351.88 1099.27 350.469 1099.06 349.091C1098.85 347.713 1098.24 346.426 1097.31 345.39L1082.33 328.028L1097.31 311.045C1098.22 309.997 1098.81 308.708 1099.02 307.333C1099.22 305.957 1099.02 304.552 1098.45 303.284C1097.88 302.016 1096.96 300.939 1095.79 300.18C1094.63 299.42 1093.27 299.011 1091.88 299H1029.97C1028.53 299 1027.15 299.572 1026.14 300.589C1025.12 301.607 1024.55 302.987 1024.55 304.426V407.08H929.76C927.144 407.071 924.55 407.549 922.109 408.491L852.606 427.21C849.743 427.953 847.058 429.263 844.71 431.061C842.361 432.86 840.397 435.111 838.933 437.681C838.136 439.05 837.499 440.507 837.034 442.022C835.258 441.587 833.437 441.369 831.609 441.371H728.357C720.684 441.345 713.232 443.939 707.233 448.724C701.235 453.509 697.049 460.198 695.369 467.685L683.324 520.477C682.126 525.37 682.314 530.498 683.867 535.29C685.419 540.081 688.275 544.346 692.114 547.606L691.354 592.748L659.939 631.487C655.557 636.937 653.499 643.894 654.209 650.85C654.92 657.807 658.343 664.203 663.737 668.654ZM1035.29 309.417H1084.12L1073.05 322.385C1071.7 323.952 1070.95 325.955 1070.95 328.028C1070.95 330.1 1071.7 332.103 1073.05 333.67L1084.45 346.801H1035.29V309.417ZM959.33 554.442C959.303 558.089 958.019 561.616 955.695 564.426L918.257 610.219C916.975 611.916 915.363 613.338 913.52 614.399C911.676 615.461 909.637 616.14 907.525 616.396C905.413 616.652 903.271 616.481 901.227 615.891C899.182 615.302 897.278 614.307 895.627 612.965C893.975 611.624 892.611 609.964 891.615 608.083C890.62 606.203 890.013 604.142 889.831 602.022C889.649 599.903 889.896 597.768 890.557 595.746C891.218 593.723 892.28 591.855 893.679 590.252L927.427 548.637L927.861 520.315C930.107 520.925 932.424 521.235 934.751 521.237H940.937L959.438 529.321L959.33 554.442ZM1028.67 417.932C1031.82 417.932 1034.84 419.183 1037.07 421.412C1039.3 423.64 1040.55 426.662 1040.55 429.814C1040.55 432.965 1039.3 435.988 1037.07 438.216C1034.84 440.444 1031.82 441.696 1028.67 441.696H964.593C963.798 441.515 962.973 441.515 962.178 441.697C961.384 441.878 960.641 442.237 960.003 442.745C959.366 443.253 958.852 443.898 958.498 444.632C958.145 445.367 957.961 446.171 957.961 446.986C957.961 447.801 958.145 448.606 958.498 449.34C958.852 450.074 959.366 450.719 960.003 451.228C960.641 451.736 961.384 452.094 962.178 452.276C962.973 452.457 963.798 452.457 964.593 452.276H972.785V485.21C972.799 486.224 973.095 487.213 973.642 488.067C974.188 488.92 974.963 489.604 975.878 490.039L1017.66 508.921C1019.85 509.825 1021.8 511.212 1023.38 512.978C1024.96 514.745 1026.12 516.844 1026.77 519.121C1026.77 519.121 1026.77 519.121 1026.77 519.392L1042.45 567.356C1043.27 569.873 1043.37 572.566 1042.76 575.14C1042.15 577.714 1040.84 580.07 1038.98 581.951C1036.77 584.067 1034.05 585.589 1031.09 586.376C1028.13 587.164 1025.02 587.19 1022.05 586.454C1019.49 585.775 1017.17 584.402 1015.34 582.487C1013.51 580.573 1012.25 578.19 1011.69 575.603C1011.71 575.495 1011.71 575.384 1011.69 575.277L998.612 537.026C998.37 536.334 997.99 535.699 997.496 535.158C997.002 534.617 996.403 534.182 995.736 533.879L944.572 511.417C943.933 511.146 943.255 510.981 942.564 510.928H935.131C930.919 510.914 926.884 509.234 923.906 506.256C920.928 503.278 919.248 499.243 919.234 495.031V428.349C919.234 425.471 920.377 422.711 922.412 420.676C924.447 418.641 927.207 417.498 930.085 417.498L1028.67 417.932ZM855.319 437.464L909.196 423.032C908.729 424.803 908.492 426.626 908.491 428.457V447.773L861.45 460.361C859.947 460.763 858.379 460.866 856.836 460.662C855.293 460.459 853.805 459.954 852.457 459.175C851.109 458.397 849.928 457.36 848.981 456.126C848.033 454.891 847.339 453.481 846.936 451.978C846.534 450.474 846.431 448.907 846.634 447.363C846.838 445.82 847.343 444.333 848.122 442.985C848.9 441.637 849.936 440.456 851.171 439.509C852.406 438.561 853.815 437.867 855.319 437.464ZM693.633 522.811L705.786 470.018C706.897 464.87 709.748 460.263 713.859 456.972C717.971 453.68 723.091 451.907 728.357 451.951H831.446C833.033 451.965 834.601 452.297 836.058 452.927C836.058 453.524 836.058 454.121 836.437 454.718C837.595 458.905 839.93 462.671 843.165 465.569C842.802 468.031 841.662 470.313 839.91 472.08C838.809 473.212 837.493 474.111 836.04 474.726C834.586 475.341 833.024 475.659 831.446 475.661H757.548C756.109 475.661 754.729 476.233 753.711 477.25C752.694 478.268 752.122 479.648 752.122 481.087C752.122 482.526 752.694 483.906 753.711 484.923C754.729 485.941 756.109 486.513 757.548 486.513H764.492L755.92 526.446C755.726 527.463 755.828 528.514 756.212 529.476C756.597 530.437 757.248 531.268 758.09 531.871L804.86 564.426C807.818 566.516 809.995 569.532 811.045 572.998L817.719 626.659C817.693 626.893 817.693 627.13 817.719 627.364C818.708 631.374 818.098 635.611 816.017 639.179C813.937 642.747 810.549 645.365 806.572 646.479C802.595 647.594 798.341 647.116 794.71 645.148C791.079 643.181 788.356 639.877 787.118 635.937L782.614 589.71C782.537 588.947 782.298 588.209 781.915 587.545C781.532 586.881 781.012 586.306 780.39 585.857L736.984 555.799C733.489 553.305 729.651 551.332 725.59 549.939L703.508 542.126C699.775 540.683 696.705 537.916 694.883 534.353C693.062 530.79 692.617 526.681 693.633 522.811ZM668.186 638.107L701.88 596.492L702.639 553.086L722.226 560.031C725.362 561.082 728.338 562.561 731.07 564.426L734.054 566.488L733.457 602.406C733.438 605.969 732.193 609.418 729.931 612.172L692.765 658.019C691.459 659.644 689.844 660.994 688.014 661.992C686.184 662.989 684.174 663.614 682.101 663.831C680.028 664.048 677.932 663.852 675.935 663.255C673.938 662.658 672.079 661.672 670.465 660.352C667.22 657.7 665.158 653.87 664.731 649.7C664.304 645.531 665.546 641.362 668.186 638.107ZM946.145 395.74C952.369 395.74 958.453 393.895 963.629 390.437C968.804 386.979 972.837 382.064 975.219 376.314C977.601 370.564 978.224 364.236 977.01 358.132C975.795 352.028 972.798 346.42 968.397 342.019C963.996 337.618 958.389 334.621 952.285 333.407C946.18 332.193 939.853 332.816 934.103 335.198C928.352 337.579 923.437 341.613 919.98 346.788C916.522 351.963 914.676 358.047 914.676 364.271C914.69 372.613 918.011 380.609 923.909 386.507C929.808 392.406 937.804 395.726 946.145 395.74ZM946.145 343.437C950.266 343.437 954.294 344.658 957.72 346.948C961.147 349.237 963.817 352.491 965.394 356.298C966.971 360.105 967.384 364.294 966.58 368.336C965.776 372.377 963.791 376.09 960.878 379.004C957.964 381.917 954.251 383.902 950.21 384.706C946.168 385.51 941.979 385.097 938.172 383.52C934.365 381.943 931.111 379.273 928.822 375.846C926.532 372.42 925.311 368.392 925.311 364.271C925.311 358.746 927.506 353.446 931.413 349.539C935.32 345.632 940.62 343.437 946.145 343.437Z" fill="#252B33" fill-opacity="0.75"/>
<path d="M1106.64 605.336H1003.55C998.939 605.336 994.518 607.163 991.253 610.418C987.988 613.672 986.147 618.088 986.133 622.698V637.13H876.045C873.758 637.123 871.492 637.567 869.376 638.435C867.26 639.304 865.336 640.581 863.714 642.193C862.092 643.805 860.803 645.721 859.921 647.832C859.039 649.942 858.581 652.205 858.574 654.492V668.979H748.704C744.103 668.993 739.695 670.827 736.443 674.08C733.19 677.333 731.356 681.741 731.341 686.341V700.828H621.362C616.758 700.828 612.341 702.657 609.085 705.913C605.829 709.169 604 713.586 604 718.19V807.66C604.014 810.663 605.214 813.539 607.337 815.663C609.461 817.786 612.337 818.986 615.34 819H1112.66C1115.66 818.986 1118.54 817.786 1120.66 815.663C1122.79 813.539 1123.99 810.663 1124 807.66V622.698C1124 618.093 1122.17 613.677 1118.91 610.421C1115.66 607.165 1111.24 605.336 1106.64 605.336ZM748.541 679.614H858.574V808.583H741.976V686.341C741.976 684.557 742.685 682.846 743.946 681.584C745.208 680.322 746.919 679.614 748.704 679.614H748.541ZM614.417 807.66V718.19C614.417 717.288 614.598 716.395 614.949 715.565C615.301 714.734 615.816 713.982 616.464 713.355C617.112 712.727 617.879 712.236 618.721 711.911C619.562 711.586 620.461 711.433 621.362 711.462H731.341V808.583H615.34C615.212 808.615 615.079 808.613 614.952 808.578C614.825 808.543 614.71 808.476 614.617 808.383C614.524 808.29 614.457 808.175 614.422 808.048C614.387 807.921 614.385 807.788 614.417 807.66ZM869.426 808.583V654.492C869.44 652.713 870.153 651.009 871.412 649.751C872.671 648.492 874.374 647.779 876.154 647.765H986.024V808.583H869.426ZM1113.58 807.823C1113.58 808.025 1113.5 808.218 1113.36 808.36C1113.22 808.503 1113.02 808.583 1112.82 808.583H996.659V622.698C996.659 620.899 997.373 619.174 998.645 617.902C999.917 616.63 1001.64 615.916 1003.44 615.916H1106.53C1107.44 615.879 1108.35 616.028 1109.21 616.352C1110.06 616.676 1110.84 617.17 1111.5 617.804C1112.16 618.437 1112.68 619.197 1113.04 620.038C1113.4 620.879 1113.58 621.784 1113.58 622.698V807.823ZM755.486 431.659C761.712 431.669 767.802 429.833 772.984 426.381C778.166 422.93 782.208 418.019 784.598 412.27C786.988 406.521 787.619 400.191 786.411 394.083C785.203 387.976 782.21 382.363 777.811 377.957C773.412 373.55 767.805 370.548 761.699 369.329C755.593 368.11 749.263 368.73 743.51 371.111C737.757 373.491 732.839 377.524 729.378 382.701C725.918 387.877 724.071 393.963 724.071 400.189C724.071 408.526 727.379 416.522 733.269 422.422C739.159 428.322 747.149 431.644 755.486 431.659ZM755.486 379.355C759.607 379.355 763.635 380.577 767.061 382.866C770.487 385.155 773.158 388.409 774.735 392.216C776.312 396.023 776.724 400.213 775.92 404.254C775.116 408.296 773.132 412.008 770.218 414.922C767.304 417.836 763.592 419.82 759.55 420.624C755.509 421.428 751.32 421.015 747.513 419.438C743.706 417.861 740.452 415.191 738.162 411.765C735.873 408.338 734.651 404.31 734.651 400.189C734.651 394.664 736.846 389.364 740.753 385.457C744.661 381.55 749.96 379.355 755.486 379.355ZM663.737 668.654C668.448 672.475 674.328 674.562 680.394 674.568C681.316 674.622 682.24 674.622 683.161 674.568C686.674 674.234 690.083 673.198 693.187 671.52C696.291 669.842 699.026 667.557 701.229 664.801L738.178 618.683C741.903 614.065 743.984 608.338 744.092 602.406L744.58 573.649L772.251 592.965L776.755 637.184C776.728 637.473 776.728 637.764 776.755 638.053C777.626 641.454 779.17 644.646 781.295 647.442C783.419 650.237 786.082 652.579 789.125 654.33C793.123 656.675 797.675 657.912 802.31 657.911C804.639 657.928 806.958 657.618 809.2 656.988C815.925 655.189 821.673 650.819 825.205 644.82C828.737 638.822 829.77 631.676 828.082 624.922L821.408 571.208C821.433 570.973 821.433 570.737 821.408 570.503C819.806 564.484 816.113 559.233 810.991 555.69L767.097 525.089L775.398 486.295H831.446C834.473 486.332 837.475 485.754 840.273 484.598C843.071 483.442 845.605 481.73 847.723 479.568C850.186 477.075 852.042 474.049 853.149 470.724C854.923 471.165 856.746 471.383 858.574 471.375C860.408 471.352 862.231 471.097 864 470.615L908.274 458.733V494.705C908.277 498.492 909.093 502.233 910.665 505.678C912.237 509.122 914.53 512.189 917.389 514.672L916.846 544.785L885.703 583.524C883.473 586.217 881.798 589.325 880.775 592.668C879.753 596.012 879.402 599.524 879.745 603.004C880.087 606.483 881.115 609.861 882.769 612.941C884.423 616.021 886.671 618.743 889.383 620.95C892.095 623.157 895.217 624.804 898.569 625.798C901.921 626.792 905.437 627.112 908.913 626.74C912.39 626.368 915.758 625.311 918.824 623.63C921.89 621.949 924.592 619.677 926.775 616.947L963.942 571.099C967.693 566.496 969.777 560.76 969.856 554.822L970.235 534.15L989.225 542.723L1001.49 578.587C1002.53 582.966 1004.74 586.984 1007.87 590.22C1011 593.455 1014.94 595.79 1019.28 596.98C1024.05 598.215 1029.05 598.195 1033.81 596.921C1038.56 595.646 1042.9 593.162 1046.41 589.71C1049.65 586.461 1051.95 582.39 1053.05 577.935C1054.15 573.48 1054.01 568.809 1052.65 564.426C1052.65 564.426 1052.65 564.426 1052.65 564.1L1036.97 516.191C1035.93 512.378 1034.04 508.848 1031.45 505.862C1028.85 502.876 1025.62 500.51 1022 498.937L983.366 481.575V452.059H1028.62C1034.01 452.076 1039.22 450.154 1043.31 446.644C1047.4 443.135 1050.09 438.272 1050.9 432.942C1051.7 427.613 1050.56 422.173 1047.68 417.614C1044.81 413.056 1040.39 409.683 1035.24 408.111V357.435H1091.88C1093.28 357.426 1094.64 357.018 1095.82 356.259C1096.99 355.499 1097.92 354.42 1098.5 353.149C1099.08 351.88 1099.27 350.469 1099.06 349.091C1098.85 347.713 1098.24 346.426 1097.31 345.39L1082.33 328.028L1097.31 311.045C1098.22 309.997 1098.81 308.708 1099.02 307.333C1099.22 305.957 1099.02 304.552 1098.45 303.284C1097.88 302.016 1096.96 300.939 1095.79 300.18C1094.63 299.42 1093.27 299.011 1091.88 299H1029.97C1028.53 299 1027.15 299.572 1026.14 300.589C1025.12 301.607 1024.55 302.987 1024.55 304.426V407.08H929.76C927.144 407.071 924.55 407.549 922.109 408.491L852.606 427.21C849.743 427.953 847.058 429.263 844.71 431.061C842.361 432.86 840.397 435.111 838.933 437.681C838.136 439.05 837.499 440.507 837.034 442.022C835.258 441.587 833.437 441.369 831.609 441.371H728.357C720.684 441.345 713.232 443.939 707.233 448.724C701.235 453.509 697.049 460.198 695.369 467.685L683.324 520.477C682.126 525.37 682.314 530.498 683.867 535.29C685.419 540.081 688.275 544.346 692.114 547.606L691.354 592.748L659.939 631.487C655.557 636.937 653.499 643.894 654.209 650.85C654.92 657.807 658.343 664.203 663.737 668.654ZM1035.29 309.417H1084.12L1073.05 322.385C1071.7 323.952 1070.95 325.955 1070.95 328.028C1070.95 330.1 1071.7 332.103 1073.05 333.67L1084.45 346.801H1035.29V309.417ZM959.33 554.442C959.303 558.089 958.019 561.616 955.695 564.426L918.257 610.219C916.975 611.916 915.363 613.338 913.52 614.399C911.676 615.461 909.637 616.14 907.525 616.396C905.413 616.652 903.271 616.481 901.227 615.891C899.182 615.302 897.278 614.307 895.627 612.965C893.975 611.624 892.611 609.964 891.615 608.083C890.62 606.203 890.013 604.142 889.831 602.022C889.649 599.903 889.896 597.768 890.557 595.746C891.218 593.723 892.28 591.855 893.679 590.252L927.427 548.637L927.861 520.315C930.107 520.925 932.424 521.235 934.751 521.237H940.937L959.438 529.321L959.33 554.442ZM1028.67 417.932C1031.82 417.932 1034.84 419.183 1037.07 421.412C1039.3 423.64 1040.55 426.662 1040.55 429.814C1040.55 432.965 1039.3 435.988 1037.07 438.216C1034.84 440.444 1031.82 441.696 1028.67 441.696H964.593C963.798 441.515 962.973 441.515 962.178 441.697C961.384 441.878 960.641 442.237 960.003 442.745C959.366 443.253 958.852 443.898 958.498 444.632C958.145 445.367 957.961 446.171 957.961 446.986C957.961 447.801 958.145 448.606 958.498 449.34C958.852 450.074 959.366 450.719 960.003 451.228C960.641 451.736 961.384 452.094 962.178 452.276C962.973 452.457 963.798 452.457 964.593 452.276H972.785V485.21C972.799 486.224 973.095 487.213 973.642 488.067C974.188 488.92 974.963 489.604 975.878 490.039L1017.66 508.921C1019.85 509.825 1021.8 511.212 1023.38 512.978C1024.96 514.745 1026.12 516.844 1026.77 519.121C1026.77 519.121 1026.77 519.121 1026.77 519.392L1042.45 567.356C1043.27 569.873 1043.37 572.566 1042.76 575.14C1042.15 577.714 1040.84 580.07 1038.98 581.951C1036.77 584.067 1034.05 585.589 1031.09 586.376C1028.13 587.164 1025.02 587.19 1022.05 586.454C1019.49 585.775 1017.17 584.402 1015.34 582.487C1013.51 580.573 1012.25 578.19 1011.69 575.603C1011.71 575.495 1011.71 575.384 1011.69 575.277L998.612 537.026C998.37 536.334 997.99 535.699 997.496 535.158C997.002 534.617 996.403 534.182 995.736 533.879L944.572 511.417C943.933 511.146 943.255 510.981 942.564 510.928H935.131C930.919 510.914 926.884 509.234 923.906 506.256C920.928 503.278 919.248 499.243 919.234 495.031V428.349C919.234 425.471 920.377 422.711 922.412 420.676C924.447 418.641 927.207 417.498 930.085 417.498L1028.67 417.932ZM855.319 437.464L909.196 423.032C908.729 424.803 908.492 426.626 908.491 428.457V447.773L861.45 460.361C859.947 460.763 858.379 460.866 856.836 460.662C855.293 460.459 853.805 459.954 852.457 459.175C851.109 458.397 849.928 457.36 848.981 456.126C848.033 454.891 847.339 453.481 846.936 451.978C846.534 450.474 846.431 448.907 846.634 447.363C846.838 445.82 847.343 444.333 848.122 442.985C848.9 441.637 849.936 440.456 851.171 439.509C852.406 438.561 853.815 437.867 855.319 437.464ZM693.633 522.811L705.786 470.018C706.897 464.87 709.748 460.263 713.859 456.972C717.971 453.68 723.091 451.907 728.357 451.951H831.446C833.033 451.965 834.601 452.297 836.058 452.927C836.058 453.524 836.058 454.121 836.437 454.718C837.595 458.905 839.93 462.671 843.165 465.569C842.802 468.031 841.662 470.313 839.91 472.08C838.809 473.212 837.493 474.111 836.04 474.726C834.586 475.341 833.024 475.659 831.446 475.661H757.548C756.109 475.661 754.729 476.233 753.711 477.25C752.694 478.268 752.122 479.648 752.122 481.087C752.122 482.526 752.694 483.906 753.711 484.923C754.729 485.941 756.109 486.513 757.548 486.513H764.492L755.92 526.446C755.726 527.463 755.828 528.514 756.212 529.476C756.597 530.437 757.248 531.268 758.09 531.871L804.86 564.426C807.818 566.516 809.995 569.532 811.045 572.998L817.719 626.659C817.693 626.893 817.693 627.13 817.719 627.364C818.708 631.374 818.098 635.611 816.017 639.179C813.937 642.747 810.549 645.365 806.572 646.479C802.595 647.594 798.341 647.116 794.71 645.148C791.079 643.181 788.356 639.877 787.118 635.937L782.614 589.71C782.537 588.947 782.298 588.209 781.915 587.545C781.532 586.881 781.012 586.306 780.39 585.857L736.984 555.799C733.489 553.305 729.651 551.332 725.59 549.939L703.508 542.126C699.775 540.683 696.705 537.916 694.883 534.353C693.062 530.79 692.617 526.681 693.633 522.811ZM668.186 638.107L701.88 596.492L702.639 553.086L722.226 560.031C725.362 561.082 728.338 562.561 731.07 564.426L734.054 566.488L733.457 602.406C733.438 605.969 732.193 609.418 729.931 612.172L692.765 658.019C691.459 659.644 689.844 660.994 688.014 661.992C686.184 662.989 684.174 663.614 682.101 663.831C680.028 664.048 677.932 663.852 675.935 663.255C673.938 662.658 672.079 661.672 670.465 660.352C667.22 657.7 665.158 653.87 664.731 649.7C664.304 645.531 665.546 641.362 668.186 638.107ZM946.145 395.74C952.369 395.74 958.453 393.895 963.629 390.437C968.804 386.979 972.837 382.064 975.219 376.314C977.601 370.564 978.224 364.236 977.01 358.132C975.795 352.028 972.798 346.42 968.397 342.019C963.996 337.618 958.389 334.621 952.285 333.407C946.18 332.193 939.853 332.816 934.103 335.198C928.352 337.579 923.437 341.613 919.98 346.788C916.522 351.963 914.676 358.047 914.676 364.271C914.69 372.613 918.011 380.609 923.909 386.507C929.808 392.406 937.804 395.726 946.145 395.74ZM946.145 343.437C950.266 343.437 954.294 344.658 957.72 346.948C961.147 349.237 963.817 352.491 965.394 356.298C966.971 360.105 967.384 364.294 966.58 368.336C965.776 372.377 963.791 376.09 960.878 379.004C957.964 381.917 954.251 383.902 950.21 384.706C946.168 385.51 941.979 385.097 938.172 383.52C934.365 381.943 931.111 379.273 928.822 375.846C926.532 372.42 925.311 368.392 925.311 364.271C925.311 358.746 927.506 353.446 931.413 349.539C935.32 345.632 940.62 343.437 946.145 343.437Z" stroke="#252B33" stroke-opacity="0.75" stroke-width="8" mask="url(#path-3-outside-1_45_1887)"/>
</svg>
