<svg width="1728" height="1117" viewBox="0 0 1728 1117" fill="none" xmlns="http://www.w3.org/2000/svg">
<rect width="1728" height="1117" fill="#F5F8F9"/>
<rect x="0.5" y="0.5" width="1727" height="1116" stroke="black" stroke-opacity="0.25"/>
<path d="M737.417 823C735.998 823 734.634 822.443 733.632 821.441C732.63 820.439 732.073 819.075 732.073 817.656V750.351H686.313C660.983 750.324 640.469 729.809 640.413 704.507V483.141C640.469 457.839 660.983 437.325 686.313 437.297H1042.43C1067.76 437.325 1088.28 457.839 1088.33 483.141V704.507C1088.28 729.809 1067.76 750.324 1042.43 750.351H802.689L741.453 821.163C740.423 822.332 738.948 823 737.417 823ZM686.313 447.982C666.884 447.982 651.129 463.736 651.102 483.137V704.504C651.129 723.905 666.884 739.659 686.313 739.659H737.417C738.837 739.659 740.173 740.244 741.175 741.246C742.177 742.248 742.762 743.612 742.762 745.004V803.29L796.204 741.496V741.524C797.206 740.355 798.682 739.659 800.24 739.659H1042.43C1061.86 739.659 1077.61 723.905 1077.64 704.504V483.137C1077.61 463.736 1061.86 447.982 1042.43 447.982L686.313 447.982Z" fill="#252B33" fill-opacity="0.75"/>
<path d="M686.313 752.851H729.573V817.656C729.573 819.728 730.386 821.731 731.864 823.209C733.342 824.687 735.345 825.5 737.417 825.5C739.675 825.5 741.83 824.517 743.328 822.816L743.336 822.807L743.344 822.798L803.833 752.851L1042.43 752.851L1042.44 752.851C1069.14 752.822 1090.77 731.192 1090.83 704.513V704.508V483.141V483.135C1090.77 456.456 1069.14 434.826 1042.44 434.797H1042.43L686.313 434.797L686.31 434.797C659.602 434.826 637.972 456.456 637.913 483.135V483.141L637.913 704.508L637.913 704.513C637.972 731.192 659.602 752.822 686.31 752.851H686.313ZM798.704 737.313V734.784L794.313 739.861L745.262 796.577V745.004C745.262 742.919 744.392 740.928 742.943 739.478C741.498 738.034 739.536 737.159 737.417 737.159H686.313C668.264 737.159 653.629 722.524 653.602 704.502V483.139C653.628 465.117 668.264 450.482 686.313 450.482L1042.43 450.482C1060.48 450.482 1075.11 465.118 1075.14 483.141V704.5C1075.11 722.523 1060.48 737.159 1042.43 737.159H800.24C799.719 737.159 799.205 737.212 798.704 737.313Z" stroke="#252B33" stroke-opacity="0.75" stroke-width="5"/>
<path d="M645.786 645.818H616.281C592.956 645.79 574.028 626.891 574 603.537V541.549C574.028 518.196 592.956 499.268 616.281 499.24H645.786C648.736 499.24 651.13 501.634 651.13 504.585C651.13 507.535 648.736 509.929 645.786 509.929H616.281C598.857 509.957 584.716 524.097 584.689 541.549V603.537C584.716 620.989 598.857 635.102 616.281 635.129H645.786C648.736 635.129 651.13 637.523 651.13 640.474C651.13 643.424 648.736 645.818 645.786 645.818Z" fill="#252B33" fill-opacity="0.75"/>
<path d="M616.278 648.318H616.281H645.786C650.117 648.318 653.63 644.805 653.63 640.474C653.63 636.142 650.117 632.629 645.786 632.629H616.285C600.237 632.604 587.215 619.607 587.189 603.535V541.551C587.215 525.476 600.239 512.455 616.283 512.429H645.786C650.117 512.429 653.63 508.916 653.63 504.585C653.63 500.253 650.117 496.74 645.786 496.74L616.281 496.74L616.278 496.74C591.573 496.77 571.529 516.816 571.5 541.546V541.549L571.5 603.537L571.5 603.54C571.529 628.273 591.576 648.288 616.278 648.318Z" stroke="#252B33" stroke-opacity="0.75" stroke-width="5"/>
<path d="M1112.46 645.818H1082.96C1080.01 645.818 1077.62 643.424 1077.62 640.474C1077.62 637.523 1080.01 635.129 1082.96 635.129H1112.46C1129.89 635.102 1144.03 620.989 1144.06 603.537V541.549C1144.03 524.097 1129.89 509.957 1112.46 509.929H1082.96C1080.01 509.929 1077.62 507.535 1077.62 504.585C1077.62 501.634 1080.01 499.24 1082.96 499.24H1112.46C1135.79 499.268 1154.72 518.196 1154.75 541.549V603.537C1154.72 626.89 1135.79 645.79 1112.46 645.818Z" fill="#252B33" fill-opacity="0.75"/>
<path d="M1112.46 648.318H1112.47C1137.17 648.288 1157.22 628.272 1157.25 603.54V603.537V541.549V541.546C1157.22 516.816 1137.17 496.77 1112.47 496.74H1112.46H1082.96C1078.63 496.74 1075.12 500.253 1075.12 504.585C1075.12 508.916 1078.63 512.429 1082.96 512.429H1112.46C1128.51 512.455 1141.53 525.476 1141.56 541.551C1141.56 541.551 1141.56 541.552 1141.56 541.553V603.533C1141.56 603.534 1141.56 603.534 1141.56 603.535C1141.53 619.607 1128.51 632.604 1112.46 632.629H1082.96C1078.63 632.629 1075.12 636.142 1075.12 640.474C1075.12 644.805 1078.63 648.318 1082.96 648.318H1112.46Z" stroke="#252B33" stroke-opacity="0.75" stroke-width="5"/>
<path d="M969.78 599.168H758.959C731.876 599.168 709.887 577.207 709.887 550.096C709.887 523.012 731.876 501.051 758.959 501.051H969.78C996.863 501.051 1018.85 523.012 1018.85 550.096C1018.85 577.207 996.863 599.168 969.78 599.168ZM758.959 511.736C737.777 511.736 720.575 528.91 720.575 550.092C720.575 571.274 737.777 588.476 758.959 588.476H969.78C990.963 588.476 1008.16 571.274 1008.16 550.092C1008.16 528.91 990.962 511.736 969.78 511.736H758.959Z" fill="#252B33" fill-opacity="0.75"/>
<path d="M758.959 601.668H969.78C998.243 601.668 1021.35 578.588 1021.35 550.096C1021.35 521.63 998.242 498.551 969.78 498.551H758.959C730.497 498.551 707.387 521.63 707.387 550.096C707.387 578.588 730.496 601.668 758.959 601.668ZM723.075 550.092C723.075 530.293 739.155 514.236 758.959 514.236H969.78C989.583 514.236 1005.66 530.293 1005.66 550.092C1005.66 569.893 989.582 585.976 969.78 585.976H758.959C739.158 585.976 723.075 569.893 723.075 550.092Z" stroke="#252B33" stroke-opacity="0.75" stroke-width="5"/>
<path d="M791.285 578.942C779.622 578.942 769.1 571.927 764.647 561.128C760.165 550.356 762.643 537.941 770.909 529.702C779.148 521.435 791.563 518.985 802.335 523.439C813.135 527.92 820.149 538.442 820.149 550.105C820.122 566.026 807.234 578.942 791.285 578.942ZM791.285 531.901V531.929C783.964 531.929 777.34 536.354 774.528 543.146C771.717 549.91 773.247 557.731 778.453 562.936C783.658 568.113 791.451 569.672 798.243 566.861C805.034 564.049 809.46 557.425 809.46 550.076C809.432 540.056 801.305 531.956 791.284 531.956L791.285 531.901Z" fill="#252B33" fill-opacity="0.75"/>
<path d="M803.293 521.13L803.29 521.129C791.589 516.291 778.099 518.948 769.142 527.934C760.161 536.887 757.468 550.377 762.337 562.085C767.179 573.821 778.614 581.442 791.285 581.442C808.617 581.442 822.619 567.406 822.649 550.109V550.105C822.649 537.432 815.027 525.999 803.293 521.13ZM776.838 544.102C779.145 538.529 784.429 534.805 790.368 534.456H791.284C799.927 534.456 806.934 541.44 806.96 550.08C806.958 556.416 803.142 562.127 797.287 564.551L798.167 566.678L797.287 564.551C791.432 566.974 784.712 565.633 780.218 561.166C775.733 556.679 774.413 549.936 776.836 544.105L776.838 544.102Z" stroke="#252B33" stroke-opacity="0.75" stroke-width="5"/>
<path d="M937.474 578.949C925.784 578.977 915.262 571.963 910.78 561.163C906.299 550.391 908.776 537.976 917.015 529.709C925.254 521.47 937.669 518.993 948.469 523.446C959.241 527.928 966.283 538.45 966.283 550.112C966.255 566.034 953.368 578.921 937.474 578.949ZM937.474 531.908V531.936C930.126 531.908 923.473 536.334 920.662 543.126C917.822 549.889 919.381 557.711 924.558 562.916C929.736 568.121 937.557 569.68 944.349 566.896C951.14 564.085 955.566 557.46 955.594 550.111C955.594 540.091 947.466 531.991 937.473 531.963L937.474 531.908Z" fill="#252B33" fill-opacity="0.75"/>
<path d="M915.245 527.944L915.248 527.941C924.202 518.987 937.69 516.297 949.422 521.135L949.429 521.138L949.429 521.138C961.13 526.006 968.783 537.436 968.783 550.112V550.117C968.753 567.414 954.751 581.419 937.478 581.449M915.245 527.944L937.474 578.949M915.245 527.944C906.296 536.924 903.601 550.412 908.472 562.122M915.245 527.944L910.78 561.163M937.478 581.449L937.474 578.949M937.478 581.449C937.479 581.449 937.479 581.449 937.48 581.449L937.474 578.949M937.478 581.449C924.775 581.479 913.341 573.855 908.472 562.122M937.474 578.949C925.784 578.977 915.262 571.963 910.78 561.163M908.472 562.122C908.472 562.122 908.472 562.123 908.472 562.123L910.78 561.163M908.472 562.122C908.472 562.121 908.471 562.121 908.471 562.121L910.78 561.163M936.529 534.46L937.466 534.463C946.086 534.487 953.091 541.473 953.094 550.107C953.068 556.449 949.249 562.16 943.396 564.584C937.535 566.985 930.79 565.636 926.331 561.153L926.331 561.153C921.861 556.659 920.523 549.914 922.967 544.093L922.967 544.093L922.972 544.082C925.275 538.518 930.572 534.795 936.529 534.46Z" stroke="#252B33" stroke-opacity="0.75" stroke-width="5"/>
<path d="M849.006 447.984C846.056 447.984 843.662 445.59 843.662 442.639V401.667C843.662 398.716 846.056 396.322 849.006 396.322C851.957 396.322 854.351 398.716 854.351 401.667V442.639C854.351 444.059 853.794 445.395 852.792 446.397C851.79 447.399 850.426 447.984 849.006 447.984Z" fill="#252B33" fill-opacity="0.75"/>
<path d="M841.162 442.639C841.162 446.97 844.675 450.484 849.006 450.484C851.112 450.484 853.105 449.619 854.56 448.165C856.028 446.696 856.851 444.725 856.851 442.639V401.667C856.851 397.335 853.338 393.822 849.006 393.822C844.675 393.822 841.162 397.335 841.162 401.667V442.639Z" stroke="#252B33" stroke-opacity="0.75" stroke-width="5"/>
<path d="M879.739 447.984C876.788 447.984 874.395 445.59 874.395 442.639V401.667C874.395 398.716 876.788 396.322 879.739 396.322C882.689 396.322 885.083 398.716 885.083 401.667V442.639C885.083 444.059 884.526 445.395 883.524 446.397C882.522 447.399 881.158 447.984 879.739 447.984Z" fill="#252B33" fill-opacity="0.75"/>
<path d="M871.895 442.639C871.895 446.97 875.408 450.484 879.739 450.484C881.844 450.484 883.837 449.619 885.292 448.165C886.761 446.696 887.583 444.725 887.583 442.639V401.667C887.583 397.335 884.07 393.822 879.739 393.822C875.408 393.822 871.895 397.335 871.895 401.667V442.639Z" stroke="#252B33" stroke-opacity="0.75" stroke-width="5"/>
<path d="M864.374 409.287C840.853 409.287 819.644 395.119 810.652 373.408C801.662 351.669 806.616 326.674 823.261 310.029C839.878 293.412 864.874 288.429 886.613 297.42C908.352 306.438 922.492 327.621 922.492 351.141C922.464 383.234 896.467 409.231 864.374 409.287ZM864.374 303.713C845.168 303.713 827.882 315.265 820.534 332.995C813.186 350.726 817.25 371.129 830.805 384.712C844.388 398.268 864.791 402.332 882.522 394.983C900.253 387.635 911.832 370.35 911.804 351.144C911.777 324.951 890.566 303.741 864.374 303.713Z" fill="#252B33" fill-opacity="0.75"/>
<path d="M864.374 411.787L864.378 411.787C897.848 411.729 924.963 384.616 924.992 351.143V351.141C924.992 326.61 910.244 304.516 887.571 295.111L887.568 295.109C864.896 285.733 838.826 290.929 821.494 308.261C804.133 325.622 798.966 351.692 808.342 374.364L808.343 374.365C817.721 397.011 839.843 411.787 864.374 411.787ZM909.304 351.147L909.304 351.148C909.331 369.337 898.365 385.711 881.565 392.674C864.77 399.635 845.442 395.786 832.573 382.945C819.731 370.075 815.884 350.748 822.844 333.953C829.805 317.156 846.178 306.213 864.373 306.213C889.185 306.24 909.278 326.333 909.304 351.147Z" stroke="#252B33" stroke-opacity="0.75" stroke-width="5"/>
<path d="M864.376 703.414C829.86 703.498 798.212 684.097 782.651 653.284C781.677 651.363 781.927 649.053 783.319 647.41C784.711 645.768 786.965 645.1 789.025 645.768C839.044 661.439 889.733 661.439 939.748 645.768H939.72C941.78 645.1 944.034 645.768 945.426 647.41C946.818 649.053 947.068 651.363 946.094 653.284C930.534 684.097 898.892 703.498 864.376 703.414ZM799.159 659.769C814.44 680.478 838.629 692.698 864.348 692.698C890.095 692.698 914.283 680.479 929.564 659.769C886.81 671.014 841.913 671.014 799.159 659.769Z" fill="#252B33" fill-opacity="0.75"/>
<path d="M864.348 690.198C841.887 690.198 820.629 680.58 805.807 663.991C844.339 672.941 884.385 672.941 922.916 663.991C908.095 680.581 886.835 690.198 864.348 690.198ZM938.949 643.39L938.95 643.398C889.441 658.9 839.295 658.896 789.783 643.386C786.742 642.405 783.442 643.398 781.412 645.794C779.357 648.218 779.001 651.613 780.42 654.412C796.407 686.068 828.919 705.998 864.376 705.914C899.833 705.998 932.338 686.068 948.324 654.415C949.744 651.615 949.388 648.219 947.333 645.794C945.3 643.395 941.994 642.403 938.949 643.39Z" stroke="#252B33" stroke-opacity="0.75" stroke-width="5"/>
</svg>
