<svg width="1728" height="1117" viewBox="0 0 1728 1117" fill="none" xmlns="http://www.w3.org/2000/svg">
<rect width="1728" height="1117" fill="#F5F8F9"/>
<rect x="0.5" y="0.5" width="1727" height="1116" stroke="black" stroke-opacity="0.25"/>
<mask id="path-3-outside-1_69_2723" maskUnits="userSpaceOnUse" x="612" y="307" width="504" height="504" fill="black">
<rect fill="white" x="612" y="307" width="504" height="504"/>
<path d="M963.271 358.844C963.271 357.463 963.82 356.138 964.796 355.161C965.773 354.185 967.098 353.636 968.479 353.636H1032.33C1033.71 353.636 1035.04 354.185 1036.02 355.161C1036.99 356.138 1037.54 357.463 1037.54 358.844C1037.54 360.226 1036.99 361.55 1036.02 362.527C1035.04 363.504 1033.71 364.053 1032.33 364.053H968.167C966.84 363.973 965.594 363.389 964.684 362.421C963.774 361.453 963.269 360.173 963.271 358.844ZM879.938 353.636H815.927C814.546 353.636 813.221 354.185 812.245 355.161C811.268 356.138 810.719 357.463 810.719 358.844C810.719 360.226 811.268 361.55 812.245 362.527C813.221 363.504 814.546 364.053 815.927 364.053H879.886C881.267 364.053 882.592 363.504 883.568 362.527C884.545 361.55 885.094 360.226 885.094 358.844C885.094 357.463 884.545 356.138 883.568 355.161C882.592 354.185 881.267 353.636 879.886 353.636H879.938ZM663.584 364.053H727.49C728.871 364.053 730.196 363.504 731.173 362.527C732.15 361.55 732.698 360.226 732.698 358.844C732.698 357.463 732.15 356.138 731.173 355.161C730.196 354.185 728.871 353.636 727.49 353.636H663.532C662.15 353.636 660.826 354.185 659.849 355.161C658.872 356.138 658.323 357.463 658.323 358.844C658.323 360.226 658.872 361.55 659.849 362.527C660.826 363.504 662.15 364.053 663.532 364.053H663.584ZM740.563 458.74V495.198C740.563 499.259 738.95 503.154 736.078 506.026C733.206 508.897 729.312 510.511 725.25 510.511H665.563C661.511 510.456 657.646 508.797 654.815 505.897C651.983 502.998 650.417 499.094 650.459 495.042V458.584C650.473 454.532 652.092 450.65 654.962 447.79C657.832 444.929 661.719 443.323 665.771 443.323H725.25C727.27 443.323 729.27 443.723 731.134 444.499C732.999 445.275 734.692 446.412 736.115 447.845C737.538 449.278 738.664 450.978 739.427 452.848C740.191 454.718 740.577 456.72 740.563 458.74ZM730.146 458.74C730.146 457.359 729.597 456.034 728.621 455.057C727.644 454.08 726.319 453.532 724.938 453.532H665.563C664.182 453.532 662.857 454.08 661.88 455.057C660.903 456.034 660.355 457.359 660.355 458.74V495.198C660.355 496.58 660.903 497.904 661.88 498.881C662.857 499.858 664.182 500.407 665.563 500.407H725.25C726.632 500.407 727.956 499.858 728.933 498.881C729.91 497.904 730.459 496.58 730.459 495.198L730.146 458.74ZM740.563 679.886V716.344C740.549 720.396 738.93 724.277 736.06 727.138C733.189 729.998 729.303 731.604 725.25 731.604H665.563C661.529 731.549 657.68 729.905 654.851 727.028C652.023 724.151 650.445 720.274 650.459 716.24V679.781C650.473 675.729 652.092 671.848 654.962 668.987C657.832 666.127 661.719 664.521 665.771 664.521H725.25C727.266 664.521 729.261 664.919 731.122 665.692C732.983 666.464 734.674 667.597 736.096 669.024C737.519 670.452 738.646 672.146 739.412 674.01C740.179 675.874 740.57 677.87 740.563 679.886ZM730.146 679.886C730.146 678.504 729.597 677.179 728.621 676.203C727.644 675.226 726.319 674.677 724.938 674.677H665.563C664.182 674.677 662.857 675.226 661.88 676.203C660.903 677.179 660.355 678.504 660.355 679.886V716.344C660.355 717.725 660.903 719.05 661.88 720.027C662.857 721.003 664.182 721.552 665.563 721.552H725.25C726.632 721.552 727.956 721.003 728.933 720.027C729.91 719.05 730.459 717.725 730.459 716.344L730.146 679.886ZM649.261 605.875V569.417C649.275 565.365 650.894 561.483 653.764 558.623C656.634 555.763 660.521 554.156 664.573 554.157H724.261C728.308 554.157 732.19 555.764 735.052 558.626C737.913 561.488 739.521 565.37 739.521 569.417V605.875C739.521 609.923 737.913 613.804 735.052 616.666C732.19 619.528 728.308 621.136 724.261 621.136H664.573C660.521 621.136 656.634 619.53 653.764 616.669C650.894 613.809 649.275 609.927 649.261 605.875ZM659.678 605.875C659.678 607.257 660.226 608.581 661.203 609.558C662.18 610.535 663.505 611.084 664.886 611.084H724.261C725.642 611.084 726.967 610.535 727.944 609.558C728.92 608.581 729.469 607.257 729.469 605.875V569.417C729.469 568.036 728.92 566.711 727.944 565.734C726.967 564.757 725.642 564.209 724.261 564.209H664.573C663.192 564.209 661.867 564.757 660.891 565.734C659.914 566.711 659.365 568.036 659.365 569.417L659.678 605.875ZM802.854 495.042V458.584C802.868 454.532 804.488 450.65 807.358 447.79C810.228 444.929 814.115 443.323 818.167 443.323H877.854C881.907 443.323 885.793 444.929 888.664 447.79C891.534 450.65 893.153 454.532 893.167 458.584V495.042C893.167 499.103 891.554 502.998 888.682 505.87C885.81 508.741 881.916 510.354 877.854 510.354H818.167C814.106 510.354 810.211 508.741 807.339 505.87C804.468 502.998 802.854 499.103 802.854 495.042ZM813.271 495.042C813.271 496.423 813.82 497.748 814.797 498.725C815.773 499.702 817.098 500.25 818.479 500.25H877.854C879.236 500.25 880.56 499.702 881.537 498.725C882.514 497.748 883.063 496.423 883.063 495.042V458.584C883.063 457.202 882.514 455.878 881.537 454.901C880.56 453.924 879.236 453.375 877.854 453.375H818.167C816.786 453.375 815.461 453.924 814.484 454.901C813.507 455.878 812.959 457.202 812.959 458.584L813.271 495.042ZM894.156 569.417V605.875C894.156 609.923 892.549 613.804 889.687 616.666C886.825 619.528 882.943 621.136 878.896 621.136H819.157C815.109 621.136 811.228 619.528 808.366 616.666C805.504 613.804 803.896 609.923 803.896 605.875V569.417C803.896 565.37 805.504 561.488 808.366 558.626C811.228 555.764 815.109 554.157 819.157 554.157H878.896C882.943 554.157 886.825 555.764 889.687 558.626C892.549 561.488 894.156 565.37 894.156 569.417ZM883.74 569.417C883.74 568.036 883.191 566.711 882.214 565.734C881.238 564.757 879.913 564.209 878.531 564.209H819.157C817.775 564.209 816.45 564.757 815.474 565.734C814.497 566.711 813.948 568.036 813.948 569.417V605.875C813.948 607.257 814.497 608.581 815.474 609.558C816.45 610.535 817.775 611.084 819.157 611.084H878.896C880.277 611.084 881.602 610.535 882.579 609.558C883.556 608.581 884.104 607.257 884.104 605.875L883.74 569.417ZM955.094 495.042V458.584C955.108 454.532 956.727 450.65 959.597 447.79C962.467 444.929 966.354 443.323 970.406 443.323H1030.09C1032.1 443.323 1034.08 443.718 1035.93 444.485C1037.79 445.252 1039.47 446.376 1040.88 447.793C1042.3 449.21 1043.43 450.892 1044.19 452.744C1044.96 454.595 1045.35 456.58 1045.35 458.584V495.042C1045.35 499.094 1043.75 502.981 1040.89 505.851C1038.03 508.721 1034.15 510.341 1030.09 510.354H970.406C968.396 510.354 966.404 509.958 964.547 509.189C962.689 508.419 961.001 507.291 959.579 505.87C958.157 504.448 957.029 502.76 956.259 500.902C955.49 499.044 955.094 497.053 955.094 495.042ZM965.511 495.042C965.511 496.423 966.059 497.748 967.036 498.725C968.013 499.702 969.338 500.25 970.719 500.25H1030.09C1031.48 500.25 1032.8 499.702 1033.78 498.725C1034.75 497.748 1035.3 496.423 1035.3 495.042V458.584C1035.3 457.202 1034.75 455.878 1033.78 454.901C1032.8 453.924 1031.48 453.375 1030.09 453.375H970.406C969.025 453.375 967.7 453.924 966.724 454.901C965.747 455.878 965.198 457.202 965.198 458.584L965.511 495.042ZM1029.05 620.927H969.365C965.353 620.928 961.503 619.348 958.647 616.532C955.791 613.715 954.159 609.886 954.104 605.875V569.417C954.104 565.37 955.712 561.488 958.574 558.626C961.436 555.764 965.317 554.157 969.365 554.157H1029.05C1033.1 554.156 1036.99 555.763 1039.86 558.623C1042.73 561.483 1044.35 565.365 1044.36 569.417V605.875C1044.3 609.891 1042.65 613.719 1039.79 616.535C1036.92 619.35 1033.07 620.928 1029.05 620.927ZM969.365 610.511H1029.05C1030.43 610.511 1031.76 609.962 1032.74 608.985C1033.71 608.008 1034.26 606.684 1034.26 605.302V569.417C1034.26 568.036 1033.71 566.711 1032.74 565.734C1031.76 564.757 1030.43 564.209 1029.05 564.209H969.365C967.983 564.209 966.659 564.757 965.682 565.734C964.705 566.711 964.156 568.036 964.156 569.417V605.875C964.249 607.192 964.838 608.425 965.805 609.325C966.772 610.224 968.044 610.722 969.365 610.719V610.511ZM1114 736.865C1113.99 752.307 1109.02 767.336 1099.81 779.731C1090.6 792.126 1077.64 801.228 1062.86 805.69C1048.08 810.152 1032.25 809.739 1017.72 804.51C1003.19 799.281 990.727 789.515 982.177 776.656H638.428C635.232 776.691 632.062 776.091 629.099 774.892C626.137 773.693 623.442 771.918 621.171 769.671C618.899 767.423 617.095 764.747 615.865 761.798C614.634 758.849 614 755.685 614.001 752.49V333.323C613.98 330.123 614.595 326.951 615.81 323.991C617.025 321.031 618.816 318.341 621.078 316.078C623.341 313.816 626.031 312.025 628.991 310.81C631.951 309.595 635.123 308.98 638.323 309.001H1057.49C1063.89 309 1070.03 311.539 1074.56 316.06C1079.09 320.581 1081.64 326.715 1081.66 333.115V676.865C1091.59 683.411 1099.74 692.319 1105.39 702.79C1111.03 713.261 1113.99 724.969 1114 736.865ZM1057.49 319.417H929.209V398.323H1071.45V333.323C1071.43 329.63 1069.96 326.093 1067.34 323.487C1064.73 320.881 1061.18 319.417 1057.49 319.417ZM919.052 398.323V319.417H776.813V398.323H919.052ZM776.813 408.74V766.448H919.052V408.532L776.813 408.74ZM624.417 333.323V398.323H766.605V319.417H638.323C634.639 319.431 631.11 320.9 628.505 323.505C625.9 326.11 624.431 329.639 624.417 333.323ZM638.323 766.448H766.605V408.532H624.417V752.281C624.39 754.127 624.729 755.961 625.414 757.675C626.1 759.389 627.119 760.95 628.413 762.268C629.706 763.585 631.248 764.633 632.949 765.351C634.65 766.068 636.477 766.441 638.323 766.448ZM976.344 766.448C972.107 757.162 969.921 747.072 969.938 736.865C969.965 717.797 977.552 699.518 991.035 686.035C1004.52 672.552 1022.8 664.965 1041.86 664.938C1052.07 664.921 1062.16 667.107 1071.45 671.344V408.532H929.209V766.448H976.344ZM1103.58 736.865C1103.58 724.658 1099.96 712.725 1093.18 702.576C1086.4 692.426 1076.76 684.515 1065.48 679.844C1054.21 675.173 1041.8 673.95 1029.82 676.332C1017.85 678.713 1006.85 684.591 998.223 693.223C989.591 701.854 983.713 712.852 981.332 724.824C978.95 736.796 980.173 749.206 984.844 760.483C989.515 771.761 997.426 781.4 1007.58 788.182C1017.73 794.964 1029.66 798.583 1041.86 798.583C1058.23 798.57 1073.92 792.063 1085.49 780.491C1097.06 768.92 1103.57 753.229 1103.58 736.865ZM1089.16 721.24C1088.86 723.174 1088.18 725.031 1087.16 726.703C1086.14 728.374 1084.8 729.828 1083.22 730.979L1034.63 766.5C1032.05 768.357 1028.95 769.358 1025.77 769.365C1024.78 769.467 1023.79 769.467 1022.8 769.365C1020.8 768.945 1018.9 768.119 1017.22 766.936C1015.54 765.754 1014.13 764.24 1013.06 762.49L996.604 735.719C995.596 734.03 994.931 732.159 994.647 730.213C994.363 728.267 994.466 726.284 994.949 724.377C995.433 722.471 996.289 720.679 997.466 719.104C998.644 717.529 1000.12 716.201 1001.81 715.198C1003.5 714.19 1005.37 713.524 1007.32 713.24C1009.26 712.956 1011.25 713.059 1013.15 713.543C1015.06 714.027 1016.85 714.882 1018.43 716.06C1020 717.238 1021.33 718.715 1022.33 720.406L1030.3 733.375L1065.88 707.333C1067.44 706.171 1069.23 705.333 1071.12 704.868C1073.02 704.403 1074.99 704.32 1076.92 704.625C1080.83 705.228 1084.35 707.361 1086.69 710.554C1089.03 713.748 1090.01 717.741 1089.42 721.656L1089.16 721.24ZM1078.22 716.031C1077.87 715.519 1077.41 715.086 1076.88 714.763C1076.35 714.44 1075.76 714.233 1075.15 714.156C1073.9 713.958 1072.63 714.257 1071.6 714.99L1031.6 744.26C1031.03 744.658 1030.38 744.937 1029.7 745.079C1029.01 745.221 1028.31 745.224 1027.62 745.088C1026.94 744.952 1026.29 744.68 1025.71 744.287C1025.13 743.894 1024.64 743.389 1024.26 742.802L1013.38 725.667C1012.94 724.807 1012.25 724.102 1011.41 723.647C1010.56 723.191 1009.59 723.008 1008.64 723.122C1007.68 723.236 1006.78 723.641 1006.06 724.283C1005.35 724.924 1004.84 725.771 1004.63 726.708C1004.32 727.928 1004.51 729.219 1005.15 730.302L1021.76 756.917C1022.09 757.478 1022.53 757.964 1023.06 758.341C1023.59 758.718 1024.2 758.978 1024.83 759.104C1026.16 759.328 1027.52 759.03 1028.64 758.271L1077.23 722.75C1077.73 722.388 1078.14 721.929 1078.46 721.401C1078.77 720.873 1078.97 720.286 1079.05 719.677C1079.22 718.5 1078.92 717.305 1078.22 716.344V716.031Z"/>
</mask>
<path d="M963.271 358.844C963.271 357.463 963.82 356.138 964.796 355.161C965.773 354.185 967.098 353.636 968.479 353.636H1032.33C1033.71 353.636 1035.04 354.185 1036.02 355.161C1036.99 356.138 1037.54 357.463 1037.54 358.844C1037.54 360.226 1036.99 361.55 1036.02 362.527C1035.04 363.504 1033.71 364.053 1032.33 364.053H968.167C966.84 363.973 965.594 363.389 964.684 362.421C963.774 361.453 963.269 360.173 963.271 358.844ZM879.938 353.636H815.927C814.546 353.636 813.221 354.185 812.245 355.161C811.268 356.138 810.719 357.463 810.719 358.844C810.719 360.226 811.268 361.55 812.245 362.527C813.221 363.504 814.546 364.053 815.927 364.053H879.886C881.267 364.053 882.592 363.504 883.568 362.527C884.545 361.55 885.094 360.226 885.094 358.844C885.094 357.463 884.545 356.138 883.568 355.161C882.592 354.185 881.267 353.636 879.886 353.636H879.938ZM663.584 364.053H727.49C728.871 364.053 730.196 363.504 731.173 362.527C732.15 361.55 732.698 360.226 732.698 358.844C732.698 357.463 732.15 356.138 731.173 355.161C730.196 354.185 728.871 353.636 727.49 353.636H663.532C662.15 353.636 660.826 354.185 659.849 355.161C658.872 356.138 658.323 357.463 658.323 358.844C658.323 360.226 658.872 361.55 659.849 362.527C660.826 363.504 662.15 364.053 663.532 364.053H663.584ZM740.563 458.74V495.198C740.563 499.259 738.95 503.154 736.078 506.026C733.206 508.897 729.312 510.511 725.25 510.511H665.563C661.511 510.456 657.646 508.797 654.815 505.897C651.983 502.998 650.417 499.094 650.459 495.042V458.584C650.473 454.532 652.092 450.65 654.962 447.79C657.832 444.929 661.719 443.323 665.771 443.323H725.25C727.27 443.323 729.27 443.723 731.134 444.499C732.999 445.275 734.692 446.412 736.115 447.845C737.538 449.278 738.664 450.978 739.427 452.848C740.191 454.718 740.577 456.72 740.563 458.74ZM730.146 458.74C730.146 457.359 729.597 456.034 728.621 455.057C727.644 454.08 726.319 453.532 724.938 453.532H665.563C664.182 453.532 662.857 454.08 661.88 455.057C660.903 456.034 660.355 457.359 660.355 458.74V495.198C660.355 496.58 660.903 497.904 661.88 498.881C662.857 499.858 664.182 500.407 665.563 500.407H725.25C726.632 500.407 727.956 499.858 728.933 498.881C729.91 497.904 730.459 496.58 730.459 495.198L730.146 458.74ZM740.563 679.886V716.344C740.549 720.396 738.93 724.277 736.06 727.138C733.189 729.998 729.303 731.604 725.25 731.604H665.563C661.529 731.549 657.68 729.905 654.851 727.028C652.023 724.151 650.445 720.274 650.459 716.24V679.781C650.473 675.729 652.092 671.848 654.962 668.987C657.832 666.127 661.719 664.521 665.771 664.521H725.25C727.266 664.521 729.261 664.919 731.122 665.692C732.983 666.464 734.674 667.597 736.096 669.024C737.519 670.452 738.646 672.146 739.412 674.01C740.179 675.874 740.57 677.87 740.563 679.886ZM730.146 679.886C730.146 678.504 729.597 677.179 728.621 676.203C727.644 675.226 726.319 674.677 724.938 674.677H665.563C664.182 674.677 662.857 675.226 661.88 676.203C660.903 677.179 660.355 678.504 660.355 679.886V716.344C660.355 717.725 660.903 719.05 661.88 720.027C662.857 721.003 664.182 721.552 665.563 721.552H725.25C726.632 721.552 727.956 721.003 728.933 720.027C729.91 719.05 730.459 717.725 730.459 716.344L730.146 679.886ZM649.261 605.875V569.417C649.275 565.365 650.894 561.483 653.764 558.623C656.634 555.763 660.521 554.156 664.573 554.157H724.261C728.308 554.157 732.19 555.764 735.052 558.626C737.913 561.488 739.521 565.37 739.521 569.417V605.875C739.521 609.923 737.913 613.804 735.052 616.666C732.19 619.528 728.308 621.136 724.261 621.136H664.573C660.521 621.136 656.634 619.53 653.764 616.669C650.894 613.809 649.275 609.927 649.261 605.875ZM659.678 605.875C659.678 607.257 660.226 608.581 661.203 609.558C662.18 610.535 663.505 611.084 664.886 611.084H724.261C725.642 611.084 726.967 610.535 727.944 609.558C728.92 608.581 729.469 607.257 729.469 605.875V569.417C729.469 568.036 728.92 566.711 727.944 565.734C726.967 564.757 725.642 564.209 724.261 564.209H664.573C663.192 564.209 661.867 564.757 660.891 565.734C659.914 566.711 659.365 568.036 659.365 569.417L659.678 605.875ZM802.854 495.042V458.584C802.868 454.532 804.488 450.65 807.358 447.79C810.228 444.929 814.115 443.323 818.167 443.323H877.854C881.907 443.323 885.793 444.929 888.664 447.79C891.534 450.65 893.153 454.532 893.167 458.584V495.042C893.167 499.103 891.554 502.998 888.682 505.87C885.81 508.741 881.916 510.354 877.854 510.354H818.167C814.106 510.354 810.211 508.741 807.339 505.87C804.468 502.998 802.854 499.103 802.854 495.042ZM813.271 495.042C813.271 496.423 813.82 497.748 814.797 498.725C815.773 499.702 817.098 500.25 818.479 500.25H877.854C879.236 500.25 880.56 499.702 881.537 498.725C882.514 497.748 883.063 496.423 883.063 495.042V458.584C883.063 457.202 882.514 455.878 881.537 454.901C880.56 453.924 879.236 453.375 877.854 453.375H818.167C816.786 453.375 815.461 453.924 814.484 454.901C813.507 455.878 812.959 457.202 812.959 458.584L813.271 495.042ZM894.156 569.417V605.875C894.156 609.923 892.549 613.804 889.687 616.666C886.825 619.528 882.943 621.136 878.896 621.136H819.157C815.109 621.136 811.228 619.528 808.366 616.666C805.504 613.804 803.896 609.923 803.896 605.875V569.417C803.896 565.37 805.504 561.488 808.366 558.626C811.228 555.764 815.109 554.157 819.157 554.157H878.896C882.943 554.157 886.825 555.764 889.687 558.626C892.549 561.488 894.156 565.37 894.156 569.417ZM883.74 569.417C883.74 568.036 883.191 566.711 882.214 565.734C881.238 564.757 879.913 564.209 878.531 564.209H819.157C817.775 564.209 816.45 564.757 815.474 565.734C814.497 566.711 813.948 568.036 813.948 569.417V605.875C813.948 607.257 814.497 608.581 815.474 609.558C816.45 610.535 817.775 611.084 819.157 611.084H878.896C880.277 611.084 881.602 610.535 882.579 609.558C883.556 608.581 884.104 607.257 884.104 605.875L883.74 569.417ZM955.094 495.042V458.584C955.108 454.532 956.727 450.65 959.597 447.79C962.467 444.929 966.354 443.323 970.406 443.323H1030.09C1032.1 443.323 1034.08 443.718 1035.93 444.485C1037.79 445.252 1039.47 446.376 1040.88 447.793C1042.3 449.21 1043.43 450.892 1044.19 452.744C1044.96 454.595 1045.35 456.58 1045.35 458.584V495.042C1045.35 499.094 1043.75 502.981 1040.89 505.851C1038.03 508.721 1034.15 510.341 1030.09 510.354H970.406C968.396 510.354 966.404 509.958 964.547 509.189C962.689 508.419 961.001 507.291 959.579 505.87C958.157 504.448 957.029 502.76 956.259 500.902C955.49 499.044 955.094 497.053 955.094 495.042ZM965.511 495.042C965.511 496.423 966.059 497.748 967.036 498.725C968.013 499.702 969.338 500.25 970.719 500.25H1030.09C1031.48 500.25 1032.8 499.702 1033.78 498.725C1034.75 497.748 1035.3 496.423 1035.3 495.042V458.584C1035.3 457.202 1034.75 455.878 1033.78 454.901C1032.8 453.924 1031.48 453.375 1030.09 453.375H970.406C969.025 453.375 967.7 453.924 966.724 454.901C965.747 455.878 965.198 457.202 965.198 458.584L965.511 495.042ZM1029.05 620.927H969.365C965.353 620.928 961.503 619.348 958.647 616.532C955.791 613.715 954.159 609.886 954.104 605.875V569.417C954.104 565.37 955.712 561.488 958.574 558.626C961.436 555.764 965.317 554.157 969.365 554.157H1029.05C1033.1 554.156 1036.99 555.763 1039.86 558.623C1042.73 561.483 1044.35 565.365 1044.36 569.417V605.875C1044.3 609.891 1042.65 613.719 1039.79 616.535C1036.92 619.35 1033.07 620.928 1029.05 620.927ZM969.365 610.511H1029.05C1030.43 610.511 1031.76 609.962 1032.74 608.985C1033.71 608.008 1034.26 606.684 1034.26 605.302V569.417C1034.26 568.036 1033.71 566.711 1032.74 565.734C1031.76 564.757 1030.43 564.209 1029.05 564.209H969.365C967.983 564.209 966.659 564.757 965.682 565.734C964.705 566.711 964.156 568.036 964.156 569.417V605.875C964.249 607.192 964.838 608.425 965.805 609.325C966.772 610.224 968.044 610.722 969.365 610.719V610.511ZM1114 736.865C1113.99 752.307 1109.02 767.336 1099.81 779.731C1090.6 792.126 1077.64 801.228 1062.86 805.69C1048.08 810.152 1032.25 809.739 1017.72 804.51C1003.19 799.281 990.727 789.515 982.177 776.656H638.428C635.232 776.691 632.062 776.091 629.099 774.892C626.137 773.693 623.442 771.918 621.171 769.671C618.899 767.423 617.095 764.747 615.865 761.798C614.634 758.849 614 755.685 614.001 752.49V333.323C613.98 330.123 614.595 326.951 615.81 323.991C617.025 321.031 618.816 318.341 621.078 316.078C623.341 313.816 626.031 312.025 628.991 310.81C631.951 309.595 635.123 308.98 638.323 309.001H1057.49C1063.89 309 1070.03 311.539 1074.56 316.06C1079.09 320.581 1081.64 326.715 1081.66 333.115V676.865C1091.59 683.411 1099.74 692.319 1105.39 702.79C1111.03 713.261 1113.99 724.969 1114 736.865ZM1057.49 319.417H929.209V398.323H1071.45V333.323C1071.43 329.63 1069.96 326.093 1067.34 323.487C1064.73 320.881 1061.18 319.417 1057.49 319.417ZM919.052 398.323V319.417H776.813V398.323H919.052ZM776.813 408.74V766.448H919.052V408.532L776.813 408.74ZM624.417 333.323V398.323H766.605V319.417H638.323C634.639 319.431 631.11 320.9 628.505 323.505C625.9 326.11 624.431 329.639 624.417 333.323ZM638.323 766.448H766.605V408.532H624.417V752.281C624.39 754.127 624.729 755.961 625.414 757.675C626.1 759.389 627.119 760.95 628.413 762.268C629.706 763.585 631.248 764.633 632.949 765.351C634.65 766.068 636.477 766.441 638.323 766.448ZM976.344 766.448C972.107 757.162 969.921 747.072 969.938 736.865C969.965 717.797 977.552 699.518 991.035 686.035C1004.52 672.552 1022.8 664.965 1041.86 664.938C1052.07 664.921 1062.16 667.107 1071.45 671.344V408.532H929.209V766.448H976.344ZM1103.58 736.865C1103.58 724.658 1099.96 712.725 1093.18 702.576C1086.4 692.426 1076.76 684.515 1065.48 679.844C1054.21 675.173 1041.8 673.95 1029.82 676.332C1017.85 678.713 1006.85 684.591 998.223 693.223C989.591 701.854 983.713 712.852 981.332 724.824C978.95 736.796 980.173 749.206 984.844 760.483C989.515 771.761 997.426 781.4 1007.58 788.182C1017.73 794.964 1029.66 798.583 1041.86 798.583C1058.23 798.57 1073.92 792.063 1085.49 780.491C1097.06 768.92 1103.57 753.229 1103.58 736.865ZM1089.16 721.24C1088.86 723.174 1088.18 725.031 1087.16 726.703C1086.14 728.374 1084.8 729.828 1083.22 730.979L1034.63 766.5C1032.05 768.357 1028.95 769.358 1025.77 769.365C1024.78 769.467 1023.79 769.467 1022.8 769.365C1020.8 768.945 1018.9 768.119 1017.22 766.936C1015.54 765.754 1014.13 764.24 1013.06 762.49L996.604 735.719C995.596 734.03 994.931 732.159 994.647 730.213C994.363 728.267 994.466 726.284 994.949 724.377C995.433 722.471 996.289 720.679 997.466 719.104C998.644 717.529 1000.12 716.201 1001.81 715.198C1003.5 714.19 1005.37 713.524 1007.32 713.24C1009.26 712.956 1011.25 713.059 1013.15 713.543C1015.06 714.027 1016.85 714.882 1018.43 716.06C1020 717.238 1021.33 718.715 1022.33 720.406L1030.3 733.375L1065.88 707.333C1067.44 706.171 1069.23 705.333 1071.12 704.868C1073.02 704.403 1074.99 704.32 1076.92 704.625C1080.83 705.228 1084.35 707.361 1086.69 710.554C1089.03 713.748 1090.01 717.741 1089.42 721.656L1089.16 721.24ZM1078.22 716.031C1077.87 715.519 1077.41 715.086 1076.88 714.763C1076.35 714.44 1075.76 714.233 1075.15 714.156C1073.9 713.958 1072.63 714.257 1071.6 714.99L1031.6 744.26C1031.03 744.658 1030.38 744.937 1029.7 745.079C1029.01 745.221 1028.31 745.224 1027.62 745.088C1026.94 744.952 1026.29 744.68 1025.71 744.287C1025.13 743.894 1024.64 743.389 1024.26 742.802L1013.38 725.667C1012.94 724.807 1012.25 724.102 1011.41 723.647C1010.56 723.191 1009.59 723.008 1008.64 723.122C1007.68 723.236 1006.78 723.641 1006.06 724.283C1005.35 724.924 1004.84 725.771 1004.63 726.708C1004.32 727.928 1004.51 729.219 1005.15 730.302L1021.76 756.917C1022.09 757.478 1022.53 757.964 1023.06 758.341C1023.59 758.718 1024.2 758.978 1024.83 759.104C1026.16 759.328 1027.52 759.03 1028.64 758.271L1077.23 722.75C1077.73 722.388 1078.14 721.929 1078.46 721.401C1078.77 720.873 1078.97 720.286 1079.05 719.677C1079.22 718.5 1078.92 717.305 1078.22 716.344V716.031Z" fill="#8D8D8E"/>
<path d="M963.271 358.844C963.271 357.463 963.82 356.138 964.796 355.161C965.773 354.185 967.098 353.636 968.479 353.636H1032.33C1033.71 353.636 1035.04 354.185 1036.02 355.161C1036.99 356.138 1037.54 357.463 1037.54 358.844C1037.54 360.226 1036.99 361.55 1036.02 362.527C1035.04 363.504 1033.71 364.053 1032.33 364.053H968.167C966.84 363.973 965.594 363.389 964.684 362.421C963.774 361.453 963.269 360.173 963.271 358.844ZM879.938 353.636H815.927C814.546 353.636 813.221 354.185 812.245 355.161C811.268 356.138 810.719 357.463 810.719 358.844C810.719 360.226 811.268 361.55 812.245 362.527C813.221 363.504 814.546 364.053 815.927 364.053H879.886C881.267 364.053 882.592 363.504 883.568 362.527C884.545 361.55 885.094 360.226 885.094 358.844C885.094 357.463 884.545 356.138 883.568 355.161C882.592 354.185 881.267 353.636 879.886 353.636H879.938ZM663.584 364.053H727.49C728.871 364.053 730.196 363.504 731.173 362.527C732.15 361.55 732.698 360.226 732.698 358.844C732.698 357.463 732.15 356.138 731.173 355.161C730.196 354.185 728.871 353.636 727.49 353.636H663.532C662.15 353.636 660.826 354.185 659.849 355.161C658.872 356.138 658.323 357.463 658.323 358.844C658.323 360.226 658.872 361.55 659.849 362.527C660.826 363.504 662.15 364.053 663.532 364.053H663.584ZM740.563 458.74V495.198C740.563 499.259 738.95 503.154 736.078 506.026C733.206 508.897 729.312 510.511 725.25 510.511H665.563C661.511 510.456 657.646 508.797 654.815 505.897C651.983 502.998 650.417 499.094 650.459 495.042V458.584C650.473 454.532 652.092 450.65 654.962 447.79C657.832 444.929 661.719 443.323 665.771 443.323H725.25C727.27 443.323 729.27 443.723 731.134 444.499C732.999 445.275 734.692 446.412 736.115 447.845C737.538 449.278 738.664 450.978 739.427 452.848C740.191 454.718 740.577 456.72 740.563 458.74ZM730.146 458.74C730.146 457.359 729.597 456.034 728.621 455.057C727.644 454.08 726.319 453.532 724.938 453.532H665.563C664.182 453.532 662.857 454.08 661.88 455.057C660.903 456.034 660.355 457.359 660.355 458.74V495.198C660.355 496.58 660.903 497.904 661.88 498.881C662.857 499.858 664.182 500.407 665.563 500.407H725.25C726.632 500.407 727.956 499.858 728.933 498.881C729.91 497.904 730.459 496.58 730.459 495.198L730.146 458.74ZM740.563 679.886V716.344C740.549 720.396 738.93 724.277 736.06 727.138C733.189 729.998 729.303 731.604 725.25 731.604H665.563C661.529 731.549 657.68 729.905 654.851 727.028C652.023 724.151 650.445 720.274 650.459 716.24V679.781C650.473 675.729 652.092 671.848 654.962 668.987C657.832 666.127 661.719 664.521 665.771 664.521H725.25C727.266 664.521 729.261 664.919 731.122 665.692C732.983 666.464 734.674 667.597 736.096 669.024C737.519 670.452 738.646 672.146 739.412 674.01C740.179 675.874 740.57 677.87 740.563 679.886ZM730.146 679.886C730.146 678.504 729.597 677.179 728.621 676.203C727.644 675.226 726.319 674.677 724.938 674.677H665.563C664.182 674.677 662.857 675.226 661.88 676.203C660.903 677.179 660.355 678.504 660.355 679.886V716.344C660.355 717.725 660.903 719.05 661.88 720.027C662.857 721.003 664.182 721.552 665.563 721.552H725.25C726.632 721.552 727.956 721.003 728.933 720.027C729.91 719.05 730.459 717.725 730.459 716.344L730.146 679.886ZM649.261 605.875V569.417C649.275 565.365 650.894 561.483 653.764 558.623C656.634 555.763 660.521 554.156 664.573 554.157H724.261C728.308 554.157 732.19 555.764 735.052 558.626C737.913 561.488 739.521 565.37 739.521 569.417V605.875C739.521 609.923 737.913 613.804 735.052 616.666C732.19 619.528 728.308 621.136 724.261 621.136H664.573C660.521 621.136 656.634 619.53 653.764 616.669C650.894 613.809 649.275 609.927 649.261 605.875ZM659.678 605.875C659.678 607.257 660.226 608.581 661.203 609.558C662.18 610.535 663.505 611.084 664.886 611.084H724.261C725.642 611.084 726.967 610.535 727.944 609.558C728.92 608.581 729.469 607.257 729.469 605.875V569.417C729.469 568.036 728.92 566.711 727.944 565.734C726.967 564.757 725.642 564.209 724.261 564.209H664.573C663.192 564.209 661.867 564.757 660.891 565.734C659.914 566.711 659.365 568.036 659.365 569.417L659.678 605.875ZM802.854 495.042V458.584C802.868 454.532 804.488 450.65 807.358 447.79C810.228 444.929 814.115 443.323 818.167 443.323H877.854C881.907 443.323 885.793 444.929 888.664 447.79C891.534 450.65 893.153 454.532 893.167 458.584V495.042C893.167 499.103 891.554 502.998 888.682 505.87C885.81 508.741 881.916 510.354 877.854 510.354H818.167C814.106 510.354 810.211 508.741 807.339 505.87C804.468 502.998 802.854 499.103 802.854 495.042ZM813.271 495.042C813.271 496.423 813.82 497.748 814.797 498.725C815.773 499.702 817.098 500.25 818.479 500.25H877.854C879.236 500.25 880.56 499.702 881.537 498.725C882.514 497.748 883.063 496.423 883.063 495.042V458.584C883.063 457.202 882.514 455.878 881.537 454.901C880.56 453.924 879.236 453.375 877.854 453.375H818.167C816.786 453.375 815.461 453.924 814.484 454.901C813.507 455.878 812.959 457.202 812.959 458.584L813.271 495.042ZM894.156 569.417V605.875C894.156 609.923 892.549 613.804 889.687 616.666C886.825 619.528 882.943 621.136 878.896 621.136H819.157C815.109 621.136 811.228 619.528 808.366 616.666C805.504 613.804 803.896 609.923 803.896 605.875V569.417C803.896 565.37 805.504 561.488 808.366 558.626C811.228 555.764 815.109 554.157 819.157 554.157H878.896C882.943 554.157 886.825 555.764 889.687 558.626C892.549 561.488 894.156 565.37 894.156 569.417ZM883.74 569.417C883.74 568.036 883.191 566.711 882.214 565.734C881.238 564.757 879.913 564.209 878.531 564.209H819.157C817.775 564.209 816.45 564.757 815.474 565.734C814.497 566.711 813.948 568.036 813.948 569.417V605.875C813.948 607.257 814.497 608.581 815.474 609.558C816.45 610.535 817.775 611.084 819.157 611.084H878.896C880.277 611.084 881.602 610.535 882.579 609.558C883.556 608.581 884.104 607.257 884.104 605.875L883.74 569.417ZM955.094 495.042V458.584C955.108 454.532 956.727 450.65 959.597 447.79C962.467 444.929 966.354 443.323 970.406 443.323H1030.09C1032.1 443.323 1034.08 443.718 1035.93 444.485C1037.79 445.252 1039.47 446.376 1040.88 447.793C1042.3 449.21 1043.43 450.892 1044.19 452.744C1044.96 454.595 1045.35 456.58 1045.35 458.584V495.042C1045.35 499.094 1043.75 502.981 1040.89 505.851C1038.03 508.721 1034.15 510.341 1030.09 510.354H970.406C968.396 510.354 966.404 509.958 964.547 509.189C962.689 508.419 961.001 507.291 959.579 505.87C958.157 504.448 957.029 502.76 956.259 500.902C955.49 499.044 955.094 497.053 955.094 495.042ZM965.511 495.042C965.511 496.423 966.059 497.748 967.036 498.725C968.013 499.702 969.338 500.25 970.719 500.25H1030.09C1031.48 500.25 1032.8 499.702 1033.78 498.725C1034.75 497.748 1035.3 496.423 1035.3 495.042V458.584C1035.3 457.202 1034.75 455.878 1033.78 454.901C1032.8 453.924 1031.48 453.375 1030.09 453.375H970.406C969.025 453.375 967.7 453.924 966.724 454.901C965.747 455.878 965.198 457.202 965.198 458.584L965.511 495.042ZM1029.05 620.927H969.365C965.353 620.928 961.503 619.348 958.647 616.532C955.791 613.715 954.159 609.886 954.104 605.875V569.417C954.104 565.37 955.712 561.488 958.574 558.626C961.436 555.764 965.317 554.157 969.365 554.157H1029.05C1033.1 554.156 1036.99 555.763 1039.86 558.623C1042.73 561.483 1044.35 565.365 1044.36 569.417V605.875C1044.3 609.891 1042.65 613.719 1039.79 616.535C1036.92 619.35 1033.07 620.928 1029.05 620.927ZM969.365 610.511H1029.05C1030.43 610.511 1031.76 609.962 1032.74 608.985C1033.71 608.008 1034.26 606.684 1034.26 605.302V569.417C1034.26 568.036 1033.71 566.711 1032.74 565.734C1031.76 564.757 1030.43 564.209 1029.05 564.209H969.365C967.983 564.209 966.659 564.757 965.682 565.734C964.705 566.711 964.156 568.036 964.156 569.417V605.875C964.249 607.192 964.838 608.425 965.805 609.325C966.772 610.224 968.044 610.722 969.365 610.719V610.511ZM1114 736.865C1113.99 752.307 1109.02 767.336 1099.81 779.731C1090.6 792.126 1077.64 801.228 1062.86 805.69C1048.08 810.152 1032.25 809.739 1017.72 804.51C1003.19 799.281 990.727 789.515 982.177 776.656H638.428C635.232 776.691 632.062 776.091 629.099 774.892C626.137 773.693 623.442 771.918 621.171 769.671C618.899 767.423 617.095 764.747 615.865 761.798C614.634 758.849 614 755.685 614.001 752.49V333.323C613.98 330.123 614.595 326.951 615.81 323.991C617.025 321.031 618.816 318.341 621.078 316.078C623.341 313.816 626.031 312.025 628.991 310.81C631.951 309.595 635.123 308.98 638.323 309.001H1057.49C1063.89 309 1070.03 311.539 1074.56 316.06C1079.09 320.581 1081.64 326.715 1081.66 333.115V676.865C1091.59 683.411 1099.74 692.319 1105.39 702.79C1111.03 713.261 1113.99 724.969 1114 736.865ZM1057.49 319.417H929.209V398.323H1071.45V333.323C1071.43 329.63 1069.96 326.093 1067.34 323.487C1064.73 320.881 1061.18 319.417 1057.49 319.417ZM919.052 398.323V319.417H776.813V398.323H919.052ZM776.813 408.74V766.448H919.052V408.532L776.813 408.74ZM624.417 333.323V398.323H766.605V319.417H638.323C634.639 319.431 631.11 320.9 628.505 323.505C625.9 326.11 624.431 329.639 624.417 333.323ZM638.323 766.448H766.605V408.532H624.417V752.281C624.39 754.127 624.729 755.961 625.414 757.675C626.1 759.389 627.119 760.95 628.413 762.268C629.706 763.585 631.248 764.633 632.949 765.351C634.65 766.068 636.477 766.441 638.323 766.448ZM976.344 766.448C972.107 757.162 969.921 747.072 969.938 736.865C969.965 717.797 977.552 699.518 991.035 686.035C1004.52 672.552 1022.8 664.965 1041.86 664.938C1052.07 664.921 1062.16 667.107 1071.45 671.344V408.532H929.209V766.448H976.344ZM1103.58 736.865C1103.58 724.658 1099.96 712.725 1093.18 702.576C1086.4 692.426 1076.76 684.515 1065.48 679.844C1054.21 675.173 1041.8 673.95 1029.82 676.332C1017.85 678.713 1006.85 684.591 998.223 693.223C989.591 701.854 983.713 712.852 981.332 724.824C978.95 736.796 980.173 749.206 984.844 760.483C989.515 771.761 997.426 781.4 1007.58 788.182C1017.73 794.964 1029.66 798.583 1041.86 798.583C1058.23 798.57 1073.92 792.063 1085.49 780.491C1097.06 768.92 1103.57 753.229 1103.58 736.865ZM1089.16 721.24C1088.86 723.174 1088.18 725.031 1087.16 726.703C1086.14 728.374 1084.8 729.828 1083.22 730.979L1034.63 766.5C1032.05 768.357 1028.95 769.358 1025.77 769.365C1024.78 769.467 1023.79 769.467 1022.8 769.365C1020.8 768.945 1018.9 768.119 1017.22 766.936C1015.54 765.754 1014.13 764.24 1013.06 762.49L996.604 735.719C995.596 734.03 994.931 732.159 994.647 730.213C994.363 728.267 994.466 726.284 994.949 724.377C995.433 722.471 996.289 720.679 997.466 719.104C998.644 717.529 1000.12 716.201 1001.81 715.198C1003.5 714.19 1005.37 713.524 1007.32 713.24C1009.26 712.956 1011.25 713.059 1013.15 713.543C1015.06 714.027 1016.85 714.882 1018.43 716.06C1020 717.238 1021.33 718.715 1022.33 720.406L1030.3 733.375L1065.88 707.333C1067.44 706.171 1069.23 705.333 1071.12 704.868C1073.02 704.403 1074.99 704.32 1076.92 704.625C1080.83 705.228 1084.35 707.361 1086.69 710.554C1089.03 713.748 1090.01 717.741 1089.42 721.656L1089.16 721.24ZM1078.22 716.031C1077.87 715.519 1077.41 715.086 1076.88 714.763C1076.35 714.44 1075.76 714.233 1075.15 714.156C1073.9 713.958 1072.63 714.257 1071.6 714.99L1031.6 744.26C1031.03 744.658 1030.38 744.937 1029.7 745.079C1029.01 745.221 1028.31 745.224 1027.62 745.088C1026.94 744.952 1026.29 744.68 1025.71 744.287C1025.13 743.894 1024.64 743.389 1024.26 742.802L1013.38 725.667C1012.94 724.807 1012.25 724.102 1011.41 723.647C1010.56 723.191 1009.59 723.008 1008.64 723.122C1007.68 723.236 1006.78 723.641 1006.06 724.283C1005.35 724.924 1004.84 725.771 1004.63 726.708C1004.32 727.928 1004.51 729.219 1005.15 730.302L1021.76 756.917C1022.09 757.478 1022.53 757.964 1023.06 758.341C1023.59 758.718 1024.2 758.978 1024.83 759.104C1026.16 759.328 1027.52 759.03 1028.64 758.271L1077.23 722.75C1077.73 722.388 1078.14 721.929 1078.46 721.401C1078.77 720.873 1078.97 720.286 1079.05 719.677C1079.22 718.5 1078.92 717.305 1078.22 716.344V716.031Z" stroke="#8D8D8E" stroke-width="4" mask="url(#path-3-outside-1_69_2723)"/>
</svg>
