<svg width="1728" height="1117" viewBox="0 0 1728 1117" fill="none" xmlns="http://www.w3.org/2000/svg">
<rect width="1728" height="1117" fill="#F5F8F9"/>
<rect x="0.5" y="0.5" width="1727" height="1116" stroke="black" stroke-opacity="0.25"/>
<path fill-rule="evenodd" clip-rule="evenodd" d="M676.406 483.855C682.664 495.811 692.54 505.485 704.623 511.496C716.706 517.507 730.379 519.548 743.69 517.328C757.002 515.107 769.272 508.738 778.75 499.131C788.227 489.523 794.428 477.167 796.466 463.826C798.505 450.485 796.277 436.842 790.102 424.842C783.927 412.842 774.118 403.1 762.078 397.005C750.037 390.91 736.378 388.774 723.052 390.902C709.725 393.03 697.411 399.313 687.867 408.855C678.222 418.508 671.909 430.988 669.848 444.477C667.787 457.966 670.084 471.761 676.406 483.855ZM736.406 360.96C735.505 361.413 734.523 361.68 733.517 361.748C732.512 361.816 731.503 361.682 730.55 361.355C729.596 361.028 728.718 360.513 727.966 359.842C727.214 359.171 726.604 358.357 726.171 357.446C725.738 356.536 725.491 355.549 725.444 354.542C725.398 353.535 725.553 352.53 725.9 351.583C726.247 350.637 726.78 349.77 727.467 349.032C728.154 348.295 728.981 347.702 729.9 347.288C818.556 305.01 908.022 306.144 997.983 347.26C998.885 347.672 999.696 348.258 1000.37 348.983C1001.05 349.708 1001.57 350.56 1001.92 351.488C1002.26 352.417 1002.42 353.405 1002.39 354.395C1002.35 355.385 1002.12 356.359 1001.71 357.26C1001.3 358.162 1000.71 358.973 999.988 359.648C999.263 360.324 998.412 360.849 997.483 361.195C996.555 361.542 995.567 361.701 994.576 361.666C993.586 361.63 992.612 361.4 991.711 360.988C905.844 321.744 821.05 320.538 736.406 360.988V360.96ZM915.067 561.221C913.093 561.168 911.218 560.346 909.841 558.932C908.464 557.517 907.694 555.621 907.694 553.646C907.694 551.672 908.464 549.776 909.841 548.361C911.218 546.946 913.093 546.125 915.067 546.071H1012.23C1013.25 546.044 1014.25 546.22 1015.2 546.588C1016.14 546.956 1017 547.51 1017.72 548.216C1018.45 548.922 1019.03 549.767 1019.42 550.699C1019.81 551.632 1020.02 552.634 1020.02 553.646C1020.02 554.659 1019.81 555.661 1019.42 556.594C1019.03 557.526 1018.45 558.371 1017.72 559.077C1017 559.783 1016.14 560.336 1015.2 560.705C1014.25 561.073 1013.25 561.249 1012.23 561.221H915.067ZM1057.62 563.071C1059.49 563.071 1061.32 562.518 1062.87 561.48C1064.42 560.442 1065.63 558.967 1066.35 557.241C1067.06 555.515 1067.25 553.617 1066.89 551.784C1066.52 549.952 1065.62 548.27 1064.3 546.949C1062.98 545.628 1061.3 544.728 1059.46 544.364C1057.63 544 1055.73 544.187 1054.01 544.901C1052.28 545.616 1050.81 546.827 1049.77 548.38C1048.73 549.933 1048.18 551.759 1048.18 553.627C1048.18 556.132 1049.17 558.534 1050.94 560.305C1052.72 562.076 1055.12 563.071 1057.62 563.071ZM1075 571.021C1071.56 574.459 1067.18 576.8 1062.42 577.749C1057.65 578.698 1052.71 578.211 1048.21 576.351C1043.72 574.491 1039.88 571.341 1037.18 567.299C1034.48 563.257 1033.04 558.505 1033.04 553.644C1033.04 548.782 1034.48 544.03 1037.18 539.989C1039.88 535.947 1043.72 532.797 1048.21 530.936C1052.71 529.076 1057.65 528.59 1062.42 529.538C1067.18 530.487 1071.56 532.828 1075 536.266C1079.6 540.878 1082.19 547.128 1082.19 553.644C1082.19 560.16 1079.6 566.409 1075 571.021ZM915.067 647.955C913.058 647.955 911.132 647.157 909.712 645.737C908.292 644.317 907.494 642.391 907.494 640.383C907.494 638.374 908.292 636.448 909.712 635.028C911.132 633.608 913.058 632.81 915.067 632.81H1012.23C1014.24 632.81 1016.17 633.608 1017.59 635.028C1019.01 636.448 1019.81 638.374 1019.81 640.383C1019.81 642.391 1019.01 644.317 1017.59 645.737C1016.17 647.157 1014.24 647.955 1012.23 647.955H915.067ZM915.067 734.71C913.093 734.657 911.218 733.835 909.841 732.421C908.464 731.006 907.694 729.11 907.694 727.135C907.694 725.161 908.464 723.265 909.841 721.85C911.218 720.435 913.093 719.614 915.067 719.56H1012.23C1013.25 719.533 1014.25 719.709 1015.2 720.077C1016.14 720.445 1017 720.999 1017.72 721.705C1018.45 722.411 1019.03 723.255 1019.42 724.188C1019.81 725.121 1020.02 726.123 1020.02 727.135C1020.02 728.148 1019.81 729.15 1019.42 730.083C1019.03 731.015 1018.45 731.86 1017.72 732.566C1017 733.272 1016.14 733.825 1015.2 734.194C1014.25 734.562 1013.25 734.738 1012.23 734.71H915.067ZM1057.62 649.81C1059.49 649.81 1061.32 649.256 1062.87 648.219C1064.42 647.181 1065.63 645.706 1066.35 643.98C1067.06 642.254 1067.25 640.355 1066.89 638.523C1066.52 636.691 1065.62 635.008 1064.3 633.688C1062.98 632.367 1061.3 631.467 1059.46 631.103C1057.63 630.738 1055.73 630.926 1054.01 631.64C1052.28 632.355 1050.81 633.566 1049.77 635.119C1048.73 636.672 1048.18 638.498 1048.18 640.366C1048.18 642.871 1049.17 645.273 1050.94 647.044C1052.72 648.815 1055.12 649.81 1057.62 649.81ZM1075 657.76C1071.56 661.198 1067.18 663.539 1062.42 664.488C1057.65 665.436 1052.71 664.95 1048.21 663.09C1043.72 661.23 1039.88 658.08 1037.18 654.038C1034.48 649.996 1033.04 645.244 1033.04 640.383C1033.04 635.521 1034.48 630.769 1037.18 626.727C1039.88 622.686 1043.72 619.535 1048.21 617.675C1052.71 615.815 1057.65 615.329 1062.42 616.277C1067.18 617.226 1071.56 619.567 1075 623.005C1079.6 627.617 1082.19 633.867 1082.19 640.383C1082.19 646.899 1079.6 653.148 1075 657.76ZM1057.62 736.583C1059.49 736.583 1061.32 736.029 1062.87 734.991C1064.42 733.953 1065.63 732.478 1066.35 730.752C1067.06 729.027 1067.25 727.128 1066.89 725.296C1066.52 723.464 1065.62 721.781 1064.3 720.46C1062.98 719.139 1061.3 718.24 1059.46 717.875C1057.63 717.511 1055.73 717.698 1054.01 718.413C1052.28 719.127 1050.81 720.338 1049.77 721.891C1048.73 723.444 1048.18 725.27 1048.18 727.138C1048.18 729.643 1049.17 732.045 1050.94 733.816C1052.72 735.588 1055.12 736.583 1057.62 736.583ZM1075 744.533C1071.56 747.97 1067.18 750.311 1062.42 751.26C1057.65 752.209 1052.71 751.722 1048.21 749.862C1043.72 748.002 1039.88 744.852 1037.18 740.81C1034.48 736.768 1033.04 732.016 1033.04 727.155C1033.04 722.294 1034.48 717.542 1037.18 713.5C1039.88 709.458 1043.72 706.308 1048.21 704.447C1052.71 702.587 1057.65 702.101 1062.42 703.05C1067.18 703.998 1071.56 706.339 1075 709.777C1079.6 714.389 1082.19 720.639 1082.19 727.155C1082.19 733.671 1079.6 739.921 1075 744.533ZM926.95 494.927H890.839V785.871H1098.83V494.927H1062.72C1055.67 506.639 1045.72 516.33 1033.82 523.057C1021.92 529.785 1008.49 533.321 994.819 533.321C981.152 533.321 967.716 529.785 955.819 523.057C943.922 516.33 933.967 506.639 926.922 494.927H926.95ZM1069.8 479.777C1073.88 467.852 1075.05 455.127 1073.22 442.658C1071.39 430.189 1066.61 418.337 1059.28 408.085C1051.95 397.834 1042.28 389.479 1031.08 383.715C1019.87 377.951 1007.45 374.944 994.847 374.944C982.245 374.944 969.825 377.951 958.618 383.715C947.411 389.479 937.741 397.834 930.411 408.085C923.082 418.337 918.304 430.189 916.475 442.658C914.646 455.127 915.818 467.852 919.894 479.777H883.294C881.285 479.777 879.357 480.575 877.936 481.997C876.515 483.418 875.717 485.345 875.717 487.355V793.466C875.717 795.476 876.515 797.403 877.936 798.824C879.357 800.245 881.285 801.044 883.294 801.044H1106.4C1107.4 801.047 1108.39 800.852 1109.31 800.471C1110.24 800.09 1111.07 799.53 1111.78 798.824C1112.49 798.118 1113.05 797.279 1113.43 796.355C1113.81 795.432 1114 794.443 1114 793.444V487.333C1114 485.323 1113.2 483.395 1111.78 481.974C1110.36 480.553 1108.43 479.755 1106.42 479.755L1069.8 479.777ZM765.072 472.149C766.579 473.47 767.499 475.335 767.63 477.335C767.761 479.334 767.093 481.304 765.772 482.81C764.451 484.317 762.586 485.237 760.587 485.368C758.587 485.5 756.618 484.831 755.111 483.51L733.133 464.199L711.172 483.51C710.426 484.164 709.559 484.664 708.62 484.982C707.68 485.3 706.688 485.43 705.698 485.364C704.709 485.299 703.742 485.039 702.853 484.6C701.964 484.161 701.17 483.551 700.517 482.805C699.863 482.059 699.363 481.191 699.045 480.252C698.727 479.313 698.597 478.32 698.663 477.331C698.795 475.333 699.716 473.469 701.222 472.149L721.706 454.149L701.222 436.149C700.447 435.506 699.808 434.713 699.343 433.818C698.879 432.924 698.598 431.945 698.518 430.94C698.438 429.936 698.56 428.925 698.876 427.968C699.193 427.011 699.698 426.127 700.362 425.369C701.025 424.61 701.834 423.992 702.741 423.551C703.647 423.11 704.632 422.855 705.639 422.801C706.646 422.746 707.653 422.894 708.601 423.236C709.55 423.577 710.42 424.105 711.161 424.788L733.144 444.099L755.111 424.788C755.852 424.105 756.723 423.577 757.671 423.236C758.62 422.894 759.627 422.746 760.633 422.801C761.64 422.855 762.625 423.11 763.532 423.551C764.438 423.992 765.247 424.61 765.911 425.369C766.574 426.127 767.079 427.011 767.396 427.968C767.713 428.925 767.834 429.936 767.754 430.94C767.674 431.945 767.393 432.924 766.929 433.818C766.464 434.713 765.826 435.506 765.05 436.149L744.567 454.149L765.05 472.149H765.072ZM665.256 494.927C672.3 506.639 682.255 516.33 694.152 523.057C706.05 529.785 719.485 533.321 733.153 533.321C746.82 533.321 760.256 529.785 772.153 523.057C784.05 516.33 794.005 506.639 801.05 494.927H837.161V785.871H629.172V494.927H665.256ZM808.106 479.777H844.706C846.715 479.777 848.643 480.575 850.064 481.997C851.485 483.418 852.283 485.345 852.283 487.355V793.466C852.283 795.476 851.485 797.403 850.064 798.824C848.643 800.245 846.715 801.044 844.706 801.044H621.6C620.601 801.047 619.612 800.852 618.688 800.471C617.765 800.09 616.926 799.53 616.219 798.824C615.513 798.118 614.953 797.279 614.573 796.355C614.192 795.432 613.997 794.443 614 793.444V487.333C614 485.323 614.798 483.395 616.22 481.974C617.641 480.553 619.568 479.755 621.578 479.755H658.178C654.101 467.83 652.929 455.105 654.758 442.636C656.587 430.167 661.365 418.315 668.695 408.063C676.024 397.812 685.694 389.457 696.901 383.693C708.108 377.929 720.528 374.922 733.131 374.922C745.733 374.922 758.153 377.929 769.36 383.693C780.567 389.457 790.237 397.812 797.566 408.063C804.896 418.315 809.674 430.167 811.503 442.636C813.332 455.105 812.16 467.83 808.083 479.755L808.106 479.777ZM1040.11 408.86C1031.16 399.901 1019.74 393.799 1007.32 391.326C994.896 388.853 982.017 390.12 970.313 394.967C958.609 399.813 948.605 408.022 941.567 418.554C934.529 429.087 930.772 441.47 930.772 454.138C930.772 466.806 934.529 479.189 941.567 489.722C948.605 500.254 958.609 508.463 970.313 513.31C982.017 518.156 994.896 519.423 1007.32 516.95C1019.74 514.477 1031.16 508.375 1040.11 499.416C1052.11 487.404 1058.86 471.119 1058.86 454.138C1058.86 437.158 1052.11 420.872 1040.11 408.86ZM953.333 462.588C952.015 461.081 951.349 459.111 951.482 457.113C951.615 455.115 952.537 453.251 954.044 451.933C955.552 450.614 957.521 449.948 959.519 450.081C961.518 450.215 963.381 451.136 964.7 452.644L977.478 467.177L1025.72 424.788C1026.46 424.119 1027.33 423.604 1028.27 423.274C1029.22 422.944 1030.22 422.804 1031.22 422.864C1032.21 422.923 1033.19 423.18 1034.09 423.621C1034.99 424.061 1035.79 424.675 1036.45 425.428C1037.11 426.18 1037.61 427.056 1037.93 428.005C1038.24 428.953 1038.37 429.955 1038.3 430.953C1038.22 431.951 1037.95 432.924 1037.5 433.816C1037.05 434.708 1036.42 435.501 1035.66 436.149L981.772 483.51C981.026 484.163 980.158 484.663 979.219 484.981C978.279 485.299 977.287 485.428 976.297 485.362C975.308 485.296 974.341 485.036 973.452 484.596C972.563 484.156 971.769 483.546 971.117 482.799L953.333 462.588ZM653.372 561.221H750.539C751.551 561.249 752.558 561.073 753.501 560.705C754.444 560.336 755.304 559.783 756.029 559.077C756.755 558.371 757.331 557.526 757.725 556.594C758.119 555.661 758.322 554.659 758.322 553.646C758.322 552.634 758.119 551.632 757.725 550.699C757.331 549.767 756.755 548.922 756.029 548.216C755.304 547.51 754.444 546.956 753.501 546.588C752.558 546.22 751.551 546.044 750.539 546.071H653.372C651.399 546.125 649.524 546.946 648.147 548.361C646.77 549.776 646 551.672 646 553.646C646 555.621 646.77 557.517 648.147 558.932C649.524 560.346 651.399 561.168 653.372 561.221ZM795.928 563.071C797.796 563.071 799.622 562.518 801.175 561.48C802.728 560.442 803.938 558.967 804.653 557.241C805.368 555.515 805.555 553.617 805.191 551.784C804.826 549.952 803.927 548.27 802.606 546.949C801.285 545.628 799.602 544.728 797.77 544.364C795.938 544 794.039 544.187 792.314 544.901C790.588 545.616 789.113 546.827 788.075 548.38C787.037 549.933 786.483 551.759 786.483 553.627C786.483 556.132 787.478 558.534 789.25 560.305C791.021 562.076 793.423 563.071 795.928 563.071ZM813.306 571.021C809.868 574.459 805.489 576.8 800.721 577.749C795.954 578.698 791.012 578.211 786.52 576.351C782.029 574.491 778.191 571.341 775.49 567.299C772.789 563.257 771.347 558.505 771.347 553.644C771.347 548.782 772.789 544.03 775.49 539.989C778.191 535.947 782.029 532.797 786.52 530.936C791.012 529.076 795.954 528.59 800.721 529.538C805.489 530.487 809.868 532.828 813.306 536.266C817.909 540.878 820.494 547.128 820.494 553.644C820.494 560.16 817.909 566.409 813.306 571.021ZM653.372 647.955H750.539C752.547 647.955 754.473 647.157 755.893 645.737C757.313 644.317 758.111 642.391 758.111 640.383C758.111 638.374 757.313 636.448 755.893 635.028C754.473 633.608 752.547 632.81 750.539 632.81H653.372C651.364 632.81 649.438 633.608 648.018 635.028C646.598 636.448 645.8 638.374 645.8 640.383C645.8 642.391 646.598 644.317 648.018 645.737C649.438 647.157 651.364 647.955 653.372 647.955ZM653.372 734.71H750.539C751.551 734.738 752.558 734.562 753.501 734.194C754.444 733.825 755.304 733.272 756.029 732.566C756.755 731.86 757.331 731.015 757.725 730.083C758.119 729.15 758.322 728.148 758.322 727.135C758.322 726.123 758.119 725.121 757.725 724.188C757.331 723.255 756.755 722.411 756.029 721.705C755.304 720.999 754.444 720.445 753.501 720.077C752.558 719.709 751.551 719.533 750.539 719.56H653.372C651.399 719.614 649.524 720.435 648.147 721.85C646.77 723.265 646 725.161 646 727.135C646 729.11 646.77 731.006 648.147 732.421C649.524 733.835 651.399 734.657 653.372 734.71ZM795.928 649.81C797.796 649.81 799.622 649.256 801.175 648.219C802.728 647.181 803.938 645.706 804.653 643.98C805.368 642.254 805.555 640.355 805.191 638.523C804.826 636.691 803.927 635.008 802.606 633.688C801.285 632.367 799.602 631.467 797.77 631.103C795.938 630.738 794.039 630.926 792.314 631.64C790.588 632.355 789.113 633.566 788.075 635.119C787.037 636.672 786.483 638.498 786.483 640.366C786.483 642.871 787.478 645.273 789.25 647.044C791.021 648.815 793.423 649.81 795.928 649.81ZM813.306 657.76C816.164 654.902 818.273 651.384 819.447 647.516C820.62 643.648 820.822 639.55 820.033 635.586C819.245 631.621 817.491 627.913 814.927 624.788C812.363 621.663 809.067 619.22 805.333 617.673C801.599 616.126 797.54 615.524 793.518 615.921C789.495 616.317 785.633 617.699 782.272 619.945C778.911 622.191 776.156 625.231 774.251 628.796C772.346 632.361 771.35 636.341 771.35 640.383C771.348 645.244 772.788 649.998 775.488 654.041C778.189 658.084 782.027 661.235 786.519 663.095C791.011 664.956 795.954 665.442 800.722 664.492C805.49 663.543 809.869 661.2 813.306 657.76ZM795.928 736.583C797.796 736.583 799.622 736.029 801.175 734.991C802.728 733.953 803.938 732.478 804.653 730.752C805.368 729.027 805.555 727.128 805.191 725.296C804.826 723.464 803.927 721.781 802.606 720.46C801.285 719.139 799.602 718.24 797.77 717.875C795.938 717.511 794.039 717.698 792.314 718.413C790.588 719.127 789.113 720.338 788.075 721.891C787.037 723.444 786.483 725.27 786.483 727.138C786.483 729.643 787.478 732.045 789.25 733.816C791.021 735.588 793.423 736.583 795.928 736.583ZM813.306 744.533C816.164 741.675 818.273 738.156 819.447 734.288C820.62 730.42 820.822 726.322 820.033 722.358C819.245 718.394 817.491 714.685 814.927 711.56C812.363 708.436 809.067 705.992 805.333 704.445C801.599 702.898 797.54 702.296 793.518 702.693C789.495 703.089 785.633 704.471 782.272 706.717C778.911 708.963 776.156 712.003 774.251 715.568C772.346 719.133 771.35 723.113 771.35 727.155C771.348 732.017 772.788 736.77 775.488 740.813C778.189 744.856 782.027 748.007 786.519 749.867C791.011 751.728 795.954 752.214 800.722 751.264C805.49 750.315 809.869 747.972 813.306 744.533Z" fill="#8D8D8E"/>
</svg>
